<?xml version="1.0" encoding="utf-8"?>
<!-- Generator: Adobe Illustrator 23.0.0, SVG Export Plug-In . SVG Version: 6.00 Build 0)  -->
<svg version="1.1" id="Capa_1" xmlns="http://www.w3.org/2000/svg" xmlns:xlink="http://www.w3.org/1999/xlink" x="0px" y="0px"
	 viewBox="0 0 69.8 60.1" style="enable-background:new 0 0 69.8 60.1;" xml:space="preserve">
<style type="text/css">
	.st0{fill-rule:evenodd;clip-rule:evenodd;}
</style>
<polygon class="st0" points="56.5,1.3 56.1,2.5 54.4,5 54.1,5.5 53.8,5.8 53,5.9 52.7,6.2 52.3,5.7 51.9,4.5 51.6,3.9 51.5,3.2 
	50.9,1.6 50.3,1.1 49.8,1.2 49.4,2 49.1,3.4 48.4,5.5 47.6,6.8 47.1,8.5 46.7,10 46.7,10.4 44.8,12.9 45.1,13.1 43.6,15.2 
	43.7,15.4 42.8,17.1 42.6,17.9 42.3,18.3 42,18.3 42,18.4 41.9,18.5 41.7,18.5 41.8,18.9 40.1,19.9 38.5,19.9 33,20.2 32.4,20.4 
	31.6,20.5 31,20.7 28.3,21.3 25.9,21.6 24.2,21.4 24.1,21.3 22.8,21.1 19.7,20.7 18.7,20.8 17.1,21.1 16.1,21.4 15.7,21.6 
	12.6,22.9 11.7,23.3 11.5,23.7 10.7,24.4 10.5,25.6 10.8,26.1 11.6,26.1 12.2,25.9 12.4,25.9 12.5,26 11.4,27.9 10.6,30.1 
	10.3,31.5 10.2,32.2 9.7,33 9.7,33.5 10.2,33.4 10.3,33.5 10.1,34 10,35.2 10.1,35.5 9.8,36.4 8.4,38.9 8.1,39.7 8.2,39.8 8.1,40.1 
	6.8,41.6 6.2,42.1 6.3,42.3 6.6,42.2 6.7,42.1 6.8,42.5 5.5,43.9 5,44.3 4.9,44.3 4.9,44.5 5,44.6 5.4,44.4 5.3,44.7 3.6,46.6 
	3.6,46.8 4.2,46.6 4.3,46.6 4.3,46.7 2.8,48 1.9,48.7 1.7,48.7 1.8,49 2,49 2.1,49.1 1.1,50.5 1,50.7 1.1,50.8 1.1,51 1.7,50.5 
	1.8,51 1.2,52.2 0.6,52.8 0.7,52.8 0.7,53.1 1,53 1,52.7 1.3,52.5 1.4,52.5 1.4,52.8 0.9,54.1 0.3,54.8 0.4,54.9 0.7,55 0,57.1 
	0.1,57.4 0.5,57.3 0.9,56.7 1,56.7 1.1,56.8 0.6,58.2 0.3,58.6 0.5,58.9 0.8,58.8 1,59.2 1.5,59 1.5,58.9 2.1,58.8 2.3,58.8 
	2.5,58.8 2.5,59 3.1,58.9 3.3,59 3.3,59.5 3.7,59.5 4,59.1 4.2,59.2 4.7,59.2 5.4,58.3 5.8,59 6.4,58.7 6.8,59.1 7.3,58.9 7.4,58.8 
	7.7,59.3 7.9,59.2 8.2,58.3 8.7,58.9 9.2,58.7 9.6,57.1 9.6,56 9.7,55.5 9.7,55.4 9.8,55.3 9.9,55.3 10,56 10.1,56.2 10.2,56.2 
	10.3,56.1 10.5,56.3 10.5,56.8 10.4,57 10.4,57.5 11,57.5 11,57.4 11.3,57.9 12,57.9 12.1,57.7 13.3,57.9 13.7,58.2 14.1,57.9 
	14.1,57.8 14.5,57.6 15.1,57.8 15.8,57.6 16.5,57.8 16.9,57.5 16.9,57.3 17.2,57.3 17.3,57.4 17.5,57.5 17.7,57.5 17.6,57 
	18.4,56.7 17.8,55.6 17.6,54.7 17.5,52.7 17.7,52.2 17.9,51.9 17.7,51.5 18.3,50.3 18.9,49.5 18.9,49.4 19,49.3 19.2,49.5 
	19.4,49.5 19.9,48.5 20,48.4 20.1,48.4 20.3,48.6 20.8,47.7 21,48.1 21,48.2 21.2,48.2 21.5,47.2 21.6,46.8 21.8,46.6 22,46.6 
	22.4,45.1 22.7,45.1 23,44.4 23.1,43.8 23.1,43.7 23.2,43.8 23.2,44 23.4,44 23.6,43.4 24.2,41.7 25,40 25.2,40 25.4,40.2 
	25.5,40.9 25.8,41 26,41 26.2,40.5 26.2,40 26.3,39.9 26.4,39.9 26.8,40.8 27.1,40.9 27.1,40.9 27.3,40.3 28,41.3 28,41.4 
	28.3,41.5 28,40.1 28.2,39.9 29.1,41.3 29.3,42 29.6,42.3 29.8,42.2 29.9,41.4 30,41.3 30.5,42.5 30.7,42.7 30.9,42.7 30.9,41.8 
	31.2,42.3 31.6,42.6 31.8,42.6 32.8,44.3 33,44.3 33.2,44.3 33,43.6 33,43.3 33.1,43 33.5,43.4 33.8,43.4 35.1,44.7 35.3,44.9 
	35.5,44.8 35.5,43.6 35.7,43.6 36.6,44.6 36.8,44.6 37,44.7 37,43.8 37.9,45.2 38.1,45.3 38.2,44.3 39.6,46.4 40,46.4 40.3,46.2 
	40.2,45.6 40.3,45.5 41.2,46.4 41.3,46.7 41.5,46.9 41.8,46.7 41.8,46.7 41.9,46.5 42.5,47.5 42.5,47.8 42.8,48 42.9,48.1 
	43.1,47.8 43,47.7 43,47.7 43.1,47.5 43.3,47.8 43.5,47.8 44,48.4 44.2,49.3 45,48.3 45,48.8 44.8,49.4 45,49.6 44.9,50.7 
	44.8,51.5 44.8,51.7 44.9,51.7 45.1,51.9 44.8,52.5 44.9,53.1 44.7,53.7 44.7,54.1 44.9,54.1 44.9,54.4 44.7,55 44.7,55.1 
	44.5,55.3 44.6,55.4 44.6,55.5 45,55.3 45,55.7 44.7,56.2 44.8,57.2 45.3,57.2 45.6,58.7 45.9,58.7 46.1,58.5 46.2,58.5 46.4,59.1 
	46.4,59.1 47,59.1 47,59 47.3,59 47.4,59.4 47.4,59.5 47.9,59.1 48.3,59.4 48.4,59.4 48.5,59.3 48.6,59.1 48.9,59.1 49.1,59.5 
	49.3,59.5 49.5,59 49.7,58.8 49.9,59.2 50,59.2 50.1,59.2 50.2,59 50.8,60.1 50.9,60.1 51.2,59.3 51.4,59.1 51.5,59.2 51.5,59.5 
	51.6,59.5 52,59.4 52.4,58.6 53.7,58.6 54.3,58.7 54.6,58.6 54.7,58.3 54.9,58.2 55.4,58.4 56,58.2 56.7,58.2 56.9,57.7 57.5,58.1 
	57.5,58.1 57.7,57.9 57.6,56 56.3,53.5 56.2,52.6 56.3,52.5 56.5,52.5 56.5,52.4 56.3,51.8 56.2,51.7 56.2,51.6 56.2,51.5 
	56.5,51.8 56.9,51.7 56.3,50.5 56,49.6 56,49.6 56.1,49.5 56.6,49.9 56.9,49.8 56.3,48.2 56.2,48.2 55.9,47.5 55.9,47.4 56.2,47.4 
	55.8,46.2 55.4,45.5 55.3,45.4 55.4,45.3 56,45.9 56.1,46 56.3,45.8 55.2,44 55.3,43.9 55.6,44 55.7,44.1 55.8,43.7 54.9,42.4 
	54.9,42.3 55,42.2 55.4,42.4 55.5,42.4 54.8,40.7 54.8,40.5 54.9,40.4 55,40.4 55.3,41.1 55.6,41.2 54.5,38.2 54.5,37.4 54.9,36.3 
	55.1,33.8 54.8,33.1 54.6,31.2 55.2,30.1 55.2,29.9 55.2,29.8 55.4,29.8 55.8,28.4 56.2,26.9 56.1,24.6 56.4,24 56.4,23.5 
	56.7,23.1 56.8,23 57,23.2 57.1,24.6 57.4,24.5 57.6,23.8 57.9,24.6 57.8,25.2 57.9,25.2 58,25.3 58.4,23.9 58.4,23.8 58.5,23.8 
	58.7,24.4 59.1,26.2 59.2,26.2 59.3,25.1 59.3,24.9 59.3,24.8 59.7,25.5 60.2,27.3 60.3,27.3 60.4,27.4 60.4,25.1 60.5,24.9 
	61,26.8 61.6,28.4 61.8,28.6 61.7,27.5 61.6,27.5 61.6,27.2 61.6,27.1 62.2,28 62.4,28.2 62.3,26.3 62.4,26.1 62.7,26.8 62.9,27.4 
	63.1,27.4 62.9,26.3 62.9,26 63,25.9 63.4,26.4 63.7,27.1 63.9,27 63.9,25.4 63.9,25.3 64.4,26 64.6,25.7 64.5,25.4 64.5,25.1 
	64.8,25 64.8,24.3 64.9,24.1 64.9,23.5 65,23.5 65.3,23.7 65.2,21.9 65.3,21.8 65.4,22.1 65.4,22.4 65.7,22.4 65.7,22.3 65.9,22.1 
	66.1,22.5 66.2,23.7 66.3,23.9 66.6,23.8 66.9,23.2 67.1,23.4 67.2,25.2 67.2,25.1 67.4,25.1 67.9,23.3 68.2,23.5 68.4,22.5 
	68.6,22.7 68.8,22.7 68.9,21.8 68.9,21.5 68.9,21.5 69.3,22 69.6,22.1 69.7,20.6 69.6,19.9 69.5,19.4 69.5,19.1 69.8,19 69.7,18.1 
	69.6,17.8 69.6,17.6 69.5,17.6 69,16.7 68.8,16.2 67.8,15.6 68.2,15.3 68.2,15.2 67.9,14.8 67.9,14.5 66.2,14.7 66.1,14.6 66.7,14 
	67.4,13.9 67.4,13.9 67.2,13.7 66.9,13.9 65.6,14 65.2,14.3 64.8,14.1 64.4,14.4 63.6,14.2 62.7,13.8 62,12.6 62.1,12.5 62.8,13.2 
	63.1,13.2 63.2,12.7 63.3,12.6 63.6,12.8 63.8,12.8 63.9,12.5 63.9,12.3 64.2,12.1 63.8,11.1 63.4,10.7 63.2,10.5 63.2,10.4 
	63.3,10.3 63.8,10.6 64.2,11.1 64.5,11.1 64.3,10.5 62.8,9.4 61.7,9 61.7,8.9 61.7,8.8 62.1,8.7 63.5,9 63.6,8.9 63.6,8.9 63.2,8.5 
	61.6,7.9 60.8,8 60.5,8.3 59.7,8.2 58.8,7.4 58.2,6.9 57.9,6.2 58.1,4.8 58.3,2.5 57.7,0.9 57.1,0 56.6,0.5 56.5,1.3 "/>
</svg>
