<svg xmlns="http://www.w3.org/2000/svg" viewBox="0 0 386.58 443.32"><defs><style>.cls-1{fill:#231f20;}.cls-2{fill-rule:evenodd;}</style></defs><title>Recurso 1</title><g id="Capa_2" data-name="Capa 2"><g id="Layer_2" data-name="Layer 2"><path d="M319.15,155.89s17.88-.5,23.13,2c0,0,10.63,1.87,14.63-2.13,0,0,3.38-8.88,5.89-11.5,0,0,1.5-3.63,5.25-3.75a10.84,10.84,0,0,1,8.63,2s1.63,2.62,7,3.62c0,0,4.38,1.13,2.37,4.26,0,0,0,2.87-6,3.25,0,0,1.12,1.5-4,1.25,0,0,1,6.12-1.12,6.25,0,0-2.26,1.25-1.13,4.38,0,0,.75,4.38-1.88,6.63,0,0-4.5,2.5-5,6.75,0,0-.62,6.13,1.63,7.25,0,0,4.37.38,4.25,2.38s.12.38.12.38a13,13,0,0,1-4.37.5s-5.38-.75-4.38-4.76c0,0-.87-11.38-.38,3.13,0,0,3.13,1,2.88,3.25a10,10,0,0,1-7.38-.75s-2.25-7.5-2.25-9.63c0,0-20.63-2.75-22.76-4,0,0,1.88,4.5-7.88-.25,0,0-1.88-.75-1.75,3.38,0,0-.62,2.37,3,4.13,0,0,3.25,2,.25,2.87,0,0-5.5.63-6-1.5,0,0-1.75-6.13-3.88-6.25,0,0-.37-.25,0-1.63,0,0-4.25,1.63-4.37,3.13,0,0-1,6.75,0,8.88,0,0,3.75,1.5-.13,2.5,0,0-5.13.87-5.13-2.63,0,0,.5-7.5.13-10.25,0,0-1.13-1.5.87-3.75,0,0,2.5.24,2.88-6.76,0,0-1.25-5.38,3.12-8.75,0,0-10-16.76-8.63-20.14,0,0,1.88-8.75,4.13,2.38C310.89,142,314.15,152.13,319.15,155.89Z"/><path d="M180.56,130.74s3.21,1.45,4.13,1.94c0,0,2.32.57,1.09,1.81a5.85,5.85,0,0,1-5.46,3,5.67,5.67,0,0,1-4.25-.68s-4.51-1.25-7,4.47c0,0-3.11,4.71-2.7,9.46a3.81,3.81,0,0,1-.79,3.32,7.89,7.89,0,0,1-2.83,6.14s-2.38,2.1-2.53,3.83c0,0-.24,4.75-1.12,6.75a8.29,8.29,0,0,0-.49,2.59c0,1.27,0,5.28-.4,6.56,0,0-.71,4-.17,4.7a2.77,2.77,0,0,1,2.87,2.65s1,1.19.66,2a2.5,2.5,0,0,1-1.61.4.58.58,0,0,1-.55-.19s.35.57-1.19.35c0,0-2.39.2-2.55-2,0,0-.18-3.93-.64-4.66,0,0-2.58.29-1.4-1.61a5.51,5.51,0,0,0,.72-3.13s-.44-11.95-.25-13.73c0,0-5.13.22-11.63-3.84a31.13,31.13,0,0,0-8.06-1.2s-6.88-1.2-9,.55c0,0-3.53,4.18-3.87,5.22,0,0-3.87,5-7,6.74,0,0-6.27,2.81-6.25,7.9,0,0-1,3.36.91,4.31,0,0,2.12.77,2.17,2.65,0,0,.08.7-1.81.28,0,0-1.77.63-2.51-.18,0,0-1.11.32-1-1.42a25.58,25.58,0,0,0-.17-4.36s-1.2.43-.32,5.94c0,0,3.51,1.6,3.52,3.84a2.71,2.71,0,0,1-3.23.56,2.31,2.31,0,0,1-2.82-.8,9.81,9.81,0,0,1,0-2.82,74,74,0,0,0-.89-7.51s-1.28-4,.79-5.36c0,0,4.89-3,6.3-6.43,0,0,1.49-2.67,2.1-3.6a12.07,12.07,0,0,0,1.2-6.33s-.84-6.82,1.47-8.14c0,0,1.34-1.51.3-2.75,0,0-3.25-2.45-1.64-3.3,0,0,.69-1.24,3.33,1.41a6.5,6.5,0,0,0,5.35-.64s13.68-3.38,20.59-3.11c0,0,8.43-3,11.55-3.56,0,0,5-2.14,6.57-4,0,0,5.07-5.84,7.07-7.09,0,0,1.59-5.33,2.86-6.92a3.86,3.86,0,0,0,.41-1.65s.62-.59,1.09.34a2.44,2.44,0,0,0,.18-2.51.36.36,0,0,1,.26-.5s1.2-.55,1.05,2.35c0,0-1.29,4.44.22,5.59,0,0,.36.92,2.17,1.37a4.39,4.39,0,0,1,3,2,6.53,6.53,0,0,0,.69,1.71A4.31,4.31,0,0,0,180.56,130.74Z"/><path d="M75.85,10.52s.37-4.27-2.15-5.41c0,0,.37-3.5,0-4.49,0,0-1.29.08-2.12,3.28,0,0-.69-.3-2.14.39,0,0-.31-3.58-1.76-3.43,0,0-1.15-.53-2.74,4.28,0,0-1.82,1.3-2.05,2.29,0,0-2.68-.38-4.14,4.63,0,0-1.71,3-2.54,4.24,0,0-4.19,2.61-4.8,3.45,0,0-6.93,2-9.22,2,0,0-10.6-.2-13.35-1.11,0,0-2.77-9.45,3.48-9.31,0,0,3.74-.63,1.06-3.29,0,0-10.47-9.12-11.77,17.35,0,0-6.84,7.57-5,20.91,0,0-4,9.93-2.86,13.66,0,0-.91,1.53,1.53,2,0,0,5.88.9,4.8-1.08,0,0-.08-1.38-2.29-1.29,0,0-.93-4.12,3.94-10.31,0,0-.52,6.18.71,8,0,0-.53,2.21,1.38,2.58,0,0,4.8.68,5.94-.62,0,0,.61-1.53-3.36-1.75,0,0-1.46-3.2.9-7.32A11.8,11.8,0,0,0,34,43.44s12.74,3.47,21.21,2.15c0,0,2.39,11.89,3.77,13.26,0,0,1,2.28,6.26,1.28,0,0,1.37.22.91-1.23,0,0,3.28.6,3.81-.31a1.39,1.39,0,0,0-1.07-2.21L67,56a7.5,7.5,0,0,1-1.46-2.51s-.86-9.76,1.26-13.43c0,0,5.93-6.5,5.76-12.37,0,0,.82-7.32,1.27-8.31,0,0,4.2.82,4.5.44,0,0,1.53-.77-.15-2.06l.07-.53s2.36-.69,2.13-2.9C80.36,14.33,81.5,13.41,75.85,10.52Z"/><path class="cls-1" d="M127.08,22.63a9.66,9.66,0,0,0,2.07-6.1l.65-.08,13.51-.13s11.19-.11,15.79-6.15,5.52-7.76,9.7-9.08l0,3.85A9.62,9.62,0,0,1,174,7.88c2.35,2.55,2.38,5.12,6.11,5.94s1.68,5.55-2.27,5.58c-3.41,0-5.77-.4-7.78.74-1.28.72-2.07,1.86-2.87,4a46.91,46.91,0,0,1-4.39,9.48c-1.39,2.47-4.5,3.86-5.34,10.46,0,0-1,6.85-1.18,9.39s-.38,4.66,1.8,5.18,4,3,1.3,3.08l-3.9,0a2.34,2.34,0,0,1-1.83-.81c-.52-.59-.76-1.57-1.14-3.44a36.69,36.69,0,0,1-1-9.07c-.09-4.57-.16-7-.75-9s-2.08-4.32-6-4.28c-3.58,0-2,0-8.49,0s-5.89,2.27-9.11,7.8-7,6.67-7.3,10.73l0,1.42c-.12,2.11.35,3.48,1.84,3.84,2.19.52,4,3,1.31,3.07l-5.22,0a2.38,2.38,0,0,1-1.83-.81c-.71-.8-.79-1.89-.88-5.67a30.29,30.29,0,0,1,.12-4.41A22.49,22.49,0,0,1,116.27,47a15.41,15.41,0,0,0,.88-5.24,28.93,28.93,0,0,0-.66-4.19c-1.14-4.17-1.64-5-1.49-9.83a12.2,12.2,0,0,1,.37-2.48,6,6,0,0,0,2.3.86A10,10,0,0,0,127.08,22.63Z"/><path class="cls-1" d="M114.31,11.39A7.07,7.07,0,0,1,118,8.86a7.91,7.91,0,0,1,6.33.62,7.76,7.76,0,0,1,3.5,5A8.69,8.69,0,0,1,126.24,22c-2.41,3.15-6.41,3.41-8.39,3.07A3.81,3.81,0,0,1,115,23.43a3.22,3.22,0,0,1-.37-3.11c.59-1.5,2.06-1.82,3.47-2.14a6.35,6.35,0,0,0,1.86-.6,2.72,2.72,0,0,0,1.1-.89,1.77,1.77,0,0,0,.13-1.55,1.4,1.4,0,0,0-1.8-.69,1.58,1.58,0,0,0-1,1.53,5.25,5.25,0,0,0,.28,1l-.83.17a5.8,5.8,0,0,0-3.81,2,7.37,7.37,0,0,1-1-3.59A7.45,7.45,0,0,1,114.31,11.39Z"/><polygon class="cls-2" points="274.01 0.68 273.81 3.89 274.01 5.08 273.81 6.04 274.01 6.91 273.93 7.03 273.93 7.15 274.12 7.23 274.44 7.23 275.32 8.46 275.44 8.54 276.19 8.3 276.27 8.46 276.27 8.98 277.9 9.1 278.02 9.17 277.38 9.73 277.46 9.85 277.58 10.37 278.14 10.72 278.33 10.92 278.33 11.12 278.02 11.12 277.7 11.99 277.26 11.99 277.06 12.55 277.06 12.63 277.14 13.11 278.25 13.82 280.4 14.5 282.55 15.69 282.78 16.12 282.78 16.56 282.11 17.2 281.71 18.59 281.47 19.14 281.04 20.02 280.28 20.53 279.76 21.21 278.89 21.72 276.95 21.84 276.63 22.16 276.07 21.96 275.32 22.72 275.12 23.59 275.32 24.66 274.88 24.86 274.88 26.05 274.56 25.73 274.56 24.98 274.44 24.86 274.25 25.61 274.25 26.93 274.12 27.05 273.93 26.61 273.81 25.3 273.37 24.11 273.25 24.11 273.05 27.13 272.81 27.13 272.74 27.05 272.38 27.88 272.74 29.86 273.13 30.58 273.13 30.82 272.81 30.82 272.62 30.5 272.38 30.26 272.38 32.13 271.94 31.45 271.94 31.14 271.62 30.82 271.43 32.45 271.62 33.96 271.54 34.03 271.54 34.16 271.19 33.52 270.87 32.21 270.67 32.01 270.23 33.64 270.12 36.02 270.12 37.53 270.35 38.28 270.47 39.79 270.47 40.11 269.92 39.55 269.8 38.68 269.6 38.28 269.36 39.48 269.36 41.3 269.16 41.3 268.8 40.35 268.73 38.05 268.61 37.97 268.73 41.74 268.73 42.06 268.17 41.5 267.97 40.43 267.85 40.35 267.73 40.35 267.53 41.94 267.73 43.25 267.61 43.37 266.98 42.06 266.66 43.49 266.9 45 266.98 45.08 266.98 45.31 266.9 45.39 266.66 45.39 265.71 43.8 265.59 43.49 265.47 43.37 265.27 43.8 265.03 45.19 265.27 49.52 265.35 54.17 265.79 55.04 266.54 55.24 267.1 55.04 267.42 55.12 268.29 55.56 268.92 56.75 269.04 57.43 269.36 57.74 269.16 58.18 268.49 58.38 267.53 58.18 267.1 58.18 266.98 58.06 266.34 58.38 265.47 58.3 264.72 58.38 263.96 58.06 263.08 57.19 262.45 56.23 262.33 56.12 262.13 56.12 262.01 55.68 262.01 55.36 261.89 55.24 261.58 55.44 261.38 55.44 261.02 54.49 260.94 54.37 260.7 55.92 261.02 57.51 261.69 57.82 262.77 58.82 262.77 59.25 263.2 59.77 263.2 60.32 262.77 60.76 261.46 60.96 260.7 60.76 259.63 61.28 258.64 61.28 257.8 60.76 256.93 59.25 256.73 58.3 256.61 58.18 256.18 56.87 255.74 57.31 255.62 57.31 255.42 56.63 255.42 55.36 255.3 55.24 255.1 55.56 255.1 55.8 254.98 55.68 254.86 55.8 254.86 55.92 254.79 55.92 254.98 55.24 254.98 54.37 254.86 54.29 254.55 54.61 254.47 52.86 253.91 53.73 253.67 53.73 253.47 52.66 253.47 51.9 253.35 51.79 253.04 52.54 252.8 52.78 252.48 51.59 252.72 49.2 252.6 49.09 251.73 50.8 251.73 51.47 251.61 51.35 251.53 51.47 251.53 51.59 251.21 50.72 251.29 48.01 251.09 47.66 250.97 46.7 250.46 47.14 250.22 47.34 249.66 46.7 249.46 45.51 249.46 45.39 249.58 45.31 249.34 45.08 248.59 46.5 248.27 44.88 248.15 44.76 247.76 45.75 247.64 45.83 247.28 45.83 247.08 44.68 247.2 44.12 247.2 44 246.88 44 245.45 45.75 245.33 46.82 245.25 46.94 244.82 46.7 244.38 45.51 243.75 46.7 243.31 46.7 243.07 45.83 242.95 45.75 242.55 46.39 242.24 46.7 242 45.95 241.88 45.83 241.44 47.02 241.36 47.02 241.24 47.14 241.04 46.82 240.69 45.39 240.93 44.76 240.93 44.68 240.81 44.56 239.18 46.15 238.98 46.82 238.86 47.34 238.78 47.34 238.66 47.46 238.42 47.02 238.11 45.19 237.23 46.15 237.03 46.7 236.8 46.94 236.6 46.94 236.6 45.95 236.48 45.83 235.84 46.59 235.52 46.94 235.17 46.94 235.29 45.75 235.52 45.31 235.52 45.19 235.4 45.08 234.21 46.39 233.98 46.94 233.66 47.02 234.09 45.75 234.09 45.51 233.98 45.39 233.26 46.39 232.9 46.7 232.47 46.5 232.39 46.39 231.07 48.21 230.32 49.72 230 50.72 230 52.46 231.07 54.61 232.39 55.8 233.34 56.12 233.66 57.19 233.98 58.3 233.98 58.7 232.9 59.13 230.52 59.25 229.33 58.7 228.69 57.62 227.5 56.55 227.5 56.23 227.06 55.68 226.63 54.61 225.36 53.18 225.24 52.46 225.24 52.1 225.56 51.79 225.68 51.03 225.56 50.91 225.24 51.27 224.8 51.27 224.8 50.91 225 50.72 224.92 50.6 223.81 51.59 223.41 52.22 223.17 52.22 223.09 51.47 222.54 52.22 222.1 52.54 221.78 52.22 220.35 53.41 219.72 54.37 219.28 55.68 219.4 58.62 219.72 58.7 220.35 59.13 220.79 60.56 221.23 61.08 221.23 61.28 220.16 61.75 218.65 61.95 217.77 62.15 216.46 61.84 215.63 60.96 214.95 58.82 215.19 58.38 214.95 57.11 215.07 54.37 215.31 52.46 215.19 52.1 216.02 51.35 216.78 50.91 217.57 50.16 217.57 49.84 218.77 48.77 218.09 48.77 217.97 48.85 217.65 48.53 218.29 48.13 218.77 47.66 218.21 47.46 219.84 45.75 220.27 45 220.91 43.13 220.91 43.01 220.35 42.93 220.71 41.42 221.35 40.11 220.91 40.11 220.79 40.23 220.47 40.23 220.71 39.48 220.71 39.35 220.04 39.35 220.47 37.41 221.15 36.02 221.15 35.78 221.03 35.7 220.04 36.77 219.96 36.85 219.72 36.66 220.59 34.51 220.91 34.03 220.71 33.64 221.15 33.08 221.55 31.89 223.49 29.94 223.73 29.19 223.81 29.19 223.93 28.87 223.93 28.55 223.81 28.44 223.29 27.36 223.17 25.73 222.62 24.66 222.54 23.59 222.22 22.08 222.22 21.6 222.3 21.6 222.54 21.41 222.22 20.33 222.22 19.26 222.62 19.02 222.86 18.59 222.86 16.64 223.49 15.69 224.17 15.25 225 15.77 225.87 16.88 226.95 19.14 227.94 22.48 228.46 23.47 228.69 24.43 229.25 25.42 230.12 25.85 230.96 26.17 233.26 26.37 233.98 26.17 235.4 25.93 236.04 25.61 236.8 25.85 238.78 25.85 242.63 26.25 244.62 26.49 246.13 26.37 246.76 26.17 248.07 26.17 250.53 25.93 252.04 25.73 254.47 24.66 257.56 22.91 257.8 22.48 257.8 21.96 257.68 21.84 257.13 22.72 256.93 22.72 256.93 22.16 257.37 20.65 257.13 20.41 257.37 19.9 257.68 18.47 258 17.75 258 16.96 259.19 14.81 259.43 14.61 259.43 14.5 259.19 14.38 258.88 14.38 259.63 13.19 259.95 12.55 261.58 11.12 262.01 10.05 262.13 10.05 262.33 8.98 262.89 7.15 264.28 4.33 264.63 1.75 265.59 0.44 266.66 0.44 267.42 2.58 267.73 4.53 268.4 6.04 268.73 6.27 269.48 6.04 269.48 5.72 270.12 4.96 271.86 2.26 272.3 1.07 273.13 0 273.81 0.44 274.01 0.68 274.01 0.68"/><polygon class="cls-2" points="363.64 21.77 362.93 22.32 362.52 23.22 362.24 23.89 361.49 24.58 360.77 24.95 359.65 25.68 358.78 26.4 358.45 26.88 358.43 27.06 358.39 27.09 358.32 27.08 357.45 28.31 357.35 28.63 357.4 29.17 357.46 29.32 357.46 29.36 356.88 29.34 356.44 29.81 356.33 30.96 355.99 31.11 355.86 31.32 355.7 31.16 355.37 31.13 354.67 32.12 354.52 32.47 354.49 32.5 354.19 32.11 353.6 32.2 353.23 32.38 352.5 33.22 351.99 32.85 351.59 32.81 351.36 32.9 351.11 32.88 350.99 32.98 350.41 33.03 349.88 33.24 349.5 33.45 349.02 33.56 348.75 33.68 348.42 33.36 348.28 33.31 347.24 33.14 345.95 33.38 344.68 33.34 342.56 33.11 341.12 32.68 339.01 31.91 338.9 31.9 338.77 31.74 338.63 31.73 337.06 31 336.32 30.79 336.08 30.63 335.65 30.51 334.28 30.06 332.4 29.56 332.05 29.49 331.5 29.55 330.04 30 328.99 30.37 328.06 30.68 327.36 30.8 327.1 30.78 326.7 30.85 325.88 30.7 324.68 30.37 323.47 30.44 323.29 30.43 323.1 30.52 322.64 31.17 322.48 31.77 322.46 31.95 322.65 32.26 322.3 32.55 322.38 32.88 322.74 33.68 323.23 34.23 323.23 34.27 322.97 34.32 322.93 34.31 322.85 34.41 322.84 34.92 323.44 35.56 323.76 35.95 323.88 36.25 323.45 36.97 322.65 38.17 322.37 38.87 322.33 40.06 322.87 41.71 322.75 43.08 322.91 44.44 323.23 45.73 324.08 47.84 324.38 48.6 324.86 49.66 325.11 50.48 325.09 51.13 324.91 51.51 324.32 51.93 324.03 52.01 323.81 52.35 323.89 52.69 324.38 53.75 324.69 56.28 324.66 57.8 324.93 58.41 324.8 58.58 324.99 58.92 325.29 59.2 325.5 59.22 325.75 59.72 326.42 60.32 326.67 60.42 327 60.7 327.03 60.74 327.18 60.75 327.34 60.55 327.36 60.34 327.75 60.05 327.76 59.94 328.05 59.96 328.67 60.31 329.2 60.83 329.31 60.84 329.43 60.71 329.57 60.43 329.63 60.14 329.68 60.01 330.07 60.04 330.69 60.5 330.83 60.51 330.95 60.34 330.95 59.98 330.76 59.67 330.95 59.25 330.94 58.92 330.69 58.47 330.59 58.35 330.38 58.29 330.03 57.82 329.67 57.72 329.67 57.75 328.87 57.75 328.6 57.55 328.51 57.28 328.16 56.82 328.2 56.35 328.37 56.04 328.68 55.45 328.87 54.6 329.04 53.92 329.18 53.61 330.95 52.9 331.72 52.39 332.49 51.52 332.81 51.95 332.88 52.43 332.74 52.81 332.24 53.42 332.19 53.96 332.31 54.3 332.88 55.22 334.05 56.7 334.49 57.4 334.89 58.56 335.29 58.96 335.31 59.07 335.59 59.28 337.06 59.45 337.63 59.9 337.95 60.04 338.31 60 338.77 59.82 338.83 59.9 339.1 59.78 339.24 59.8 339.5 60.07 339.6 60.23 339.8 59.59 340.26 59.71 340.47 59.8 340.67 60 340.7 60.04 340.74 60.04 340.86 59.94 340.89 59.55 340.59 58.94 339.32 57.3 338.63 56.91 338.27 56.95 337.93 57.13 337.88 57.17 337.62 56.92 336.82 55.73 336.6 54.98 336.66 54.33 337.36 53.78 338.08 53.48 339.22 52.46 339.61 51.77 340.16 50.16 340.17 50.12 340.31 50.13 340.81 50.54 342.77 51.74 343.75 52.19 345.11 52.83 346.6 53.54 347.48 53.88 348.97 54.19 350.06 54.22 350.58 54.09 351.46 53.95 351.9 53.95 352.11 53.94 352.22 53.95 352.32 54.03 352.4 53.97 353.15 55.74 353.77 58.05 353.78 59.1 353.73 59.64 353.76 60.08 353.71 60.65 353.91 60.89 354 61.04 354.65 61.1 354.96 61.24 355.5 61.76 355.77 61.93 356.2 62.01 356.63 62.01 356.75 61.91 357.11 61.95 357.31 62.15 357.53 62.13 357.52 61.84 358.3 62.02 358.94 62.15 359.2 62.07 359.21 62.03 359.79 62.05 359.98 61.88 360.27 61.91 360.5 62.11 360.76 62.14 361.06 61.95 361.14 61.88 361.13 61.66 360.97 61.43 360.99 61.21 360.95 61.21 360.89 61.13 360.89 61.06 360.93 60.99 361.42 61.22 361.64 61.17 362.14 61.28 362.68 61.33 362.96 61.43 363.12 61.34 363.18 61.38 363.29 61.06 363.59 60.95 363.94 61.12 364.01 61.13 364.07 61.21 364.29 61.16 364.43 60.88 364.21 60.09 364.06 59.79 363.7 58.92 363.48 58.54 363.49 58.51 363.35 58.38 362.7 58.4 362.44 58.48 361.68 58.41 361.37 58.27 361.24 58.08 361.17 57.67 361.39 55.99 361.52 55.38 361.56 54.23 361.25 53.66 361.73 53.16 362 52.96 362.8 52.89 363.29 52.79 363.92 52.16 364.5 51.49 364.58 51.31 364.74 51.18 364.85 51.19 365.3 50.65 365.45 49.76 365.6 48.54 366.41 48 366.6 47.98 366.76 47.78 367.1 46.47 366.92 45.69 366.68 45.45 366.82 45.13 366.69 44.18 366.45 43.58 366.31 43.2 366.32 43.09 366.37 42.95 366.68 42.69 367.03 41.67 367.23 40.64 367.5 40.44 367.54 40.48 367.54 40.45 368.48 40.5 369.88 41.82 370.28 41.86 370.98 41.78 371.33 41.41 371.4 41.42 371.54 41.98 371.77 42.18 372.32 42.48 372.95 42.72 373.72 42.68 374.22 42.37 374.79 41.73 374.92 41.45 375.04 41.32 375.1 41.11 375.95 40.1 377.68 38.69 378.15 38.3 378.26 37.88 378.18 37.14 378.08 36.7 377.88 36.54 377.49 36.39 377.56 35.6 377.02 34.42 376.55 33.98 376.52 33.98 376.53 33.8 376.7 33.56 376.68 32.98 376.43 32.52 376.14 32.2 375.54 31.93 375.18 31.9 374.78 31.54 374.53 31.11 374.57 30.68 374.79 30.27 375.33 29.92 375.32 29.26 375.13 28.96 374.28 28.3 373.51 27.21 373.21 26.56 373.24 26.24 373.1 25.79 372.56 25.27 372.11 25.05 371.71 25.05 371.25 24.57 370.46 24.46 369.68 23.48 369.3 22.94 369.13 22.78 368.78 22.67 368.49 22.68 367.66 23.37 367.04 23.86 366.82 23.4 366.52 23.12 366.35 23.07 365.95 23.03 365.91 23.06 365.8 23.05 365.32 21.99 364.75 21.51 364.09 21.52 363.64 21.77 363.64 21.77"/><path class="cls-2" d="M65.35,375.62c-.35-.07-1,.33-1,.35s-.46-.28-.5-.16a2.74,2.74,0,0,0-.13.56,3.49,3.49,0,0,1-1.23.57s0-2.41-.06-3.63a3.2,3.2,0,0,0-.3-1.43,8.36,8.36,0,0,0-2.26-2.68c-1.22-.66-1.49,1.28-3,3.47a15.31,15.31,0,0,1-1.34,1.8c-.85.94-1.06.81-2.42,1.35-2.19.88-3.06,2.57-4.58,4.56-.37.5-1.94,1.76-2.26,2.08-1,1-2.6,1.31-3.82,1.85s-.68,1.19-.11,1.68,1.61,1.26,1.61,1.26a4.35,4.35,0,0,0-1.7,1.07,1.35,1.35,0,0,1,.76.36,6.45,6.45,0,0,0-2.31,1.11c.8-.08,1.27-.08,1.55.28-1.38.34-4.09,2.87-5,3.65a1,1,0,0,1-1,.27c-.51-.12-.76-.52-1.31-.56.06.16.39.31.3.52a4,4,0,0,0-1.63-.32c.28.16.54.22.72.5a3.18,3.18,0,0,0-1.73.23,1.94,1.94,0,0,1,.75.28c-2.81,1.7-9.59.76-13.15,1.5a46.7,46.7,0,0,0-4.85,1.27c-.61.2-1.38.42-1.71.53-1.38.45-4.49,1.56-4.79,1.73-3.74,2-3.91,6.13-4.38,7.16S2.1,409.9,1.57,411a27.27,27.27,0,0,0-1.28,5.07,59.92,59.92,0,0,0,0,11.36,35.6,35.6,0,0,0,1.34,6,.92.92,0,0,1,.31-.47,3.42,3.42,0,0,0,.45,1.81,1,1,0,0,1,.32-.62,2.15,2.15,0,0,0,.52,1.08.79.79,0,0,1,.22-.4c0,.44.49.8.43,1.09.26-.15.22-.43.22-.61.17.1,1.48,1.75,1.41,2.14a1.68,1.68,0,0,0,.1-1.33c.28.46.27.49.5.64,0-.21-.09-.65.07-.82a1,1,0,0,0,.35.46c-.1-.4.39-1.31.37-1.77.23.06.29.31.37.54.82-.61.59-3.4,1.19-4.13a.88.88,0,0,1,.2.77,7.67,7.67,0,0,0,.59-3.18c0-1.36-.36-1.5,0-2.28a.87.87,0,0,1,.24.58c.82-.71.06-2.6.3-2.89a1,1,0,0,1,.37.67,9.14,9.14,0,0,0,0-2c.14.31.33.71.38.78a1.69,1.69,0,0,1,.19-.52,2.83,2.83,0,0,0,.4,1.55,1,1,0,0,1,.17-.45,2.74,2.74,0,0,0,.28,1.06,1.6,1.6,0,0,1,.24-.35,2.32,2.32,0,0,0,.36,1.28,1,1,0,0,1,.22-.54,1,1,0,0,0,.12.49.82.82,0,0,1,.32-.46,59.83,59.83,0,0,1-1.62,7.53A21.22,21.22,0,0,0,12.39,437c.63,1.39,1.17,2.2,2.32,5.08.22.52,1.7.17,2.75.4a5.93,5.93,0,0,0,3.06-.22c.37.31.45.36.4,0a1.37,1.37,0,0,0,1,.08c.31.34.33.09.34,0,.4,0,.45,0,.47-.06.21.18.27.09.24-.07a.9.9,0,0,0-.4-.61,3.1,3.1,0,0,1-.44-.6,2.27,2.27,0,0,0,1.34,0c.1.08.43.41.33,0A3.07,3.07,0,0,0,25,441a.27.27,0,0,1,.07.08c.08.1.17.09.18-.07s-.08-.69-.31-.8c-.44-.46-.8-1.36-1.2-1.57s-1.37-.11-1.84-.4c-1.62-1-3.08-5.9-2.39-7.26a103.63,103.63,0,0,1,5.36-9,24.16,24.16,0,0,0,1.28-2.51,6.44,6.44,0,0,0,0-1.69c0-.08,0-.08,0,0a.76.76,0,0,0,.36.37.91.91,0,0,1,.18-.55,1.58,1.58,0,0,0,.41.83.35.35,0,0,1,.2-.31c.71-.38,2.67.61,3,.76a4.6,4.6,0,0,0,1.19.35,11.82,11.82,0,0,0,2.1.14.86.86,0,0,1-.38.42c.48.22,3.41-.56,4.4-.54.14,0,.65-.09.28.46.21,0,1.09-.21,1.25-.49a.9.9,0,0,1,0,.63c.4,0,.83-.48,1-.87.18.7.84,1.72.93,2.24a2.69,2.69,0,0,1-.13,1.3,1.17,1.17,0,0,0,.36,0c.11.28,1.27,5.24,1.45,7a54.23,54.23,0,0,1,.42,8.59c0,.38.37.18.67,0,.26,0,1.14,2.77,1.51,3.79.07.18.33.7,1.9,1,.42.63,1.58.39,2.53.3,0,.05.17.25.23,0a1.21,1.21,0,0,0,.92-.1l.12.05c.16.09.22.2.19-.06a.63.63,0,0,0,0-.16,2.24,2.24,0,0,0,.88,0s.28.26.24,0-.16-.64-.36-.72-.42-.69-.79-1.11-2.44-.06-3.27-1.63c-1.35-2.33-.89-6-.67-8.1a8.35,8.35,0,0,0,0-1.41,56.21,56.21,0,0,1-.34-7.71,2.77,2.77,0,0,1,.6-2.49,8.42,8.42,0,0,0-.07,1.51l.31-.15a2.71,2.71,0,0,0,.18,1.23c.14-.26.26-.54.42,0s.74,2.43,1,3.19a48.85,48.85,0,0,1,2,5.67,31.15,31.15,0,0,1,.71,6.14c0,.17.1.48.47.21.06,0,.22,1,.58,1.35-.1.38.1.38.21,1.28,0,.19.33.69,1.9,1,.42.64,1.58.39,2.52.3.05.05.18.26.24,0a3.53,3.53,0,0,0,1.65-.09.46.46,0,0,1,.16.08c.12.09.19.12.16-.12a2.36,2.36,0,0,0-.08-.35,1.86,1.86,0,0,0-.43-.46c-.36-.26-.19-1.18-1.38-1.35a4,4,0,0,1-2.09-.91c-.4-.53-2.68-12.63-2.39-18.33,0-.55,1.45-3.46,2.24-5.92a15.77,15.77,0,0,0,.83-4c.22.15.44.21.44.46.29-.26.11-.88.05-1.49.18.06.24.18.34.34a13.37,13.37,0,0,0-.45-2.67.93.93,0,0,1,.62-1.1,4.67,4.67,0,0,1,.52.63,1.8,1.8,0,0,0,.15-1,.51.51,0,0,1,.48.37c.52-.4,0-1.89.31-2.61a1.15,1.15,0,0,1,.44.6,1.79,1.79,0,0,0,0-1.12c.18.09.3.48.37.57.23-.15-.06-4.23,0-6.19a54.48,54.48,0,0,1,1.1-5.38c.1-.41.26-1,.35-1.2.17.22.41.19.65.13-.29-.18-.36-.86-.38-1a1.14,1.14,0,0,0,.68,0c-.9-1-.16-.28-.86-2.33a6.84,6.84,0,0,1,0-2.25c.37-1.63,1-2.39,2.44-3.84.78-.8,2-1.6,2.19-2.76s-.52-2.67-.87-2.66Z"/><polygon class="cls-2" points="165.73 398.77 163.49 399.08 160.68 399.01 159.44 399.29 158.93 399.7 157.66 401.43 157.36 402.29 157.29 402.37 156.72 403.59 155.81 405.3 154.28 407.69 153.31 408.8 151.83 411.45 151.32 412.04 150.69 412.3 149.57 413.66 149.33 413.67 149.33 413.75 148.22 414.3 146.99 414.66 146.03 414.77 143.43 415.3 141.13 416.29 140.57 416.47 140.14 416.81 139.82 416.82 139.51 417.07 137.75 417.48 135.95 417.7 134.59 417.82 133.19 417.87 130.53 417.79 127.75 417.6 126.58 417.47 124.41 417.22 123.92 417.23 121.98 416.77 119.33 416.54 118.57 416.72 118.4 416.56 118.08 416.57 118.08 416.65 115.7 417.57 115.55 417.74 115.51 417.74 115.42 417.66 115.42 417.42 115.61 417.17 115.69 417.17 113.52 417.12 112.14 416.76 110.55 415.96 108.79 414.94 107.93 414.48 105.72 413.22 103.33 411.21 101.57 408.86 100.43 407.13 99.91 405.9 99.83 405.9 99.09 404.19 98.82 403.28 98.74 403.28 98.66 403.2 98.74 403.12 98.28 403.94 98.68 406.42 99.12 407.53 99.56 408.76 100.45 410.46 101.43 412.04 102.31 413.17 104.47 415.51 106.94 417.53 111.75 419.79 112.53 420.08 113.18 420.46 112.94 420.51 112.7 420.52 112.71 420.68 112.31 420.93 111.9 421.95 110.8 423.91 110.22 425.9 109.94 428.52 109.97 429.32 109.83 430.25 109.76 430.41 109.52 430.62 109 430.51 109.02 431.28 108.87 431.44 108.88 431.89 108.65 432.14 108.41 432.14 108.16 431.91 108.14 431.55 108.06 431.47 107.97 432.24 107.42 432.82 106.82 432.83 106.43 433.13 106.2 433.62 106.41 435.22 106.58 435.37 106.76 436.17 107.03 439.62 107.27 440.65 107.86 441.84 108.05 442.56 108.91 443.06 110.15 443.1 110.76 443.32 111.48 443.14 111.47 442.73 111.55 442.69 111.75 442.69 111.05 441.98 110.64 441.92 110.43 441.64 110.43 441.56 110.95 441.54 111.85 442.04 112.23 442.51 113.06 442.32 113.15 442.4 113.05 441.76 112.35 441.26 111.83 441.28 111.58 441.04 111.57 440.88 112.25 440.86 112.95 441.16 113.28 441.47 113.36 441.39 112.73 440.76 111.56 440.44 110.92 440.54 110.76 440.7 110.16 440.72 109.66 440.18 109.68 438.25 109.82 437.68 110.12 436.91 110.71 436.41 111.79 436.33 113.77 435.47 114.72 435.12 115.09 435.11 117.14 434.04 118.33 433.48 118.44 433.15 119.23 432.65 120.37 431.85 121.63 431.05 122.89 430.44 123.41 430.31 123.82 430.41 125.02 430.38 125.19 430.61 125.19 430.69 124.95 430.78 124.75 430.79 124.52 431.03 123.5 430.67 122.63 430.93 121.96 431.44 121.8 431.44 124.54 431.72 127.06 432.4 127.22 432.56 130.09 433.19 133.45 434.09 135.8 434.54 137.21 434.66 137.73 434.72 141.17 435.41 142.99 435.88 144.76 435.82 144.83 435.74 145.08 435.97 146.09 436.1 146.42 436.25 147.73 435.89 148.17 435.88 148.33 435.71 148.89 435.69 149.4 435.2 149.64 435.19 149.72 435.26 149.73 435.5 150.47 434.88 150.64 435 150.57 435.32 150.89 435.31 151.71 434.68 151.96 434.83 151.88 434.88 151.89 435.12 152.48 434.82 153.13 435.08 153.11 434.48 153.03 434.48 152.76 433.56 152.92 433.4 152.97 432.71 153.2 432.23 153.06 430.3 152.97 430.14 152.97 429.9 153.24 429.65 153.55 431.73 153.56 432.29 153.34 432.7 153.34 432.74 153.29 433.63 153.31 434.23 153.63 434.46 153.57 435.07 153.98 435.45 154 436.05 154.42 436.61 154.66 436.44 154.84 435.75 155.07 435.58 155.15 435.5 155.31 435.49 155.4 435.57 155.1 436.5 154.79 436.91 154.98 437.75 155.7 437.49 155.72 437.08 155.96 437 156.2 436.99 156.29 437.07 155.91 437.8 155.32 438.22 155.09 438.59 155.26 438.99 155.26 439.07 155.5 439.06 155.85 438.65 156.26 438.72 156.34 438.72 156.68 439.47 156.73 441.11 156.95 441.51 157.43 441.61 157.85 442 158.7 442.13 160.1 442.09 160.27 442.25 161.19 442.22 161.27 442.3 161.5 442.05 161.71 442.2 161.87 442.2 161.77 441.64 161.15 441.05 161.47 440.8 162.34 441.78 162.34 441.94 162.43 442.02 162.74 441.69 162.86 441.69 162.94 441.76 162.84 441.24 162.59 440.93 162.14 440.46 162.21 440.22 162.29 440.13 163.07 440.67 163.32 440.99 163.54 440.42 162.55 439.52 161.79 439.55 161.2 439.97 160.47 439.91 160.02 439.6 159.76 438.93 159.74 438.2 160.03 437.19 159.77 436.6 159.84 436.36 160.23 436.1 160.34 435.66 160.03 434.82 160.52 433.84 160.48 432.52 160.86 431.74 161.17 431.41 161.25 430.24 161.37 428.92 161.45 428.87 161.53 428.87 161.7 429.22 161.6 431.04 161.38 431.73 160.89 432.66 162.28 431.01 162.58 430.36 162.64 429.68 162.94 428.87 163.9 427.47 164.34 426.21 164.91 425.03 165.31 423.69 164.5 422.31 163.79 421.48 163.87 421.4 163.52 420.41 162.01 418.45 160.48 417.09 159.91 416.95 159.76 417.27 159.49 417.44 158.67 417.15 157.55 416.02 157.09 415.35 156.65 414.12 156.63 413.63 156.36 412.56 156.36 412.44 156.28 412.44 156.24 412.36 156.27 412.24 156.35 412.2 156.07 411.04 156.04 410.2 156.18 409.23 156.16 408.63 156.37 407.62 156.57 406.53 156.8 406.04 156.94 405.27 157.01 405.19 156.85 404.95 156.99 404.35 157.1 404.18 157.18 404.18 157.3 405.26 156.77 407.77 156.57 408.86 156.47 410.79 157.31 414.74 157.53 415.25 158.41 416.47 159.23 416.97 159.39 416.97 159.54 416.68 159.98 416.5 160.63 416.73 161.33 417.23 163.41 419.57 164.09 420.71 164.31 421.47 165.7 423.31 166.24 422.73 166.76 420.15 166.83 419.79 166.79 418.38 166.15 414.74 165.11 410.92 165.12 408.71 165.21 407.78 165.06 406.7 164.84 404.94 165.01 404.01 165.54 402.83 165.69 402.5 165.77 402.5 165.92 402.33 166.05 402.49 165.41 404.08 165.28 404.85 165.42 406.69 165.68 407.49 165.49 408.9 165.35 409.75 165.74 411.94 166.51 414.65 166.98 414.19 166.73 413.96 166.72 413.56 167.56 413.45 167.51 413.21 167.26 413.02 167.49 412.69 168.62 412.66 171.1 412.5 172.02 412.23 172.1 412.23 172.18 412.15 171.81 412.04 171.57 412.04 171.41 412.17 171.09 412.06 170.89 412.18 170.18 412.37 169.77 412.22 169.69 412.14 169.83 411.77 170.31 411.52 171.06 411.33 171.39 411.56 173.58 411.98 174.74 411.94 175.82 411.63 177.2 410.82 178.08 409.55 178.31 409.1 178.58 408.85 178.58 408.77 178.49 408.69 179.28 408.26 179.69 408.49 179.68 407.97 179.72 407.89 179.79 407.65 179.78 407.41 178.62 406.28 176.04 404.83 173 403.76 172.75 403.37 171.57 401.92 171.14 401.09 168.84 399.15 168.18 398.85 167.58 398.79 166.93 398.61 166.57 398.66 165.73 398.77 165.73 398.77"/><path class="cls-2" d="M199.09,418.89a10.6,10.6,0,0,1,.48-3,14.47,14.47,0,0,1,2.85-4.65c.3-.27.89.24.8,1.19-.1,1.6-.32,2.71-.49,4-.24.12-.42-.06-.65.15,0,.6.47.92.46,1.59a2.09,2.09,0,0,0-1.09.21c.35.88.31,1.36,1.18,1.81,1.61.58,3.28-.44,4.24-1.64,1.73-2.41,3.19-4.71,5-7,1.79-3.09,4.93-5.71,7.73-8.09A19.47,19.47,0,0,1,231,399.29c3.28-.76,6.18.1,9.45-.35,4.88-1.11,9.46-.07,14.21-1.63,1.37-1,3-1.89,4.53-2.93.28-.19,2.08-1.56,2.41-1.78a10.67,10.67,0,0,1,4.2-1.66,12.64,12.64,0,0,1,4.88-.42c2.84.29,4.29,3,5.89,4.83.06,1.7,1.48,2.64,2.61,3.25a8.57,8.57,0,0,1,2.2,1.48.69.69,0,0,1-.14,1c-.25.23-.49.63-.93.74-.74.17-1.31,1.18-2.12,1.56-1.88,1.48-3.74-.28-5.41-.67-.77-.08-.44-1.19-.68-1.79,0-.52.74-.54.88-1.06-.39-.89-.79-1.79-1.19-2.68-.23-.57.06-1.18,0-1.71,0-.25-.23,0-.33.24a1.91,1.91,0,0,0,.19,1.82c.28.53.79,1.78.8,1.84.16.49-.8.32-.95.71a40.74,40.74,0,0,0,.88,5.11c-.11.13-.33.1-.5.14-.54.28-.24.84-.38,1.21-.3.16-1.17-.13-1,.57-.34.27-.45-.34-.91-.6-.3,0-.64.36-.89,0-.7-.51-.27-2.37-1.67-1.77.14-.63,0-1.1.44-1.63a2.06,2.06,0,0,0-1.28-.91c0-.58.29-1.23.25-1.74a6.14,6.14,0,0,0-.7-.79c-.61-.6.28-1.32.28-2,.24-.86.89-1.74.58-2.63-.69-1-.27-2.6-.11-3.58-.73.2-.66.82-1.06,1.31-1,1.51,1.3,3-.08,4.33a21.35,21.35,0,0,0-.85,3,2.46,2.46,0,0,0,.4,0c.84.2.56,1.65.75,2.38a.28.28,0,0,0,.14.24,1.25,1.25,0,0,0,.61.12c.6,0,.09.83,0,1.31-.45,1.63-2.17,2.86-2.38,4.61-.37.14-.74.26-1.06.42-.32.65-.18,1.69-.68,2.13-.18,1.94.34,3.77-.58,5.44a3.68,3.68,0,0,1-1.36-.09,9.59,9.59,0,0,0-1.19,3.41c-.35.14-.69.3-1,.46a18.61,18.61,0,0,0-1.55,5.95c.11,1.77.86,3.3,1.17,5.05a6.73,6.73,0,0,0,.61,1.62c.78.83,2.26,1,2.95,1.79.53.61.64,1.64-.43,1.82a9.21,9.21,0,0,1-2.05-.26,3.79,3.79,0,0,1-1.47-.15,1.76,1.76,0,0,0-1.9.18c-.24,1.68,1.55,2.39,2.11,3.58.2.8.39,1.59-.17,2.06a2.2,2.2,0,0,1-1.7,0,13.9,13.9,0,0,1-2.26-.84,2.2,2.2,0,0,1-1.68-1.52c-1-.54-.5-2.13-1.27-2.82a10.13,10.13,0,0,0-.55-3.34c-1.12-.37.18-2-.85-2.47-.37-.85.69-1.9-.4-2.34a1.54,1.54,0,0,1-.13-.87c.21-1.44-.4-3.08-.59-4.63a34.87,34.87,0,0,1,2-3.95c.23-1,.76-2.32.1-3.42,0,0-.08-.06-.09,0a13.93,13.93,0,0,1-1.74,5.45,9.81,9.81,0,0,1-1.89.55c-.62.29-.54-.57-1-.48a12.65,12.65,0,0,0-1.41.73c-.63.42-.82-.43-1.15-.71-.48.1-1,.52-1.56.71-.42-1.08-1.52-.07-2.17.12a7.1,7.1,0,0,1-1.18-.39c-1.17-.86-2.78-.29-4-1.17,0-.61.48-.94.5-1.53-1.77-2.4-3.76-4.65-3.82-8.07a2.2,2.2,0,0,0-.29,1.2,10.32,10.32,0,0,0,2.81,6.13c.8.69.36,1.94.14,2.63a34.87,34.87,0,0,0-1.66,4.52c-.67,2.87-2.86,5.15-1.58,8.45a13.77,13.77,0,0,0,4.71,4.59c1,.43,1.87.37,2.77,1.15a1.57,1.57,0,0,1,.42,1.49c-.21.82-.92.86-1.61.93a12.33,12.33,0,0,1-2.3-.08c-1.11-.36-2.76.64-3.51-.77-.85-2.88-4-3.49-5.81-5.47-1.13-1.58.51-3-.31-4.74-.6.9-1.57,1.65-1.78,2.68a17.33,17.33,0,0,0,1,4.36c.12,1.92,2.37,1.85,3.2,2.94.41.54.23,1.25-.69,1.62a22.43,22.43,0,0,1-2.63.42c-1,.17-1.74-.82-2.8-.68-1.32,0-1.18-1.62-1.54-2.59-.33-3-1.32-5.56-1.46-8.66,0-.6.37-1.26.43-1.88,1.4-1.47,3.23-3.7,2.38-6,0-.06-.1-.16-.2-.16-1.06,0-.88-1.36-1.27-2h-.94c-.23-.86-.32-1.84-.47-2.69a7.11,7.11,0,0,0-1.28.15c0-.85-.24-1.69-.27-2.42,0-.09,0-.05-.1,0s-1.55,2.66-2.29,4c-.49.31-.84-.41-1.36-.42-.62,1.09-1.32,2-1.93,3.11-.37-.14-.62-.47-.91-.56-.82,1-1.23,1.64-2,2.59-.47-.11-.49-.89-1.23-1.26a12.94,12.94,0,0,1-2.37,1.24c-.25,0-.56-1-.62-1.42-.57-.45-1.19.4-1.72.3a4.53,4.53,0,0,1-1.46-1.7,8.86,8.86,0,0,1-.89-3.38Z"/><path class="cls-2" d="M314.33,437.86a3.21,3.21,0,0,1,0-1c.36-1,.79-2.26.22-3.35-.21-.45.14-.82.36-1.17a2,2,0,0,0,1.1-1.82c.22-.82,2-.87,2.34-1.56.78-.18.32-1.12.9-1.45a4.62,4.62,0,0,0,2-3.7,24.16,24.16,0,0,0,1.6-2.19l-.12-.91c.21-1.2,1.64-2.06,1.16-3.44-.53-.25-6,1-5.77-1.3.16-1.81,6.1-1.57,7-1.73a21.74,21.74,0,0,0,3.62-.46,39.59,39.59,0,0,0,5.36-1.31c1.7-.4,3.31-.85,5-1.34,1-.21,8.61-2.87,10.21-4.83a5,5,0,0,0,1.89-2.48c1.67-2.63,1.58-5.8,2.7-8.58.64-1.65,1.73-3.32,3.49-3.79a10.23,10.23,0,0,1,3.23-.61c.33-.22.65,0,1,0s.59.19.84.1c1.08.2,1.39,1.68,1.6,2.31a1.65,1.65,0,0,0,1.37.42c.93.31,3.12-.65,3.64.44a1.39,1.39,0,0,1-.11.83c1.22,2.71-2.88,6.11-4.6,6.95-.3.13,0,1.36.26,1.69-.17.43.18.54.36.86.24,0,.32.32.55.31,1,.37.71,2.12.72,2.47a2.94,2.94,0,0,1,.68,2.3,3.06,3.06,0,0,1-.4,2c-.13.32-.47-.07-.51.3-.19.31-.71.21-1,.13,0,0,.17.35-.54.73a2.73,2.73,0,0,0,.06,1.27c.69,1.53,2.1,4.24,2,6.42-.14,0-.32,0-.42-.09a12.66,12.66,0,0,0,.49,3.49.82.82,0,0,1-.54,0c-.4.23-.24.8-.17,1.21-.16.4,0,.8-.11,1.22a1.5,1.5,0,0,0-1,.92c-.39.16-.13.67-.38.91-.61.47.12,1.16-.09,1.73-.75.16-.5,1.07-.61,1.64s.26.89.12,1.36c0,0-.64.17-.2,1.18-.27.3-.23.7-.37,1-.59.71,0,1.87-.82,2.5-.28.43.14.76.11,1.2-.28.19-.07.59-.35.79-.38,0-.68.34-1,.06-.46-.1-.6.35-.85.55s-.75.44-1.08.13-.64.08-1-.05a2.28,2.28,0,0,1-1,.18c-.05.18-.14,0-.23,0-.21.33-.56,0-.84.22-.28-.43-.48.06-.83-.12-.31.28-.54-.17-.92,0-.35-.3-.73.28-1.05-.06s-.49.23-.74-.08a1.57,1.57,0,0,1-2-1.6c.16-.81-.91-1.07-.63-1.9a2.11,2.11,0,0,1-.87-1.64c-1.06-.09-.27-1.2-.66-1.82-.56-.35-.48-1.1-.39-1.68a.32.32,0,0,0,.24-.25c-.49-.35-.44.48-.41.72-.11,0-.24.08-.3,0a1.62,1.62,0,0,1-1-.29c-.27.14.07.47-.21.52s-.33,0-.47-.1c-.16-.25-.53-.23-.7-.41-.2,0-.3-.31-.42-.45-.36.09-.27.5-.55.69-.14,0-.21.32-.35.06-.35.19.15.68-.29.78a1.31,1.31,0,0,1-.67-.41c-.1-.21-.3.11-.44-.09,0-.45-.52-.57-.64-1-.25-.05-.44.44-.41.51s-.2-.06-.19,0-1.54.46-1.92-.29c-.41.26-.4.81-.92,1-.23,0-.57.33-.65-.06,0,0-1.26,1.21-2,1.09-.43-.26-.78.23-1.2.15a3.58,3.58,0,0,0-.07.93,1,1,0,0,1-.55-.07c-.14.2,0,.59-.26.82-.16,0-.76.06-.87.22a2,2,0,0,1-.18,1c-.56.08-.58.73-1.23.65-.43.22,0,1-.56,1.08a.34.34,0,0,0-.15.35c.21.37-.05.88.34,1.19a.67.67,0,0,1-.34.56c.08.59-.8.44-.83.92a2.31,2.31,0,0,1-1.39.59c-.08.18-.36,0-.44.18-.29,0-.81-.22-.91.12a4.1,4.1,0,0,0-1.45,0,.8.8,0,0,1-.56.17,6.22,6.22,0,0,1-2.46.26l-.11-.09c-1.18,0-2.13.56-3.12.19-.62.58-1.5-.12-2.22.3a.49.49,0,0,1-.48.13,2.3,2.3,0,0,1-.89-.8c.2-.16.06-1.24,0-1.5s-.42-.27-.74-.33c-.13-.05,0-1.19,0-1.69a9.69,9.69,0,0,0-.8-1.13Z"/></g></g></svg>