<?xml version="1.0" encoding="UTF-8"?>
<svg width="59px" height="59px" viewBox="0 0 59 59" version="1.1" xmlns="http://www.w3.org/2000/svg" xmlns:xlink="http://www.w3.org/1999/xlink">
    <!-- Generator: sketchtool 52.6 (67491) - http://www.bohemiancoding.com/sketch -->
    <title>955ADA2C-CB26-4AA6-8712-24EFA4F7AAF9</title>
    <desc>Created with sketchtool.</desc>
    <g id="Symbols" stroke="none" stroke-width="1" fill="none" fill-rule="evenodd">
        <g id="Caritas" transform="translate(-470.000000, 0.000000)" fill="#000000">
            <g id="sad" transform="translate(470.000000, 0.000000)">
                <path d="M29.5,0 C13.2339565,0 0,13.2339565 0,29.5 C0,45.7660435 13.2339565,59 29.5,59 C45.7673261,59 59,45.7660435 59,29.5 C59,13.2339565 45.7673261,0 29.5,0 Z M29.5,56.4347826 C14.6473913,56.4347826 2.56521739,44.3526087 2.56521739,29.5 C2.56521739,14.6473913 14.6473913,2.56521739 29.5,2.56521739 C44.3513261,2.56521739 56.4347826,14.6473913 56.4347826,29.5 C56.4347826,44.3526087 44.3513261,56.4347826 29.5,56.4347826 Z" id="Shape" fill-rule="nonzero"></path>
                <path d="M23.0869565,24.3695652 C23.0869565,22.2481304 21.3605652,20.5217391 19.2391304,20.5217391 C17.1176957,20.5217391 15.3913043,22.2481304 15.3913043,24.3695652 C15.3913043,26.491 17.1176957,28.2173913 19.2391304,28.2173913 C21.3605652,28.2173913 23.0869565,26.491 23.0869565,24.3695652 Z M17.9565217,24.3695652 C17.9565217,23.6628478 18.532413,23.0869565 19.2391304,23.0869565 C19.9458478,23.0869565 20.5217391,23.6628478 20.5217391,24.3695652 C20.5217391,25.0762826 19.9458478,25.6521739 19.2391304,25.6521739 C18.532413,25.6521739 17.9565217,25.0762826 17.9565217,24.3695652 Z" id="Shape" fill-rule="nonzero"></path>
                <path d="M39.7608696,20.5217391 C37.6394348,20.5217391 35.9130435,22.2481304 35.9130435,24.3695652 C35.9130435,26.491 37.6394348,28.2173913 39.7608696,28.2173913 C41.8823043,28.2173913 43.6086957,26.491 43.6086957,24.3695652 C43.6086957,22.2481304 41.8823043,20.5217391 39.7608696,20.5217391 Z M39.7608696,25.6521739 C39.0528696,25.6521739 38.4782609,25.0762826 38.4782609,24.3695652 C38.4782609,23.6628478 39.0528696,23.0869565 39.7608696,23.0869565 C40.4688696,23.0869565 41.0434783,23.6628478 41.0434783,24.3695652 C41.0434783,25.0762826 40.4688696,25.6521739 39.7608696,25.6521739 Z" id="Shape" fill-rule="nonzero"></path>
                <path d="M29.5,35.9130435 C24.7184348,35.9130435 20.1626087,37.9382826 17.0009783,41.470587 C16.5289783,41.9990217 16.5738696,42.8096304 17.1010217,43.2816304 C17.6294565,43.754913 18.4400652,43.7087391 18.9120652,43.181587 C21.587587,40.1918261 25.4469565,38.4782609 29.5,38.4782609 C33.5530435,38.4782609 37.412413,40.1918261 40.0879348,43.181587 C40.3406087,43.4650435 40.6920435,43.6086957 41.0434783,43.6086957 C41.3474565,43.6086957 41.6552826,43.5009565 41.8989783,43.2816304 C42.4261304,42.8096304 42.4710217,41.9990217 41.9990217,41.470587 C38.8373913,37.9395652 34.2828478,35.9130435 29.5,35.9130435 Z" id="Path"></path>
            </g>
        </g>
    </g>
</svg>