<svg xmlns="http://www.w3.org/2000/svg" width="122" height="122" viewBox="0 0 122 122">
    <g fill="none" fill-rule="evenodd">
        <circle cx="61" cy="61" r="61" fill="#F0D7C5"/>
        <g transform="translate(10 10)">
            <path fill="#005C5D" fill-rule="nonzero" d="M.344 46.8a1.825 1.825 0 0 0-.154.142C0 47.12 0 46.693 0 46.575v-.651c.062-.167.09-.344.083-.521 0-.166 0-.154.083-.26.083-.107 0-.19 0-.285 0-.094.083-.402.119-.65.035-.25.403 0 .438.2.036.202.463.142.582.142.118 0 .403.083.652.119.2.04.402.065.605.07a.725.725 0 0 1 .462.072.404.404 0 0 0 .261 0c.095 0 .166.071.285.095.119.023.13 0 .225 0s.19.07.297.083c.107.011.462.165.628.118.157-.034.319-.034.475 0 .249 0 .415 0 .664.07.225.031.447.079.664.143.216.04.434.067.653.083.108.026.215.058.32.095h.201c.221.017.444.017.665 0 .166 0 .391 0 .545-.071.154-.071.261-.214.38-.308a.757.757 0 0 0 .273-.462c.113-.211.193-.439.237-.675 0-.177-.071-.39 0-.544a.532.532 0 0 0-.13-.486c-.096-.106-.096-.26-.238-.343l-.557-.284a2.576 2.576 0 0 0-.415-.178H8.23a2.102 2.102 0 0 1-.296-.095 1.485 1.485 0 0 0-.546-.059 7.734 7.734 0 0 0-1.376-.213 2.72 2.72 0 0 1-.652-.118 1.461 1.461 0 0 0-.32 0c-.154 0-.166-.119-.332-.071a3.279 3.279 0 0 1-.76-.119l-.604-.035c-.238 0-.415-.095-.653-.13-.237-.036-.19-.095-.308 0-.119.094-.119 0-.261 0l-.735-.143h-.19a1.825 1.825 0 0 0-.154.143c-.332.236-.154-.628-.143-.71.047-.596.142-1.185.285-1.765 0-.154-.119-.355.083-.39.202-.036.273.13.32.224.048.095 0 .107.107.178s.225 0 .332 0c.107 0 .38.13.581.154.206.001.41.033.605.095.143.094.38 0 .534 0 .415.07.806.13 1.186.165.154 0 .154.119.308.142.155.024.19-.07.332 0 .143.071.309 0 .475.071.166.072.296 0 .439 0 .207.065.424.09.64.072.224.044.446.099.664.165h.558c.201 0 .356.095.533.119l.344.083h.226c.417.096.817.256 1.186.473.142.095.403.13.486.225.11.13.234.25.368.355.14.18.26.374.356.58l.13.332v.237a.438.438 0 0 1 .107.225v.284c.093.19.123.407.083.615.002.266-.022.532-.071.794v.32c0 .106-.119.189-.071.354.047.166 0 .166-.095.308a1.5 1.5 0 0 1 0 .332.473.473 0 0 1-.107.248c-.083.083 0 .202-.071.308a4.592 4.592 0 0 1-.629 1.054c-.107.166-.26.142-.356.331-.095.19-.095 0-.178.083-.094.062-.185.13-.272.201a2.826 2.826 0 0 1-.605.214h-.332l-.214.07c-.213 0-.391-.07-.581 0-.201.06-.416.06-.617 0a2.887 2.887 0 0 0-.759-.118c-.237 0-.427-.13-.617-.166-.19-.035-.344 0-.533 0a3.077 3.077 0 0 0-.332 0c-.083 0-.119-.082-.202-.106-.083-.024-.51 0-.747-.06a3.207 3.207 0 0 0-.64-.165h-.641a2.673 2.673 0 0 0-.617-.095h-.439c-.083 0-.118-.083-.201-.106-.083-.024-.44 0-.676 0h-.297a.618.618 0 0 0-.249-.083 1.627 1.627 0 0 1-.32-.071H.463c-.095 0-.048-.13-.119-.083zm.759 1.03c-.13.095-.26.249-.391.07-.13-.177 0-.33 0-.484 0-.154.569-.154.818-.119.25.036.557.213.901.154.344-.06.25.13.44.095.189-.036.272.106.426.059.608.064 1.21.171 1.803.32h.51c.137.024.278.024.415 0 .154 0 .273.13.427.094.154-.035.25.119.415.083.444-.006.886.066 1.305.213h.225c.11-.011.222-.011.332 0 .184.036.374.036.558 0l.747-.083c.202 0 .38-.189.593-.225a.89.89 0 0 0 .237-.094c.071 0 .083-.142.154-.202a5.49 5.49 0 0 1 .475-.355c.178-.083.237-.355.367-.497.13-.142.155-.414.297-.592.142-.177.083-.414.202-.58.1-.169.172-.353.213-.545a3.084 3.084 0 0 1 0-.461c0-.083.119-.154.071-.273a2.222 2.222 0 0 1 0-.615c0-.083.095-.19 0-.284a.78.78 0 0 1 0-.273c.018-.2.018-.403 0-.603.22.356.357.756.404 1.172v.378c.023.177.023.356 0 .533.009.207-.028.413-.107.604-.095.142 0 .379 0 .533a5.38 5.38 0 0 1-.309.84v.237l-.142.32c-.083.142-.166.213-.249.355-.199.279-.434.53-.7.746-.095.07-.237.142-.344.237-.106.094-.166 0-.332.106-.166.107-.201 0-.273.083a.225.225 0 0 1-.13.071H9.797a.903.903 0 0 1-.309 0c-.166-.095-.38 0-.557 0-.178 0-.712-.142-1.08-.201-.735-.107-1.47-.107-2.17-.249a7.128 7.128 0 0 0-1.186-.19c-.202 0-.391-.082-.57-.106-.177-.023-.379 0-.545-.059a3.279 3.279 0 0 0-1.103-.19c-.201 0-.367-.082-.57-.106-.2-.024-.284 0-.438 0-.154 0-.083.024-.166.083zm8.22-4.617c-.238 0-.463-.071-.7-.107-.238-.035-.202-.142-.38-.083-.178.06-.344-.094-.498-.118-.154-.024-.142.07-.225 0a1.188 1.188 0 0 0-.202 0c-.415-.071-.795-.19-1.186-.225-.392-.036-.475 0-.64-.06a1.188 1.188 0 0 0-.475-.106c-.795-.154-1.59-.201-2.372-.343-.166 0-.439-.178-.617 0l-.225.201c-.309.225-.25-.545-.237-.616 0-.248.58 0 .759 0l.83.107c.152.021.3.065.439.13.142.095.166 0 .308 0s.13.083.214.107c.083.023.166-.071.249-.06l.344.083c.139.047.282.083.427.107h.403c.162.023.32.063.474.118.17.013.34.013.51 0 .398.03.794.082 1.186.154.192.065.391.105.593.119a1.8 1.8 0 0 1 .498.118c.215.107.395.271.522.474zM5.468 27.94c-.261 0-.273-.154-.143-.32a8.45 8.45 0 0 0 .605-1.053c0-.06.13-.083.178-.154.048-.071 0-.154 0-.225 0-.071.19-.095.19-.225a.248.248 0 0 1 .071-.213c.261-.225.297-.722.57-.959.272-.237.106-.272.237-.367.13-.095.19-.308.344-.414.158-.118.284-.272.367-.45.095-.154.166-.13.297-.237.13-.107.249-.284.439-.272.19.012.225-.071.38-.107.153-.035.307 0 .45 0a.665.665 0 0 1 .45 0c.392.154.783.178 1.187.355.213.095.367.19.58.308.214.119.262.26.463.296.203.093.388.221.546.379.164.095.334.178.51.249.154.094.201.307.415.343.213.035.26.154.403.272.138.133.261.28.368.438.118.154.19.296.296.462.226.31.347.683.344 1.065 0 .261.309.154.498.19.153.035.31.035.463 0 .356-.095.64.166 1.008.106.368-.059.902.119 1.329.072.118 0 .58-.143.403.153-.178.296-.202.249-.273.38-.071.13-.071.366-.249.497-.178.13-.095.295-.237.39-.143.095-.119.26-.214.415-.095.153-.213.225-.273.367-.059.142-.083.367-.26.438-.178.07-.155-.202-.214-.332-.06-.13 0-.237-.213-.177a.88.88 0 0 1-.427 0h-1.364c-.107 0-.107-.119-.202-.095h-.225c-.13 0-.392-.119-.487 0-.068.13-.143.257-.225.379-.202.213.463.39.557.45.165.084.317.192.451.32.095.13.297 0 .392.189.094.19.284.13.38.272a.474.474 0 0 0 .331.213c.214.071.712-.343.486.166 0 .142-.07.331-.177.402-.107.071-.107.26-.25.367a2.545 2.545 0 0 0-.486.782c-.06.142-.166.236-.225.379a2.45 2.45 0 0 1-.225.378c-.084 0-.167-.177-.214-.236-.047-.06 0-.285-.202-.344-.201-.059-.403-.19-.604-.331a7.01 7.01 0 0 0-.617-.415c-.214-.13-.427-.2-.593-.296-.166-.094-.451-.414-.617-.426a1.187 1.187 0 0 1-.605-.32c-.095-.141-.166-.106-.296-.177-.13-.071-.155-.19-.32-.213a1.187 1.187 0 0 1-.57-.332c-.095-.142-.237-.07-.356-.165a2.61 2.61 0 0 0-.296-.202l-.581-.343a7.794 7.794 0 0 1-1.186-.746c-.214-.154-.475-.154-.64-.331a3.738 3.738 0 0 0-.606-.332c-.095-.059-.142-.237-.26-.237-.12 0-.202 0-.25-.07-.047-.072-.403-.356-.486-.332l-.32-.024zm9.76 6.772a1.182 1.182 0 0 1 0-.308c0-.13-.153-.118-.284-.213a1.982 1.982 0 0 0-.581-.32c-.166 0-.142-.141-.273-.212-.13-.072-.213-.083-.344-.154a4.01 4.01 0 0 0-.557-.356c-.107 0-.309 0-.368-.165a.996.996 0 0 0-.284-.249c-.131-.071-.214 0-.32-.154-.107-.154-.19-.07-.285-.118-.095-.048-.13-.178-.297-.202a1.507 1.507 0 0 1-.26-.153c-.25-.142-.452-.142-.7-.308-.25-.166-.534-.237-.641-.403a1.068 1.068 0 0 0-.546-.367 1.068 1.068 0 0 1-.593-.331c-.118-.095-.19-.06-.332-.142l-.249-.178a4.175 4.175 0 0 0-.593-.426c-.201-.119-.403-.13-.605-.272a1.186 1.186 0 0 0-.569-.367s-.486-.214-.463-.26c.024-.048-.557.165-.557 0 0-.167.095-.25.178-.344.083-.095.083-.19.142-.284.175.077.345.164.51.26.095.06.154.13.25.178.094.04.185.087.272.142.265.257.58.459.925.592.202 0 .237.213.439.26.153.01.294.084.391.201.214.202.57.214.736.486.166.272.344.154.474.237.13.082.237.154.368.236.13.083.26.13.391.202l.368.248c.13.071.356.13.45.26a.51.51 0 0 0 .44.238c.367 0 .486.39.782.461.297.071.226.213.415.249.19.035.178.201.356.201s.202.178.356.237c.154.06.225.166.38.225.154.059.355.083.38.177.023.095-.06.095 0 .178.058.083.082.13.118.225.035.095.367.118.498.19a.38.38 0 0 0 .462-.107c.095-.178.119-.343.261-.462a.461.461 0 0 0 .202-.39.627.627 0 0 1 .249-.368c.13 0 .095-.248.19-.367.095-.118.415-.165.427 0 .012.166-.166.285-.202.391-.127.266-.278.52-.45.758-.155.284-.297.533-.463.817-.06.094-.403.734-.51.343l-.083-.012zm-3.047-6.203c.118-.072.142-.25.178-.356.035-.106.272-.58.201-.805l-.13-.426c0-.142-.178-.19-.261-.343-.083-.154-.51-.273-.7-.462l-.403-.343c-.095 0-.202 0-.332-.083s-.237-.119-.368-.213c-.13-.095-.237 0-.368-.095-.438-.178-.865.331-1.103.604-.237.272-.557.71-.403.805.154.095.332.166.51.272.17.082.332.177.486.284.119.095.332.308.499.32.215.046.417.14.593.272.067.065.143.12.225.166.107 0 .118.142.213.201.095.06.166 0 .238 0 .07 0 .106.166.213.202.107.035.32.236.498.272.178.035.083-.178.214-.272zm-2.467-1.836c-.154.083-.202.202-.332 0-.13-.2-.202-.059-.32-.153.142-.25.45-.758.747-.71.296.047.284 0 .474.07.19.071.095.142.261.154a.154.154 0 0 1 .166.107c.25.272.723.213.937.544.213.332.273.19.356.344.039.123.067.25.083.378a4.332 4.332 0 0 0-1.839-.911h-.26l-.273.177zm7.745 3.836h-.06a.9.9 0 0 0 .522-.592 5.66 5.66 0 0 1 .427-.58v-.213c0-.06.119-.106.154-.166.036-.059 0-.189.143-.32.142-.13.272 0 .38 0 .106 0 0 .214 0 .285 0 .07-.238.225-.262.39-.023.166-.142.25-.201.344a3.16 3.16 0 0 1-.427.64c-.214.177-.19.544-.392.757-.201.213-.391.083-.427-.249-.035-.331-.213 0-.296 0-.083 0-.237-.13-.403-.154-.167-.023-.51.107-.688-.082-.178-.19-.285-.119-.416-.214-.13-.094-.249-.094-.343-.225-.095-.13-.19-.118-.32-.189a.808.808 0 0 1-.155 0c-.107 0-.118-.06 0-.118.119-.06.308.13.415.118a.962.962 0 0 0 .368 0c.142 0 .225.083.368 0 .118-.012.237-.012.355 0h.404c.118 0 0 .095 0 .19.148.258.44.399.735.355l.119.023zM23.306 22.826c0-.13-.154-.237-.261-.355-.107-.119-.38-.427-.593-.687l-.154-.154c0-.071 0-.142-.083-.213-.083-.071-.226-.178-.32-.308-.095-.13-.309-.45-.463-.675-.154-.225-.392-.414-.581-.686a5.092 5.092 0 0 0-.498-.663 4.406 4.406 0 0 0-.57-.675c-.095-.119-.142-.249-.249-.367a2.122 2.122 0 0 1-.284-.249c-.095-.118-.13-.26-.226-.379-.095-.118-.249-.165-.344-.296-.095-.13-.32-.473-.522-.722-.059-.07-.059-.154-.106-.201-.048-.047-.13-.071-.19-.13-.06-.06-.142-.285-.237-.403-.095-.118-.214-.201-.309-.32a1.54 1.54 0 0 0-.213-.272c-.119-.106-.13-.272-.273-.343-.142-.071-.213 0-.356-.142-.142-.142-.356 0-.118-.237.237-.237.106-.26.284-.32.178-.059.13.095.297.19.122.086.226.194.308.32.142.224.344.426.498.639.154.213.154.355.297.438.142.083.154.213.308.32.154.106.273.591.51.71.237.118.368.497.629.71.26.213.106.272.26.355.12.09.214.208.273.344 0 .165.214.307.309.426l.284.331c.214.26.344.498.522.71.232.226.442.471.629.735.083.13.213.225.296.355.083.13.226.19.273.355.048.166.392.497.558.734.166.237 0 .272.07.414.072.142 0 .296.238.367.237.071.285.202.534.142.249-.059.284-.248.415-.331.13-.083.213-.19.344-.272.13-.083.332-.119.356-.225a.664.664 0 0 1 .391-.32c.142-.07.19-.19.308-.284.257-.15.489-.337.688-.556 0-.119.107-.083.214-.083s0-.119.107-.166c.106-.047.308-.225.462-.343.189-.125.371-.26.546-.403a3.41 3.41 0 0 0 .391-.509c-.05.167-.121.326-.213.474l-.13.331c-.143.201-.452.308-.546.52-.095.214-.13.155-.25.25a4.23 4.23 0 0 0-.332.32l-.213.082-.178.201-.344.273c-.119.094-.237.13-.356.225-.118.094-.166.213-.284.307l-.344.249-.202.095a1.184 1.184 0 0 0-.119.165c-.142.107-.237.095-.32.237-.083.142-.249.213-.356.26-.106.048-.545.439-.557.107.047-.118.13-.32.095-.402zm.06-1.338c-.06-.178-.297-.272-.404-.438a4.548 4.548 0 0 0-.7-.876 1.077 1.077 0 0 1-.154-.237c-.06-.107-.166-.13-.237-.213-.071-.083 0-.201-.13-.284a.545.545 0 0 1-.167-.201c0-.166-.178-.119-.249-.202-.071-.083-.083-.19-.154-.272a1.362 1.362 0 0 1-.297-.403c0-.165-.249-.284-.344-.402-.094-.119-.213-.201-.308-.32-.095-.118 0-.154-.095-.225-.095-.07-.118-.083-.178-.142-.059-.059-.142-.26-.237-.379-.095-.118-.178-.331-.344-.39a.58.58 0 0 1-.296-.332c0-.26-.38-.52-.522-.734-.143-.213-.45-.426-.605-.722-.154-.296-.45-.426-.57-.71a.888.888 0 0 0-.142-.249c0-.071-.166-.071-.213-.13-.048-.06-.13-.237-.285-.26-.154-.024-.368.07-.32-.19.047-.26.38-.19.439-.355.166-.355.818-.426 1.008-.793.104-.163.247-.297.415-.391l.57-.415c.339-.3.7-.578 1.079-.828a3.277 3.277 0 0 1 1.09-.391c.229-.062.464-.09.7-.083.214 0 .297.13.463.19.419.18.798.442 1.115.77.119.106.178.082.26.224.058.102.125.197.203.284 0 .071.166.119.177.225a.331.331 0 0 0 .107.213c.178.178.154.367.226.557.07.19.106.106.154.19v.236c.257.026.507.102.735.225.141.074.288.138.439.19.13 0 .118.118.213.189.14.058.271.133.392.225.083.07 0 .189.166.236.166.048.415.45.593.675.178.225.19.273.332.355.142.083.119.237.26.32.143.083 0 .284.179.367.077.065.125.16.13.26 0 .13.154.297.19.462.074.132.123.277.142.426v.45a.71.71 0 0 1 0 .438c0 .26 0 .675-.308.888-.238.17-.433.393-.57.651-.094.296-.474.32-.675.592-.202.273-.261.178-.356.332-.095.154-.166.083-.25.142a3.78 3.78 0 0 1-.39.367c-.124.08-.243.167-.356.26l-.76.592c-.13.119-.344.166-.438.332a.427.427 0 0 1-.285.284c-.19.071-.356.249-.32-.06a1.915 1.915 0 0 0-.119-.52zm-1.4-8.465c-.119-.107-.119-.32-.25-.45a.451.451 0 0 0-.39-.142c-.214 0-.19 0-.369.107a1.009 1.009 0 0 0-.427.2c-.13.085-.243.193-.332.32l-.367.285c0 .13.154.154.201.32.048.165.178.189.25.283.146.174.277.36.39.557.084.106.155.095.238 0 .083-.095.202-.071.308-.19a1.86 1.86 0 0 1 .25-.284c.07-.059.154 0 .225-.07.071-.072.581-.616.273-.936zm-.783.604c-.095 0-.261.118-.392.142-.13.024-.142-.142-.284-.225-.143-.083.284-.426.403-.521.119-.095.64-.201.629.166 0 .19-.19.461-.344.45l-.012-.012zm1.862 2.048c-.107.118-.142.249-.261.343-.119.095-.166 0-.225.071-.06.071 0 .154-.119.213-.119.06-.166 0-.237.095-.071.095.178.142.225.213.031.068.08.125.142.166.107.107.261.225.273.343.065.15.167.28.297.38.118.106.166.236.273.342.106.107.26.25.367.391.107.142.095.26.19.379.095.118.083.213.225.13.085-.042.164-.094.238-.154a.521.521 0 0 0 .166-.213c0-.106.154-.13.237-.19.083-.058.225-.177.332-.295.107-.119.06-.166.107-.225.047-.06.166-.13.166-.249a.402.402 0 0 1 0-.225c.213-.331-.083-.911-.285-1.184a1.495 1.495 0 0 0-1.008-.663c-.214 0-.344.13-.558.107-.213-.024-.332.154-.533.284l-.012-.06zm1.186.947h-.498c-.06 0-.45.213-.593.142-.143-.07-.285-.284-.095-.438.19-.154.154 0 .237-.166a.261.261 0 0 1 .214-.106c.272-.083.415-.225.723-.154.186.03.354.127.474.272.202.367.51.568.333 1.018a2.135 2.135 0 0 0-.534-.39c-.154-.071-.237-.225-.427-.213l.166.035zM35.048 13.923a1.796 1.796 0 0 0-.083-.805c-.083-.225.059-.498.059-.746 0-.249-.083-.213-.095-.32a3.203 3.203 0 0 0 0-.343c0-.119.083-.178.06-.332v-.982c0-.119-.096-.178-.084-.344a.485.485 0 0 1 0-.248c.095-.202 0-.533 0-.734v-.651-.794a5.66 5.66 0 0 0 0-.77c0-.248-.106-.496 0-.721.107-.225 0-.462 0-.71 0-.25-.059-.273 0-.403a.307.307 0 0 0 0-.249V3.99c0-.26-.32-.154-.308-.344.012-.189.273-.165.415-.213l.083.438v.9c0 .095.083.19 0 .284a.343.343 0 0 0 0 .32c.035.096.035.2 0 .296-.006.11-.006.221 0 .331.007.11.007.222 0 .332v.687a1.347 1.347 0 0 0 0 .438.71.71 0 0 0 0 .355c.073.231.073.479 0 .71-.023.133-.023.27 0 .403.01.118.01.237 0 .355.03.457.034.916.012 1.373 0 .19-.107.344 0 .533.107.19 0 .331.071.497.071.166-.06.344-.071.533-.012.19.071.343.06.533.065.308.065.627 0 .935a1.609 1.609 0 0 1-.12.237zm-.214 1.243l.06-.178c.083-.13.19-.059.154-.248v-.273a.569.569 0 0 0 .782.249c.226-.083.451-.107.677-.178.236-.046.47-.106.7-.177.106 0 .2-.107.32 0 .118.106.249.154.094.272-.154.118-.237.201-.355.166a.653.653 0 0 0-.368 0l-.332.118c-.154 0-.178.142-.332.166-.154.024-.25 0-.356 0a3.135 3.135 0 0 1-.356.118c-.154 0-.51.225-.617.166l-.07-.201zm.664-1.184c.095-.237.226-.32.119-.628-.154-.532.13-1.03 0-1.527a.685.685 0 0 1 0-.438c0-.166-.06-.284 0-.402.06-.119-.107-.45 0-.687.01-.114.01-.23 0-.343 0-.119-.095-.178-.06-.308a.284.284 0 0 0 0-.272 1.182 1.182 0 0 1 0-.296l-.059-2.64a1.82 1.82 0 0 1 0-.758c0-.19-.07-.367 0-.569.072-.2 0-.414 0-.663a4.479 4.479 0 0 1 0-.58c.06-.13 0-.296 0-.402v-.332c0-.165.107-.355-.154-.367-.26-.011-.249-.248 0-.32l.664-.189a4.56 4.56 0 0 1 .427-.165c.083 0 .214 0 .285-.06.189-.081.389-.133.593-.154l.676-.2c.225 0 .154.07.142.26v.236c.045.097.101.188.166.273.138.161.246.346.32.544.053.195.146.377.273.533l.356.568c.119.166.261.26.309.498.059.162.156.309.284.426l.688 1.184c.285.402.439.852.712 1.255.039.082.1.152.178.2.106 0 0 .167.142.261.142.095.154.13.166.249a.461.461 0 0 0 .095.237c0 .106.178.154.225.237.048.082 0 .153.072.236.07.083.106.071.154.154.047.083.106.201.142.308.072.209.19.399.344.556.145.17.276.353.391.545.202.379.38.9.783 1.184.083 0 .332.272.19.331-.142.06-.285.06-.403.19-.119.13-.38 0-.522.083-.143.083-.107.118-.19.142-.083.024-.142 0-.225 0-.083 0-.107.106-.202.13-.095.024-.142 0-.225 0l-.392.13c-.154 0-.38.202-.486.166a.225.225 0 0 1-.083-.32c.119-.118.178-.213.071-.355s-.095-.177-.166-.32c-.071-.142-.118-.106-.154-.165a4.271 4.271 0 0 0-.368-.687c-.13-.154-.237-.343-.344-.497-.106-.154-.106 0-.19.07-.082.072-.142 0-.225 0-.083 0-.26.06-.415.096-.154.035-.581.331-.89.307-.308-.023-.249.166-.415.143-.166-.024-.391-.06-.403.118-.012.178.178.32.083.509-.095.19 0 .296 0 .462a2.068 2.068 0 0 0 0 .473c.036.152.036.31 0 .462 0 .19.143.237.309.272.166.036.26.249.083.273-.178.023-.546.248-.819.331-.273.083-.605.13-.925.225-.32.095-.57.142-.842.225-.273.083-.332-.296-.285-.426v-.012zm2.645-5.28c.166 0 .178-.19.344-.166.166.024.842-.107.593-.249-.249-.142-.13-.296-.237-.426-.107-.13-.119-.26-.273-.379a.533.533 0 0 1-.225-.379c0-.153-.166-.248-.273-.378a1.788 1.788 0 0 0-.296-.438s-.06-.38-.13-.237c-.072.142.058.296.07.39v1.907c0 .118-.142.343 0 .461.143.119.237-.118.427-.094v-.012zm.166-.71c.083.07.154.07 0 .2s-.26-.414-.154-.437c.107-.024.071.2.154.248v-.012zm3.333 5.031c.166 0 .237-.142.415-.166.178-.023.25-.094.403-.118a.915.915 0 0 0 .427-.107c.155-.07.25-.154.404 0 .154.154.154.225 0 .355-.154.13-.297 0-.427.107s-.297 0-.427.107c-.13.106-.57.165-.89.26-.32.095-.225.178-.415.142-.19-.035-.296.154-.403.095-.107-.06 0-.249 0-.32 0-.248.237-.118 0-.367-.237-.248-.166-.426-.32-.544a.923.923 0 0 1-.297-.462c0-.178-.273-.332-.356-.51-.083-.177-.07-.094-.237 0-.166.095-.546.095-.818.178-.273.083-.285.284-.415.154-.13-.13 0-.32 0-.414 0-.095.308 0 .45-.107.143-.106.166-.154.356-.142a.594.594 0 0 0 .439-.13c.166-.071.32 0 .439-.154.118-.154.415.497.45.604.036.106.499.675.392.71-.107.036-.13.426-.095.533.08.133.19.246.32.332.19.082.475-.036.605-.036zM50.692 11.733c.225.118.367.307.7.32.331.011.51 0 .77 0 .261 0 .273.07.427.094a.582.582 0 0 1 .332.07.201.201 0 0 1 0 .309c-.13.106-.201 0-.355 0h-.795c-.261 0-.546-.107-.807-.13l-.782-.06c-.356 0 .154-.45.225-.509.071-.059 0 0 0-.094a.603.603 0 0 1 0-.143c0-.106-.071-.2 0-.307.082-.207.119-.43.107-.652a2.14 2.14 0 0 1 0-.674c0-.119 0-.237.059-.356.06-.118-.119-.165 0-.307.068-.219.104-.446.107-.675v-.663c0-.249.201-.438.107-.651-.095-.213.166-.486.094-.675A.946.946 0 0 1 51 5.92c.083-.154 0-.225 0-.38 0-.153.13-.141.083-.295a2.647 2.647 0 0 1 0-.663 1.182 1.182 0 0 1 0-.651c.078-.216.11-.446.095-.675 0-.237.071-.415.071-.651 0-.237 0-.225.06-.367.059-.142-.12-.19 0-.296a.827.827 0 0 0 0-.569c-.084-.094-.107-.236-.19-.355-.083-.118.094-.166.178-.225.083-.059.225.071.379 0 .154-.07.142.166.13.26-.011.095-.083.297-.094.45.011.119.011.238 0 .356-.083.142 0 .237 0 .39v.344c-.07.258-.098.526-.083.793.059.154-.107.225 0 .39a.603.603 0 0 1 0 .356c0 .154-.083.296-.095.45-.012.154 0 .201 0 .343v.379c0 .106-.06.213-.083.367-.024.154 0 .296 0 .438 0 .142-.107.19 0 .355.106.166-.071.237-.06.39.009.115.009.23 0 .344l-.166 1.551c0 .521-.13 1.006-.178 1.527v.438a.616.616 0 0 1-.296.26c-.261.167-.083.545.083.711a.119.119 0 0 0-.142.048zm.7-1.753c0-.177.118-.32.07-.485a.934.934 0 0 1 .072-.45c.083-.166 0-.355 0-.533 0-.177.07-.13.083-.213.012-.083 0-.13 0-.225 0-.094.154-.142.106-.296a.26.26 0 0 1 0-.225c0-.154 0-.284.072-.438a1.75 1.75 0 0 1 0-.497c.048-.142.08-.289.095-.438a3.014 3.014 0 0 1 0-.462c0-.154 0-.284.094-.426.095-.142 0-.201 0-.32 0-.118 0-.118.06-.213.059-.094 0-.284 0-.438l.095-.888v-.532c0-.178.07-.273.094-.427.024-.154 0-.284 0-.438a3.002 3.002 0 0 1 0-.461c.095-.32 0-.616.143-.936 0-.083-.439-.509-.226-.603.214-.095.653.07.937.106.285.036.273 0 .427 0l.427.071c.206-.008.412 0 .617.024.166 0 .261 0 .309.213.078.405.197.802.355 1.184.017.252.073.5.166.734.143.166.095.402.226.604.073.205.132.414.178.627 0 .201.142.332.19.51.047.177 0 .224.118.342.119.119 0 .178.083.273.035.184.082.366.142.544.04.104.072.211.095.32a.414.414 0 0 0 .119.19v.224c0 .071.071.154.083.225.026-.27.07-.54.13-.805v-.331a3.463 3.463 0 0 0 0-.344c0-.248.119-.461 0-.71-.118-.248.095-.248 0-.414-.009-.114-.009-.23 0-.344 0-.26.143-.52.143-.781v-.793c0-.26.166-.51 0-.722-.166-.213-.06-.154.035-.344.095-.19.89-.059 1.068 0 .17.008.341.028.51.06.19.082.332-.06.498 0 .166.059.794 0 .89.2.094.202-.25.285-.368.344-.119.06 0 .379 0 .521a4.007 4.007 0 0 0-.095.52c.029.15.029.302 0 .45 0 .143-.13.309-.071.427a.863.863 0 0 1-.06.39c-.118.273 0 .628-.142.936a.414.414 0 0 0 0 .438c0 .118-.083.32-.095.438.01.102.01.206 0 .308 0 .083-.083.142-.095.213v.9c.006.075.006.15 0 .225 0 .083-.083.118-.083.201 0 .083.095.166 0 .32a.497.497 0 0 0-.071.213 2.635 2.635 0 0 0 0 .438 5.65 5.65 0 0 1-.095.888c-.053.312-.077.63-.071.947a.91.91 0 0 0 0 .438c0 .154-.095.296-.119.45-.023.154 0 .331 0 .533 0 .2 0 .177.119.343.089.09.125.22.095.343-.083.166-.439 0-.593 0-.154 0-.51.083-.747 0a3.1 3.1 0 0 0-.653-.094 2.127 2.127 0 0 0-.664 0s-.344 0-.26-.178c.082-.178.308-.213.296-.272-.012-.06-.107-.26-.166-.415l-.214-.509c0-.07-.071-.118-.083-.19-.012-.07 0-.153 0-.212 0-.06-.213-.332-.19-.486a1.253 1.253 0 0 0-.118-.438c0-.095-.19-.284-.178-.39.012-.107-.083-.25-.13-.415a1.68 1.68 0 0 0-.155-.45c-.095-.13 0-.272-.107-.438a7.426 7.426 0 0 1-.284-.817V6.5a.414.414 0 0 1-.119-.189.899.899 0 0 1-.166-.39c0-.071-.071-.071-.107 0-.035.07 0 .153 0 .224v.439c-.01.322-.049.643-.118.958v.439a.91.91 0 0 0 0 .438c.02.316-.02.633-.119.935-.083.142 0 .284-.07.438-.072.154 0 .32 0 .438s-.108.343-.131.52c-.024.178 0 .143 0 .226 0 .083-.095.118-.107.213-.012.095.178.19.19.213.011.024.19.355 0 .332-.19-.024-.356 0-.51-.06-.155-.059-.273-.118-.427-.07-.155.047-.344.082-.451 0-.107-.084-.237 0-.439 0a1.9 1.9 0 0 1-.474-.13c-.107 0-.356.07-.44 0-.082-.072 0-.261.131-.344.13-.083.238-.202.238-.13-.012-.344-.024-.699.011-1.019zm4.032 2.202h-.083c.041.037.09.065.142.083l.19.095.415.083c.233.012.467.012.7 0 .125.005.25.03.368.07.106 0 .272-.07.355 0 .111.077.181.199.19.332 0 .107-.166.071-.225.06h-.403l-.475-.071h-.486c-.107 0-.19-.095-.344-.107h-.617c-.154 0-.213.095-.344-.071-.13-.166 0-.118.071-.26.072-.143.06-.214.119-.119-.071-.19-.095-.367-.166-.544a4.73 4.73 0 0 1-.166-.486c-.119-.367-.214-.71-.332-1.054 0-.153-.32-.355-.143-.52.178-.166 0-.285 0-.439 0-.153.12-.367.083-.568a2.21 2.21 0 0 1 0-.485c0-.083.12-.071.107 0a.402.402 0 0 0 0 .296c.087.156.163.318.226.485v.296c.052.09.08.192.083.296 0 .154.094.166.142.272v.214c.033.196.08.39.142.58.086.16.15.331.19.509a.697.697 0 0 1-.107.544c-.106.225 0 .308.154.474.155.166.155-.036.214.035zm.735-9.814c.083-.142 0-.284 0-.438 0-.154 0-.154-.118-.32-.119-.166-.19-.26 0-.355.19-.095.213.095.308 0 .344 0 .297.142.273.402-.024.26 0 .296-.071.439-.071.142 0 .26 0 .378a3.628 3.628 0 0 0-.083.71c0 .12-.071.747-.095.77-.024.024-.19-.533-.178-.64a1.182 1.182 0 0 1-.036-.946zM73.677 19.286c.071-.083.309-.166.332-.296.024-.13.178-.225.273-.343.095-.119.13-.26.285-.332.154-.071.142-.26.296-.331.133-.081.25-.186.344-.308.185-.228.383-.446.593-.651.214-.249.344-.51.558-.71.213-.202.249-.155.344-.285.104-.1.203-.208.296-.32.214-.248.38-.485.57-.698.19-.213.237-.166.332-.296.086-.118.185-.225.296-.32.115-.103.218-.218.308-.343.083-.13.226-.19.273-.343.068-.135.16-.256.273-.356.119-.094.19-.272.308-.307.252-.17.46-.397.605-.663 0-.166.237-.166.332-.296a.84.84 0 0 1 .273-.344.39.39 0 0 0 .083-.378s0-.356.095-.296c.14.036.267.11.368.213.083.07.118.165.201.236.083.071-.118.071-.178.13-.059.06 0 .143-.106.214-.107.07-.119.094-.154.142-.036.047-.226.19-.333.296-.106.106-.07.142-.118.19-.056.05-.115.098-.178.141-.107.107-.178.225-.285.332-.106.106-.332.201-.367.379-.036.177-.178.225-.297.331-.119.107-.142.249-.26.379-.124.085-.239.18-.345.284-.118.13-.142.284-.308.367a3.98 3.98 0 0 0-.285.343 2.69 2.69 0 0 1-.605.663c-.237.237-.427.474-.652.723-.225.248-.166.225-.273.331-.107.107-.237.166-.344.284l-.356.391c-.094.13-.225.178-.32.308s-.213.19-.273.343a.51.51 0 0 1-.284.343c-.166.083-.154.296-.332.367-.178.071-.261 0-.415.095-.155.095-.261.249-.368.474-.107.225 0 .296 0 .461 0 .166.474.462.676.675.202.213.249.107.32.26.071.155.225.178.344.273.119.095 0 .403-.095.426-.095.024-.201-.154-.332-.248-.13-.095-.19-.285-.308-.308-.119-.024-.202-.178-.332-.296-.13-.119-.427-.415-.688-.616a.96.96 0 0 0-.332-.284.154.154 0 1 1 0-.308c.272-.012.403.024.545-.118zm4.104.225c-.071.083-.202.083-.225.213a.308.308 0 0 1-.19.213c-.178.095-.214.39-.392.497-.177.107-.249.308-.391.45a.095.095 0 0 0 0 .119c0 .13 0 .367-.107.438-.106.07-.296-.119-.367-.178-.072-.06-.38-.403-.617-.627-.237-.225-.237-.332-.368-.356-.13-.023-.19-.213-.356-.26-.166-.047-.154-.213-.284-.332-.13-.118-.25-.154-.13-.284.118-.13.284 0 .403-.083.118-.082.177-.165.332-.236.154-.071.415-.486.593-.675.178-.19.095-.178.166-.26.07-.084.142-.06.201-.12.06-.058 0-.141.095-.212.095-.071.143-.083.19-.13.213-.237.344-.45.57-.699.225-.249.545-.367.675-.675.13-.308.202-.213.32-.32.12-.106.095-.2.202-.32.107-.117.154 0 .214-.094a.859.859 0 0 1 .13-.177c.048-.048.154-.249.261-.356.107-.106.403-.414.629-.65.201-.255.42-.497.652-.723.119-.095.154-.237.26-.355l.31-.343c.106-.107.272-.13.355-.26a.84.84 0 0 1 .273-.356c.237-.166.356-.497.617-.651.26-.154.083-.249 0-.426a.166.166 0 0 1 .272-.166c.072.06.178 0 .226.083a.715.715 0 0 0 .249.248c.095.048.32.332.498.498.356.296.676.627 1.02.947.13.118.38.19.474.379.095.189.202.2.344.307.143.107.095.166.19.285.095.118.142 0 .19.118.047.118 0 .142.107.178.106.035.13.094.178.13.047.035 0 .177 0 .237 0 .059.142.07.142.165s.083.308.166.474c.095.208.143.434.142.663 0 .177-.095.26 0 .462.095.2-.118.307-.13.438-.012.13-.214.2-.202.414.012.213-.142.296-.225.355-.083.06-.095.166-.19.272-.095.107-.154.13-.237.26a.722.722 0 0 1-.178.297s-.154 0-.19.118c-.035.119-.071.142-.13.202-.06.059-.356.189-.404.343-.106.379-.58.675-.877.9a1.802 1.802 0 0 1-.487.402c-.169.08-.328.18-.474.296a.748.748 0 0 1-.605.166c-.213 0-.368.118-.557.095-.19-.024-.38-.107-.57-.13-.19-.024-.38-.202-.616-.297-.238-.094-.415-.26-.64-.438-.226-.177-.25-.307-.428-.378-.178-.072-.403-.545-.664-.545-.26 0-.285.308-.415.45zm1.02.675c.277.246.584.457.913.627a1.639 1.639 0 0 1-.605-.19c-.166-.07-.391-.082-.51-.224-.118-.142-.272-.071-.32-.202-.047-.13-.19-.142-.32-.26-.13-.118.237-.26.296-.237.238.012.392.355.546.486zm1.186-2.57a.878.878 0 0 1 .19.119.925.925 0 0 0 .344.249c.154 0 .166.177.26.236.096.06.179-.07.309 0 .13.071.178 0 .32 0 .143 0 .214.071.273 0 .06-.07.166-.118.285-.213l.19-.118s.07-.119.118-.166c.143-.115.264-.256.356-.414.083-.13.154-.071.273-.178.118-.106.07-.166.166-.284.095-.118.201-.118.249-.201.047-.083 0-.166 0-.225.037-.056.068-.116.095-.178a.65.65 0 0 0 .07-.414l.084-.083a.674.674 0 0 0-.095-.225 1.183 1.183 0 0 0-.214-.379 2.228 2.228 0 0 0-.367-.379c-.095-.13-.25-.118-.32-.272-.072-.154-.368.142-.463.272-.23.334-.496.64-.795.912-.272.308-.533.58-.83.876a5.046 5.046 0 0 1-.38.45c-.16.11-.286.262-.367.438.119.06.06.13.213.178h.036zm2.372-2.367c.095-.071.119-.166.273-.225.081.085.168.164.26.237a.84.84 0 0 1 .262.355v.19c0 .047-.25.52-.309.58-.059.058-.272.497-.45.568-.178.07-.166.153-.273.26-.107.107-.178.13-.237.237a.735.735 0 0 1-.451.331h-.225c-.06 0-.107.06-.178 0l.213-.19c.071 0 .143-.165.202-.224.06-.06.32-.32.45-.462.08-.077.147-.164.202-.26v-.213c.11-.178.168-.383.166-.592 0-.213-.19-.45 0-.604l.095.012zM83.9 29.1c.238-.13.558-.165.7-.414.143-.249.202-.06.297-.106a.688.688 0 0 0 .309-.214c.106-.13.237-.07.367-.165s.119-.107.237-.095c.12.012.427-.272.653-.39.225-.12.391-.13.605-.25.213-.118.391-.343.664-.39.273-.047.486-.272.7-.379.213-.106.237-.154.38-.225.141-.07.189 0 .296-.083.106-.083.462-.165.628-.379.166-.213.237-.106.392-.153a2.03 2.03 0 0 1 .391-.202c.13-.07.214-.213.38-.225.103-.03.203-.074.296-.13l.427-.19c.043-.06.1-.109.166-.141l.214-.071c.142-.071.438-.166.415-.356-.024-.189.249-.52.38-.272.13.249.059.213.13.355.07.142.106.107.142.166.036.06-.285.083-.427.154-.142.071-.225.166-.368.237-.142.07-.225 0-.284.106-.06.107-.107.13-.178.142a1.58 1.58 0 0 0-.415.154c-.475.426-1.115.486-1.59.912-.083.07-.166 0-.296.083-.13.083-.095.118-.166.154l-.392.2c-.094.06-.154 0-.284.084a.878.878 0 0 1-.19.118c-.142 0-.332.071-.391.178-.06.106-.546.284-.807.497a.772.772 0 0 1-.415.166c-.13 0-.249.154-.391.201-.143.047-.297.19-.463.26-.166.072-.237.154-.38.225l-.77.415a3.93 3.93 0 0 0-.487.166.368.368 0 0 1-.367.094.546.546 0 0 0-.748.367c-.118.355.155.64.285.947.115.277.254.542.415.794.162.274.304.559.427.852.153.246.288.504.403.77.044.093.1.18.167.26.02.073.049.145.083.213 0 .071.094.095.13.166.036.07 0 .154 0 .225.154.296.297.52.427.77.13.248.308.307.19.45-.119.141-.356.141-.427 0-.071-.143-.06-.309-.237-.498-.178-.19-.083-.154-.155-.296-.07-.142-.166-.13-.154-.26a1.538 1.538 0 0 0-.344-.604c-.118-.225-.154-.39-.249-.616a1.55 1.55 0 0 0-.356-.592c-.142-.118-.178-.426-.272-.604-.25-.438-.416-.84-.653-1.29a1.527 1.527 0 0 0-.332-.497c0-.06-.166-.38-.166-.403 0-.024.225 0 .297-.059l.32.083.842-.415zm2.16 5.316c-.083-.177-.214-.237-.226-.426-.012-.19-.178-.308-.26-.462-.084-.154-.179-.237-.179-.379v-.225c0-.07-.13-.106-.154-.165-.024-.06 0-.166 0-.249l-.605-1.184c0-.095-.13-.118-.201-.26l-.32-.284c-.12-.213-.155-.391-.273-.604-.119-.213-.25-.237-.143-.367.107-.13.261 0 .38 0 .118 0 .391-.13.57-.225.177-.095.426-.142.64-.249.213-.106.083-.118.166-.166.083-.047.19 0 .296-.13.107-.13.439-.13.581-.272.143-.142.344-.19.522-.272.178-.083.297-.284.427-.284s.32-.154.534-.273c.213-.118.391-.106.522-.272.13-.166.249-.107.38-.178.13-.07.189-.118.284-.165.095-.048.154 0 .237 0 .083 0 .071-.142.154-.178.083-.036.155 0 .214-.071a.671.671 0 0 1 .284-.166c.196-.117.403-.216.617-.296.226-.094.439-.284.653-.39.213-.107.39-.154.604-.273.11-.045.215-.104.309-.177.107-.13.166-.06.296-.13l.593-.308c.155-.083.522-.225.617-.38.095-.153 0-.26.107-.366.107-.107.26.13.332.26.071.13.26.344.368.557.106.213.13.402.249.615.118.213.154.095.19.178.035.083 0 .142 0 .225 0 .083.213.355.32.568.106.213.166.13.166.26a.296.296 0 0 0 .083.214c.142.142.095.32.237.461.142.142.154.391.273.557.138.18.25.38.332.592 0 .248.273.331.32.58.047.249.071.308.202.414.13.107 0 .071 0 .19a.58.58 0 0 1-.32.26 2.99 2.99 0 0 0-.688.379 3.264 3.264 0 0 0-.451.237c-.119.094-.226 0-.356.118-.13.119-.427.332-.38 0a.769.769 0 0 1 .12-.402c0-.095-.19-.344-.238-.45-.048-.107-.107-.284-.178-.426-.071-.143-.202-.237-.273-.38-.071-.141-.071-.283-.142-.414a1.456 1.456 0 0 0-.273-.473c-.142-.13-.095-.284-.19-.403-.095-.118-.19-.793-.569-.39-.19.26-.546.236-.83.402-.285.166-.534.272-.736.45-.201.178-.355 0-.332.178.076.126.16.249.25.367l.426.816c.19.28.353.578.487.888 0 .142.19.178.332.202.142.023.142 0 .166.083.024.082 0 .2 0 .165s-.309.213-.356.26c-.142.065-.28.136-.415.214-.13.072-.27.123-.415.154-.154 0-.178.13-.32.201l-.178.13h-.261c-.083 0-.214.19-.356.26-.142.072-.297-.141-.237-.272l.118-.284-.07-.094a.213.213 0 0 1 .047-.071c-.072-.13-.107-.237-.155-.332-.047-.095-.296-.367-.344-.616a1.503 1.503 0 0 0-.213-.343 2.98 2.98 0 0 1-.142-.343c-.072-.13-.083-.249-.202-.32-.119-.071-.142.06-.308.071-.166.012-.32.19-.475.272-.154.083-.284.071-.427.142l-.45.26c-.143.072-.214.214-.38.226-.166.012-.356.083-.308.237.047.154.166.154.237.296.12.169.202.363.237.568 0 .118.19.201.213.308.024.106.084.201.155.343.07.142.19.39.296.616.063.108.135.21.214.308.07.13.07.236.142.367.155.135.337.236.534.295.26.13-.415.356-.475.391-.059.036-.13.166-.296.178-.166.012-.119.118-.25.19-.13.07-.426.141-.604.236s-.486.426-.617.19c-.13-.237-.249-.735-.462-1.09zm2.775-3.824c0-.095.166-.059.142 0 .016.217.099.424.237.592.214.166.214.367.344.568.13.202.166.214.143.32-.024.107-.166.06-.226.095-.059.035-.391.379-.462.094-.071-.284.201-.355.13-.497-.07-.142-.249-.284-.356-.497-.106-.213 0-.19-.094-.331-.095-.143-.119-.13-.095-.214.023-.082.166-.023.237-.13zm3.95-2.012c.094 0 .07-.107.13-.143.06-.035.118.237.154.296.046.14.114.273.202.391.139.07.236.202.26.355 0 .296.309.486.38.77 0 .095.071.331.178.402.107.071.202.19 0 .166a.332.332 0 0 0-.344.154c0 .095-.32.19-.308 0 .012-.19.178-.568 0-.817-.178-.248-.226-.544-.44-.805-.213-.26-.106-.296-.177-.438-.071-.142-.19-.166-.166-.26.024-.095.071-.036.13-.071zM96.805 40.537l.214-.095h.284c.107 0 .25-.094.368 0a.891.891 0 0 0 .26 0c.238 0 .416-.106.653-.142a1.26 1.26 0 0 1 .593 0c.071 0 .202.367 0 .39-.086.012-.174.012-.26 0-.179 0-.392.131-.57.084a2.055 2.055 0 0 0-.676.106.723.723 0 0 0-.391.403.083.083 0 0 0-.072 0h.072-.024c-.107.39.296.568.403.911.07.276.11.557.119.841.044.135.076.274.095.414 0 .154-.261 0-.344.06-.273 0-.605.189-.878.106s-.32.083-.498.107c-.145.03-.294.03-.439 0-.154 0-.285.059-.427.083-.134-.02-.27-.02-.403 0-.296.002-.59.038-.878.106h-.463a4.05 4.05 0 0 1-.438.095 3.647 3.647 0 0 0-.498.083h-.902c-.178 0-.166.118-.368 0-.29-.02-.58.038-.842.165a.737.737 0 0 1-.45 0c-.155 0-.261.19-.38.095a1.388 1.388 0 0 0-.462-.284c-.119-.071-.344.095-.44.166-.094.07-.13.64-.118.9a.721.721 0 0 0 .071.414c.083.142-.059.225 0 .379.06.154.285.675 0 .781-.284.107-.296-.615-.32-.781.006-.075.006-.15 0-.225 0-.083-.083-.119-.095-.213-.012-.095 0-.13 0-.225s-.083-.119-.095-.201c-.012-.083.107-.178 0-.32-.106-.142 0-.13 0-.213 0-.083-.095-.273 0-.438.095-.166-.07-.367.143-.308.213.06.19.178.32.249.13.07.7 0 .937 0 .237 0 .284-.095.439-.107.154-.012.284 0 .438 0 .155 0 .143-.154.297-.107.075.012.15.012.225 0h.44c.145.012.292.012.438 0 .154 0 .308-.177.427-.118a.594.594 0 0 0 .51 0c.095-.071.32 0 .439 0 .118 0 .617-.213.866-.13.249.083.367-.083.522-.107.154-.023.284 0 .438 0h.44c.153 0 .272-.13.426-.142.154-.012.392.06.534 0 .142-.059.202 0 .356 0 .154 0 .272-.095.427-.118a.44.44 0 0 0 .213 0v-.332c0-.497-.142-.994-.201-1.491v-.249l-.167-.118c-.07 0-.284-.166-.237-.273l-.07-.201zm1.186.675h.309c.083 0 .118-.107.201-.119l.57-.07c.098.01.197.01.296 0 .083 0 .142-.06.213-.072.072-.011.499-.082.617 0 .119.083 0 .213 0 .32.01.106.01.213 0 .32 0 .165.083.165.107.32.006.11.006.22 0 .33 0 .257.036.512.107.759v.887c0 .285.118.202 0 .367a.272.272 0 0 0 .07.214c.12.225 0 .485.06.722s0 .284.083.426v.663c.03.11.07.217.119.32.049.258.08.519.095.781v.438c0 .154-.071.19 0 .332.07.142-.13.213-.273.296-.142.082-.368 0-.522 0l-.439.082h-.415c-.154 0-.285.083-.439.107-.154.024-.474 0-.415-.13.06-.13.083-.26.225-.367.143-.107 0-.675 0-.876 0-.202-.118-.213-.13-.32-.012-.107 0-.154 0-.249-.03-.069-.053-.14-.071-.213v-.237c0-.082 0-.296-.178-.2-.178.094-.285 0-.427 0-.17.017-.34.017-.51 0h-.439c-.178 0-.225 0-.391.082-.166.083-.309 0-.415 0-.107 0-.368 0-.522.06-.154.058-.273.106-.427.118-.154.011-.297 0-.45 0-.155 0-.12.083-.214.094h-.748a.51.51 0 0 1-.427.071c-.284-.118-.545.107-.877.13-.31.052-.623.08-.937.083a3.35 3.35 0 0 0-.878.107 5.18 5.18 0 0 0-.96.095c-.12.083-.558.734-.558.154v-.486c0-.154-.119-.272-.13-.426-.012-.154.094-.26 0-.402a.508.508 0 0 1-.095-.403 1.04 1.04 0 0 0 0-.51 1.926 1.926 0 0 1 0-.413c.154-.202.498.272.64.213.142-.06.64 0 .925-.119.285-.118.285 0 .427-.07.142-.072.285 0 .439-.072.154-.07.356 0 .534 0h.427c.284 0 .58-.142.865-.177.285-.036.368.07.534 0a.689.689 0 0 1 .439-.06c.154 0 .273-.094.439 0 .166.095.249-.094.427-.094s.344.07.51 0a.51.51 0 0 1 .439 0c.118 0 .272-.083.427-.095.154-.012.272 0 .439-.06.166-.058.379 0 .521 0 .143 0 .285-.082.44-.094.153-.012.272 0 .438 0 .01-.102.01-.205 0-.308a.366.366 0 0 1 0-.213 1.56 1.56 0 0 0-.06-.615c0-.237-.094-.45-.118-.687a1.89 1.89 0 0 1 0-.272c-.083-.06-.095 0-.166-.095-.071-.095-.308-.119-.237-.296.071-.178.462-.06.534-.071h-.048zm.237 5.458c.083.165-.07.32 0 .509.063.158.092.327.083.497 0 .237.119.249-.166.284h-.438c-.072 0 0-.249 0-.367s.13-.284.094-.52c-.035-.238-.118-.297 0-.392.119-.094.44-.118.475-.011h-.048z"/>
            <path fill="#000" fill-rule="nonzero" d="M5.657 75.652c.095 0 .095-.071.178-.119.083-.047.25-.118.38-.2a.545.545 0 0 1 .083-.084h.107c.035 0 0 0 .07-.083h.108l.201-.094s0-.107.13-.107c.131 0 .107-.095.19-.106.083-.012.119-.107.178-.143.06-.035.13 0 .19-.106a.403.403 0 0 1 .178-.107c.083 0 .107-.094.178-.118l.202-.107c.059 0 .106-.106.177-.118a.309.309 0 0 0 .178-.083.866.866 0 0 1 .356-.225c.083 0 .119-.07.178-.118.06-.048.13 0 .214-.107.083-.106.45-.343.723-.461.071 0 .142 0 .154-.13.012-.13 0-.202.107-.19a.403.403 0 0 1 .178.166c0 .082 0 .165-.083.177-.083.012-.237.178-.38.213a1.554 1.554 0 0 0-.32.225c-.071 0-.154 0-.237.107-.083.106-.119.07-.178.118l-.178.119s-.142 0-.19.106l-.19.154a1.01 1.01 0 0 0-.201.071.391.391 0 0 0-.166.142c0 .071-.142 0-.19.107-.047.106-.154.083-.225.118-.071.036-.071 0-.095 0-.024 0 0 0-.083.083l-.38.213c-.059 0-.118.13-.201.142a.261.261 0 0 0-.202.107c-.071.13-.249.13-.368.213l-.201.142h-.202c-.06 0-.356.225-.296.379.059.154.201.236.249.39.052.138.132.263.237.367.071 0 0 .154-.119.166-.118.012 0-.095-.106-.154-.107-.059 0-.154-.12-.177-.118-.024 0-.142-.106-.19a.32.32 0 0 1-.118-.201c0-.083-.107-.095-.119-.178-.012-.082-.285-.378 0-.32a.463.463 0 0 0 .13 0zm1.186 1.184v.07c0 .072-.106 0-.142 0-.035 0-.071-.094-.107-.13-.035-.035 0-.106-.07-.153-.072-.048-.12-.214-.19-.32-.072-.107-.178-.166-.202-.284-.024-.119-.142-.166 0-.26.142-.095.178.118.296 0a.688.688 0 0 1 .143-.12c.07 0 .118 0 .178-.07a.7.7 0 0 0 .13-.107s.119 0 .178-.083a.537.537 0 0 1 .296-.189c.095-.012.214-.154.297-.201l.154-.095s.143 0 .166-.083c.024-.083.202-.13.297-.19.109-.057.212-.124.308-.2l.154-.095s.13 0 .178-.083a.546.546 0 0 1 .297-.178c.07 0 0-.106.142-.118.142-.012.095 0 .166-.083.071-.083.071-.083.13-.083a.13.13 0 0 0 .095 0 .984.984 0 0 1 .178-.13l.178-.107s.178 0 .202-.106c.024-.107.13-.071.202-.13l.19-.119c.082 0 0-.166.082-.237.083-.07.107 0 .154.071.133.172.245.359.333.557 0 .118.142.154.177.272.048.078.1.153.155.225.13.213.225.403.355.616.07.081.126.173.167.272a.355.355 0 0 0 .106.118v.119c0 .035.095.106.143.177a.485.485 0 0 0 0 .095s.059 0 .07.083c.013.083 0 .071 0 .095 0 .023-.142 0-.165.106a.344.344 0 0 1-.19.107 2.836 2.836 0 0 0-.403.248c-.083 0-.309.225-.285 0 .024-.224.071-.13 0-.2-.071-.072 0-.131-.119-.19-.118-.06 0-.13-.106-.19a.628.628 0 0 0-.13-.177.721.721 0 0 1-.06-.142v-.083c0-.071-.06-.142-.107-.201-.047-.06-.107-.119-.142-.178-.036-.06 0-.166-.095-.201-.095-.036-.06 0-.083.07h-.095l-.178.12-.356.224a1.436 1.436 0 0 1-.237.107c-.083 0 0 .094 0 .118 0 .024 0 .154.071.213.071.06.071 0 .095.095.024.095 0 .07 0 .106 0 .036 0 0 .083.071s0 .083 0 .119c0 .035.095.106.13.177.036.071.072.213.25.249.178.036 0 .178-.095.237a.63.63 0 0 1-.202.094c-.07 0-.095.107-.178.119-.083.012-.154.095-.225.142-.071.047-.119.06-.119.142 0 .083-.13.083-.19 0a.177.177 0 0 1 0-.178.556.556 0 0 0-.177-.414c-.119-.083-.107-.308-.226-.39a.616.616 0 0 1-.225-.202c-.071-.095 0-.154-.178-.07a.736.736 0 0 1-.19.07c-.083 0-.07 0-.142.095l-.273.177-.605.367c-.106 0-.166.107-.272.166-.09.043-.177.09-.261.142 0 0 .07.095.059.142l.035-.023zm1.673-.876s.095 0 .107.094l.154.273c0 .106.083.189.142.296.06.106.142.059.071.106-.07.047-.07 0-.107 0-.035 0-.177.166-.237 0-.059-.166 0-.083 0-.154a.402.402 0 0 0 0-.118c0-.107-.142-.154-.166-.26-.023-.107-.178-.048-.178-.107 0-.06.13-.071.178-.107l.036-.023zm1.886-1.184c.07 0 .118.094.13.13.011.074.05.141.107.19.071 0 .06.118.107.177.085.114.156.237.213.367 0 .07.261.225.095.225s-.119.07-.154.106c-.036.036-.13 0-.13 0v-.106-.083c0-.083-.096-.083-.096-.13a2.165 2.165 0 0 1-.213-.403c0-.083-.25-.201-.225-.308.023-.106.094-.07.13-.082l.036-.083zM9.892 82.27h.095c.07 0 .059.083.142 0h.118a.26.26 0 0 0 0 .39c.083.083.13.178.214.273l.225.272s.083.071.071.13c-.011.06 0 .142-.094.107-.095-.036-.143-.071-.155-.13a.284.284 0 0 0-.083-.154l-.118-.13s-.095 0-.143-.107c-.047-.107 0-.107-.094-.142-.095-.036-.083-.071-.13-.13-.048-.06-.19-.19-.19-.249l.142-.13zm.652.059c.13 0 .19 0 .308-.083.119-.083.475-.142.676-.308a.32.32 0 0 1 .19-.094c.071 0 .107-.083.166-.095.06-.012.178-.142.297-.142.118 0 .095 0 .166-.06.07-.059.059-.082.118-.082.042.019.09.019.13 0 0 0 .096 0 .131-.06l1.186-.556c.119 0 .214-.154.332-.154.119 0 .155-.106.25-.142l.284-.142.273-.107c.06 0 .119 0 .166-.082l.154-.083c.071 0 .178 0 .13-.142-.047-.142.06-.154.131-.071l.225.248.155.166s0 .095.083.107c.083.011.13.165.19.236l.225.26c.083.084 0 .084-.083.107h-.107a.687.687 0 0 0-.083.13c-.05.094-.11.181-.178.261a.71.71 0 0 0-.19.225l-.178.272c0 .083 0 .166-.166.237-.166.071-.083.13-.118.201l-.356.545c-.13.201-.297.355-.415.568 0 0-.06.071-.06.107 0 .035 0 0-.083.118-.083.119 0 .095-.07.119a.237.237 0 0 0-.096.094l-.094.13s-.06 0-.083.072c-.024.07 0 .07 0 .106 0 .036-.072.083-.107.118-.036.036-.13.178-.19.273a2.284 2.284 0 0 1-.154.284c-.13.166-.332.343-.344.568 0 0 0 .201-.107.154-.107-.047-.083-.118-.166-.142-.083-.024-.095-.154-.142-.213-.048-.06-.071 0-.107 0-.036 0 0-.071 0-.095 0-.023-.06 0-.083-.059-.024-.06 0-.071 0-.107a1.612 1.612 0 0 0-.142-.142s-.166-.13-.166-.177a.095.095 0 0 1 .118-.107h.178c.048 0 0-.07.107-.13v-.107c.088-.09.168-.19.237-.296 0-.094.107-.177.142-.26.036-.083 0 0-.07 0-.072 0 0-.071 0-.107a1.74 1.74 0 0 0-.12-.153c-.106-.13-.272-.202-.32-.344-.047-.142-.118-.07-.142-.154-.024-.083 0-.177-.142-.154-.143.024-.095.154-.202.142-.107-.011-.13.06-.213.083a.64.64 0 0 0-.19.119.796.796 0 0 1-.214.083c-.083 0-.083.106-.059.189.024.083 0 .166-.107.095a1.456 1.456 0 0 1-.308-.296l-.463-.533-.272-.331c-.048-.083.083-.107.142-.107zm-.06-.213c.12 0 .273-.095.345-.201.07-.107.237-.071.344-.13.106-.06.07-.072.118-.095l.154-.083a.25.25 0 0 0 .155 0l.13-.083.308-.118s0-.083.13-.107a.19.19 0 0 1 .12 0c.118 0 .225-.13.32-.166.095-.035.178-.07.296-.13.111-.062.226-.118.344-.166.119 0 .214-.118.332-.177.119-.06.202-.142.32-.154.12-.012.19-.095.309-.142.118-.048.107-.083.166-.095.039.011.08.011.118 0l.344-.166c0-.07 0-.177.083-.201.083-.024.13.083.178.142l-.166.118-.201.083-.214.083s-.06.071-.118.071a.178.178 0 0 0-.13.083h-.286l-.142.083c-.107 0-.201.083-.308.13a.64.64 0 0 0-.19.119h-.154a.534.534 0 0 1-.32.142s-.119 0-.166.094h-.166a6.397 6.397 0 0 1-.57.296c-.083 0-.178 0-.237.095-.06.095-.142.083-.213.142-.072.06-.167 0-.25.071a.52.52 0 0 1-.213.13c-.128.091-.274.156-.427.19l-.142.142zm1.72 2.735c0 .083.107.083.155.154.047.07.083.082.13.154a.45.45 0 0 0 .13.165c0 .06.12.071.095.166-.023.095-.07.118-.166 0-.095-.118-.059-.13-.142-.166-.083-.035-.06-.13-.13-.165-.072-.036-.19-.214-.285-.344-.095-.13-.13-.059-.154-.154-.024-.094-.13-.094-.119-.154.012-.059.107 0 .13-.07.024-.072.107.082.179 0 .07-.084.154-.166.177-.25a.414.414 0 0 1 .143-.224c.07 0 .095-.19.154-.26.06-.072 0 0 0-.12 0-.117-.154-.224-.25-.33-.094-.107-.177 0-.153-.143.023-.142.142-.083.19-.083.047 0 .082.13.142.178.06.047.095 0 .13.13a.284.284 0 0 0 .143.166c.07 0 .07.142.154.166.083.023-.13.284-.166.32-.036.035-.202.355-.238.32-.035-.036-.213 0-.26.058a.887.887 0 0 0-.083.213c-.024.107.059.19.094.273zm1.186-2.368c0 .083.12 0 .143.118.024.119.213.355.225.213.012-.142.107-.118.142-.19.036-.07.095-.106.107-.2a.332.332 0 0 1 .13-.178c.06 0 .084-.118.12-.19l.13-.224s.154-.095.083-.107c-.071-.012-.13.095-.166.107l-.19.106-.45.19-.202.106s-.178 0-.202.095c-.024.095.13.024.166.095l-.036.059zm.344-.071s0 .083-.083 0 .13-.201.166-.154c.036.047-.047.047-.047.095l-.036.059zM17.221 89.74l.202.19s0 .118.083.13a.344.344 0 0 1 .178.142l.154.107c.125.09.26.166.403.224H17.921l-.201-.082h-.143c-.047 0-.225-.13-.332-.225l-.166-.249a.864.864 0 0 1-.06-.107s-.07-.082-.13-.118c-.059-.035 0-.083-.083-.118-.083-.036-.083 0-.106-.142a.461.461 0 0 0-.072-.13c0-.072-.07-.107-.106-.178a.295.295 0 0 0 0-.142c-.06-.083 0-.154-.083-.237-.083-.083 0-.083 0-.13v-.178a.508.508 0 0 1 0-.296c0-.095 0-.32.166-.308a.606.606 0 0 1 .201 0c.071 0 .071 0 0 .095-.07.095 0 .095 0 .154v.213c.011.094.011.19 0 .284.002.113.022.225.06.332.045.115.1.226.166.331.032.158.097.307.19.438zm1.447-2.96a1.418 1.418 0 0 1 0-.497c.02-.12.047-.239.083-.355.038-.113.081-.223.13-.331 0-.071.108-.095.155-.154.047-.06 0-.095.107-.119.107-.023.083 0 .13-.094a.13.13 0 0 1 .107 0c.107 0 .166-.119.285-.13.118-.013.142 0 .237-.072.193-.022.388-.022.581 0 .095 0 .178.083.285.071.095.03.186.07.272.119 0 0 0 .07.107.083a.13.13 0 0 1 .107 0c.071.094.19.082.26.189.071.08.15.152.238.213.038.027.06.072.06.118l.094.095c.123.171.212.364.261.568 0 0 .06 0 .06.107a.32.32 0 0 0 0 .107v.509a.295.295 0 0 1 0 .142s0 .154-.072.19a.368.368 0 0 1-.225 0h-.225a.642.642 0 0 0-.297 0c-.095 0-.154-.084-.237 0-.083.082-.38 0-.214-.178s.226-.225.13-.38c-.094-.153 0-.177-.094-.272a.604.604 0 0 1-.142-.236.83.83 0 0 0-.498-.296.356.356 0 0 0-.427.331c.02.103.057.203.106.296 0 .071 0 .166.083.225a.876.876 0 0 1 .155.249v.106c0 .024.07 0 .083.095.07.108.13.223.177.343v.261c0 .047.083.154.12.248.038.1.07.204.094.308a.78.78 0 0 1 0 .166v.32c-.02.204-.094.4-.214.568a.532.532 0 0 1-.07.142s-.06 0-.096.071a.4.4 0 0 1-.177.201c-.107.06-.084.13-.19.142-.107.012-.166.13-.273.142-.107.012-.166.13-.285.142h-.581c-.107 0-.154 0-.249-.07a1.793 1.793 0 0 1-.356-.119l-.284-.154a2.133 2.133 0 0 1-.44-.426 2.818 2.818 0 0 1-.402-.51 2.246 2.246 0 0 1-.167-.567v-.285a.58.58 0 0 1 0-.284c0-.059 0-.213.083-.248.084-.036.131 0 .214 0a.903.903 0 0 1 .356 0H18.419V88.023s-.106 0-.13.107v.391a.71.71 0 0 0 .154.331c.095.083.154.202.25.284a.737.737 0 0 0 .32 0h.154c.03-.01.064-.01.094 0a.498.498 0 0 0 .214-.2.615.615 0 0 0 0-.356c0-.118-.107-.201-.095-.331.012-.13-.13-.154-.13-.261 0-.107-.095-.107-.12-.19a1.09 1.09 0 0 0-.153-.189l-.107-.201v-.13a.639.639 0 0 1-.13-.332l-.072-.166zm-.628 0a1.537 1.537 0 0 1 .178-1.053l.201-.237s0-.083.095-.095l.107-.154a.914.914 0 0 1 .415-.2c-.06 0-.095.106-.154.13-.06.023-.06.07-.095.118l-.095.07a.532.532 0 0 0-.095.202c0 .071-.118.118-.118.213s-.095.296-.107.462c.012.144.036.286.071.426v.296c.017.073.04.145.071.213v.095c0 .095.06.213.107.308.047.094.13.225.178.307.144.199.245.424.296.663 0 .119.083.26 0 .356-.083.094-.201.13-.272.106-.072-.023-.083 0-.072-.118v-.095c0-.142 0-.19-.083-.296a.922.922 0 0 0 0-.166l-.07-.142v-.177-.095c0-.095-.108-.26-.226-.26-.119 0-.095-.19-.166-.26-.071-.072 0-.202-.083-.285a1.289 1.289 0 0 1-.083-.284v-.048zm2.573.782h-.059c0-.071 0-.142-.06-.19a.651.651 0 0 1-.106-.165.437.437 0 0 1 0-.249s-.071-.083 0-.154c.071-.07 0-.083-.071-.154-.071-.07 0-.083 0-.13a1.589 1.589 0 0 0-.166-.13c.083-.142.225 0 .344 0 .118 0 .178.177.237.272.06.095.107.095.13.201a.567.567 0 0 1 0 .202s0 .07-.059.082l-.083.06c0 .07-.07.106-.06.19l-.047.165zM22.89 93.683h.06s0-.166.107-.213c.106-.048 0-.154.13-.202.13-.047.083-.177.13-.248.048-.071.12-.119.143-.225a2.2 2.2 0 0 1 .119-.237c0-.071.094 0 .094-.154s.107-.154.143-.213l.249-.485c.062-.066.117-.138.166-.214.032-.082.072-.161.119-.236 0-.083.13-.13.142-.213.012-.083 0-.083.095-.154s0-.142.083-.202c.058-.074.11-.153.154-.236 0-.071.107-.107.107-.202 0-.094.095-.059.106-.142.012-.083.178-.284.273-.438.095-.154.06-.13.095-.201.036-.071 0-.095-.06-.142-.058-.047 0-.154.12-.119l.13.072s.154 0 .107.094c-.048.095-.083 0-.095.13-.056.108-.12.21-.19.308 0 0 0 .095-.083.154-.083.06-.06.107-.083.154a1.183 1.183 0 0 0-.178.308c-.067.143-.15.278-.249.402l-.107.178c0 .06 0 .13-.083.201-.083.071-.071 0-.107.107a.19.19 0 0 1 0 .106 1.408 1.408 0 0 1-.106.178.604.604 0 0 1-.107.19 1.408 1.408 0 0 1-.095.189.343.343 0 0 0-.13.213c0 .083-.083.095-.107.178-.024.082-.083.142-.119.177-.035.036-.07.118-.106.19-.036.07-.095.142-.131.213-.036.07 0 .07 0 .106 0 .036-.06 0-.071.083l-.119.19s0 .142-.106.189c-.107.047-.083 0-.13 0-.048 0-.084 0-.096.095a.331.331 0 0 0-.071.272c0 .177.178.19.32.272.143.083.237.249.392.249.154 0 .178 0 .178.106 0 .107 0 .154-.06.178-.059.024-.308-.166-.391-.213a.403.403 0 0 0-.19-.119.285.285 0 0 1-.178-.106c-.06-.083-.142-.071-.225-.107l-.178-.106c-.19-.107.142-.178.202-.225.059-.047-.06-.107-.012-.13zm.617-.213l.083-.13.072-.155s.07 0 .083-.082c.012-.083 0-.072 0-.107 0-.036.07-.083.095-.13l.094-.13v-.119c0-.035.072 0 .095 0 .024 0 0-.095.06-.166.062-.088.114-.183.154-.284 0-.07 0-.07.083-.094.083-.024 0-.083.071-.119.071-.035 0-.095.071-.166l.083-.13.368-.604c.054-.09.102-.186.142-.284 0-.106.13-.177.178-.284a.781.781 0 0 1 .178-.26c.06-.107.071-.237.142-.296.071-.06.119-.202.154-.284.036-.083.12-.095.12-.202 0-.106.07-.083.094-.118.024-.036 0 0 0-.095v-.177c0-.024.166 0 .19 0 .023 0 0 .059.083.082.083.024.07 0 .107 0 .035 0 0 .095.106.095h.107c.06 0 .13 0 .178.107.047.106.13 0 .178.106.047.107.154 0 .201.095.048.095.13.095.095.166-.035.07-.13 0-.19 0-.06.068-.112.143-.154.225-.059.106-.13.154-.19.26-.059.107 0 .107-.082.154a.793.793 0 0 0-.072.142l-.166.272c-.059.095-.07.19-.154.249-.059.084-.107.176-.142.272 0 0-.119.142 0 .166a.178.178 0 0 1 .095 0 .285.285 0 0 0 .19.095c.07 0 .094.106.177.106.069.024.13.065.178.119.119.106.273.106.392.225.118.118.142.118.166 0 .023-.119.095-.107.095-.19s.106-.142.142-.213c.04-.06.076-.124.107-.19l.213-.378c0-.071 0-.166.13-.213.131-.048.06-.13.107-.202a.308.308 0 0 1 .107-.189c.107-.071 0-.095 0-.166 0-.07 0-.213.154-.118a.368.368 0 0 0 .107 0c.071 0 .083 0 .13.083.048.083 0 .083.107.083a.13.13 0 0 1 .107 0c.07.06.15.109.237.142.06 0 .498.201.368.331h-.166v.119c0 .047-.095.082-.107.118a.745.745 0 0 0-.166.32c0 .094-.142.154-.154.248-.044.105-.1.204-.166.296a.32.32 0 0 1-.083.095s0 .083-.06.13c-.107.208-.225.41-.355.604-.1.192-.21.378-.332.556v.154c0 .06-.072.083-.083.13l-.072.154s-.07 0-.094.072c-.024.07 0 .177-.095.26l-.095.095s0 .083-.06.118a1.597 1.597 0 0 1-.19.343c-.07 0-.082.202-.165.26a.509.509 0 0 0-.166.463s0 .225-.107.154c-.107-.072 0 0-.071-.083h-.107l-.368-.225s-.059-.083-.106-.071a.13.13 0 0 1-.107 0c0-.083-.107-.095-.178-.13-.071-.036-.166 0-.19-.083-.024-.083 0-.107.095-.119a.296.296 0 0 0 .19-.166c0-.106.118-.165.178-.26.059-.095.19-.403.308-.592.119-.19.095 0 .095-.118v-.119a.544.544 0 0 0 .166-.272c0-.083.06-.083.095-.142.035-.06 0-.095.071-.142.071-.048-.06-.071-.107-.142s-.166-.083-.225-.119l-.261.13a1.542 1.542 0 0 0-.178-.118l-.19-.095c-.106-.07-.296-.307-.355 0-.051.135-.119.262-.202.38-.06.07-.071.153-.142.212-.072.06 0 .142-.095.202-.095.059 0 .13-.095.19-.095.058-.107.106-.143.177l-.13.225v.106c0 .036-.06 0-.083.083a.355.355 0 0 0 0 .19c0 .094.071.118 0 .177-.071.06-.285-.166-.391-.19-.107-.023-.226-.189-.368-.224-.142-.036 0 0-.107-.083s-.071 0-.107 0a.984.984 0 0 1-.177-.13c-.155-.083.106-.154.19-.19.082-.035-.048-.19-.013-.19v-.058zm1.768 1.858c.057.02.112.043.166.071.059 0 .07.071.142.107.071.035.13 0 .166.07a.368.368 0 0 0 .178.12c.083 0 .06 0 .071.118.012.118-.237 0-.296 0a4.497 4.497 0 0 0-.404-.237c-.07 0-.083-.107-.154-.13l-.237-.119c-.071 0-.166 0-.202-.118-.035-.119.107-.083.155-.095.07-.05.124-.12.154-.201 0-.083.154-.166.166-.26.012-.095.308-.368.344-.58.043-.102.1-.197.166-.285 0-.106.107-.177.154-.284.047-.106.225-.237.083-.272-.142-.036-.095-.095-.166-.107-.071-.012-.214-.213-.356-.201-.142.012 0-.166 0-.19 0-.023.119 0 .142.072a.57.57 0 0 0 .19.094c.071 0 .095.095.178.107.08.011.153.054.202.118 0 .071.118 0 .106.107-.011.106-.083.142-.118.19-.036.047-.012.106-.012.189 0 .082-.13.284-.237.402-.107.119 0 .142-.13.19-.131.047 0 .13-.107.177-.107.048 0 .095 0 .154 0 .06-.06 0-.083.083-.024.083 0 .106-.095.142-.095.036-.166 0-.226.13a.284.284 0 0 0 0 .225.378.378 0 0 0 .06.213zm2.431-4.581c0 .082-.071.13-.107.213a.627.627 0 0 1-.07.118v.107c0 .035-.108.094-.143.165-.036.071-.13.273-.214.403-.083.13 0 .201-.142.13-.142-.07-.178-.07-.095-.13.083-.06 0-.142.13-.19a.367.367 0 0 0 .095-.213c0-.083.107-.142.143-.2a1.087 1.087 0 0 0 0-.107l.071-.083c0-.071.06-.178.119-.225.059-.048 0 0 0-.154s0-.225.083-.178c.08.048.163.092.249.13.012.095-.095.13-.119.214zM30.481 97.755a.331.331 0 0 1 .072-.213v-.213a.45.45 0 0 0 .094-.201c0-.13.095-.249.143-.403a.402.402 0 0 1 .095-.19c.059-.058.059-.13.083-.212.023-.083.142-.225.178-.39.028-.143.08-.279.154-.403.078-.12.134-.252.166-.391 0-.142.13-.249.154-.415.024-.165.083-.142.107-.224a.414.414 0 0 1 .07-.202.213.213 0 0 0 .072-.19c0-.082.071-.106.083-.177.012-.07.083-.118.083-.201 0-.083 0-.166.06-.201a.934.934 0 0 0 .154-.367.19.19 0 0 0 0-.178v-.177c.086.01.17.035.249.07.083 0 0 .072 0 .143 0 .07-.155.272-.178.402-.024.13-.154.26-.154.403a.26.26 0 0 1-.095.213 1.572 1.572 0 0 0-.06.225c0 .13-.154.248-.178.39-.023.143-.213.557-.32.83-.075.14-.139.286-.19.437l-.154.39c0 .096-.083.143-.083.238 0 .094-.095.106-.095.19 0 .082-.07.118-.094.189a.296.296 0 0 1-.072.2c-.004.076-.004.15 0 .226 0 .07-.142 0-.19.094a.296.296 0 0 0 0 .486c.086.03.169.066.25.106h.201c.136.037.265.097.38.178 0 0 .107.178 0 .19-.107.011-.119-.06-.202-.06-.083 0-.19-.083-.332-.083-.142 0-.142-.07-.237-.07s-.13 0-.178-.084c-.047-.082-.119-.082-.202-.082-.083 0-.13-.095 0-.142.13-.048.155-.083.166-.13zm.534-.201c.06-.071 0-.142.06-.225.059-.083.118-.237.177-.379.06-.142.083-.272.143-.414l.178-.39.166-.415s0-.119.083-.19c.083-.07 0-.142 0-.213 0-.07.083-.118.118-.177.036-.06 0-.083 0-.13 0-.048 0 0 .06-.083.059-.083 0 0 0-.095v-.107c0-.035 0-.142.059-.213.06-.07.071-.118.095-.19.023-.07 0-.141.083-.212.083-.071.083-.107.118-.178.036-.07 0-.106 0-.177.084-.121.141-.258.166-.403a.248.248 0 0 1 .095-.19c.06 0 0-.142.083-.213.083-.07.071-.13 0-.189a.378.378 0 0 1 0-.19h.415c.039.015.08.015.119 0 .107 0 .19.083.297.107.103.031.203.075.296.13a.332.332 0 0 1 .178.13s-.06.072-.083.095c-.024.024-.095 0-.119 0-.023 0 0 0 0 .095l-.083.201c0 .13-.095.26-.154.403-.06.142 0 .166-.083.248-.083.083-.083.119-.107.178a1.407 1.407 0 0 0-.154.403c0 .106-.083.13-.095.225-.012.094 0 .142-.059.224-.06.083-.154.25-.166.391a3.454 3.454 0 0 1-.202.426v.107c0 .035 0 0-.059.095-.06.094 0 .07 0 .118 0 .047 0 0-.06.083-.059.083 0 .106 0 .142 0 .035 0 0 0 0a1.289 1.289 0 0 1-.059.201c-.059.154-.13.273-.178.403-.047.13 0 .177-.094.237-.095.059 0 .142-.06.2-.059.06 0 .143-.083.202-.083.06 0 .071 0 .142s0 .237-.07.19h-.131l-.083-.071-.404-.166h-.237c-.035 0-.107-.06-.19-.083-.083-.024-.355-.13-.178-.201.178-.071.131.177.202.118zM36.507 97.992v-.201c0-.071.094-.284.118-.403.024-.118.142-.308.142-.414 0-.107.083-.272.119-.426.036-.154 0-.095 0-.166a.402.402 0 0 0 .06-.201c0-.071 0-.095.059-.154.059-.06 0-.107 0-.166.039-.133.103-.258.19-.367.094-.071.13-.166.225-.237-.04.061-.075.124-.107.19 0 .083 0 .19-.071.272a.769.769 0 0 0-.095.26v.119a.213.213 0 0 0 0 .106c0 .13 0 .26-.083.403-.083.142-.119.225-.119.343a.792.792 0 0 1-.07.332 1.182 1.182 0 0 0 0 .355c0 .142-.096.284-.131.414a.697.697 0 0 0 0 .273c.019.07.019.143 0 .213-.071.154 0 .379 0 .544.02.164.063.323.13.474 0 0 .095.07.13.13.036.06.06.107.12.166.109.118.237.218.379.296.14.11.301.192.474.237.083 0 .107.07.202.082h.26c.093.017.185.04.274.071h.225c.075.012.15.012.225 0h.166c-.202.066-.416.09-.628.072h-.771c-.06 0-.356-.166-.57-.166-.213 0-.308-.213-.474-.249-.166-.035-.166-.166-.225-.225l-.178-.166c-.06 0 0-.153-.083-.224a.603.603 0 0 1-.107-.308v-.225c0-.083.06-.213.06-.296a.674.674 0 0 1 0-.308.532.532 0 0 0 0-.13v-.13c.045-.068.097-.131.154-.19zm1.672 2.273c-.083 0-.107-.095-.19-.083a.404.404 0 0 1-.249-.094.772.772 0 0 1-.202-.095c-.118-.071-.332-.178-.391-.308-.06-.13-.095-.13-.154-.201l-.071-.154v-.119-.07-.202-.213a1.335 1.335 0 0 1 0-.213c0-.154.095-.296.106-.45a.768.768 0 0 1 0-.166v-.106-.201c0-.071.072-.083 0-.178-.07-.095 0-.166.072-.237l.106-.414c0-.154.083-.308.107-.474.024-.166 0-.13 0-.213 0-.083.06-.095.071-.142a.39.39 0 0 1 0-.118.638.638 0 0 1 0-.095v-.142c.06-.133.13-.26.214-.379v-.107l.083-.07c.051-.021.099-.049.142-.083a1.08 1.08 0 0 1 .32-.178c.083 0 .19-.095.273-.071.083.024.202 0 .297 0h.272c.103-.012.206-.012.309 0 .118 0 .201 0 .284.06.091.05.193.078.297.082.198.04.385.126.545.249.088.065.172.136.25.213h.094c.024 0 0 0 0 .094a.947.947 0 0 1 .155.225c.005.091.005.182 0 .273.012.118.012.237 0 .355v.142a.2.2 0 0 1 0 .118c0 .119 0 .202-.072.32a2.152 2.152 0 0 0-.083.296c0 .118 0 .237-.07.367l-.072.308-.166.568c-.07.225-.121.454-.154.687-.02.106-.051.21-.095.308 0 .07 0 .07-.071.142a.674.674 0 0 1 0 .165c-.06.107-.19.166-.226.273-.035.106-.106.094-.154.154a.843.843 0 0 1-.498.225c-.122.019-.246.019-.368 0h-.308c-.047 0-.166-.072-.249 0a.582.582 0 0 1-.285 0c.226-.012.226-.072.13-.048zm1.921-3.658v-.237c0-.095-.201-.414-.344-.473-.142-.06-.083 0-.118 0h-.095c-.101-.014-.2-.038-.297-.071h-.237c-.083 0-.166 0-.237.118-.117.153-.22.315-.309.485a.871.871 0 0 1-.07.32v.142c-.03.047-.05.1-.06.154-.006.11-.006.221 0 .331a1.679 1.679 0 0 0-.083.26v.285c0 .095 0 .178-.06.272-.059.095-.082.225 0 .308a.922.922 0 0 1 0 .26.58.58 0 0 0 .333.356c.104.053.216.089.332.106.105.03.215.03.32 0a.63.63 0 0 0 .202 0 .901.901 0 0 0 .166-.13c.071-.07.142-.106.166-.225.024-.118 0-.095.071-.142a.626.626 0 0 1 0-.142c.065-.16.113-.327.142-.497a.65.65 0 0 1 .083-.332c0-.083 0-.225.072-.296.064-.17.1-.35.106-.532-.13-.154-.07-.202-.083-.32zm-.51.142v-.142a.177.177 0 0 0 0-.13.96.96 0 0 0-.605-.38.487.487 0 0 1 .498-.082c.155.071.416.106.427.308.007.09.007.181 0 .272v.272a3.12 3.12 0 0 0-.083.356c0 .142-.118.26-.118.402v.225a.485.485 0 0 0-.06.225c-.011.18-.068.356-.166.509-.083.19-.106.296-.296.379 0 0 0-.107.06-.13v-.237a1.005 1.005 0 0 0 0-.26.295.295 0 0 0 0-.178c0-.083 0-.178.07-.249.072-.07 0-.177.083-.272.083-.095 0-.142 0-.213a.45.45 0 0 0 .06-.178c.074-.156.118-.325.13-.497zM44.868 101.532c.119 0 .178.142.344.142h.38c.07-.005.142-.005.213 0 .05-.02.105-.02.154 0a.095.095 0 0 1 0 .142h-1.352c-.166 0 .071-.225.107-.249.036-.023 0 0 0 0a.39.39 0 0 0 0-.07v-.154a.685.685 0 0 0 0-.308 1.04 1.04 0 0 1 0-.332v-.177-.142c.013-.11.013-.222 0-.332v-.32c0-.118.083-.225 0-.32-.083-.094.071-.248 0-.33a.425.425 0 0 1 0-.32v-.178c0-.071.06-.071 0-.154s0-.201 0-.32a.72.72 0 0 1 0-.32.626.626 0 0 0 0-.33v-.32a.91.91 0 0 0 0-.178s-.06-.083 0-.142c.06-.06.06-.237 0-.272-.06-.036-.06-.107-.095-.166-.036-.06 0-.083.083-.118.083-.036.107 0 .178 0s.071.07.071.118c-.006.075-.006.15 0 .225V97.14a1.335 1.335 0 0 0 0 .379v.189a.45.45 0 0 1 0 .178c-.006.07-.006.142 0 .213v.532c-.006.071-.006.143 0 .213v.533l-.06.758v.959a.344.344 0 0 1-.13.13c-.13.083 0 .26 0 .343l.107-.035zm.309-.864v-.237a.626.626 0 0 1 0-.225v-.249-.106-.107c0-.035.07-.07 0-.154a.106.106 0 0 1 0-.106v-.213a.792.792 0 0 1 0-.237 1.595 1.595 0 0 0 0-.213 1.418 1.418 0 0 1 0-.225c.005-.071.005-.142 0-.213v-.154-.107-.651a1.832 1.832 0 0 1 0-.248 1.182 1.182 0 0 1 0-.214v-.213a.72.72 0 0 1 0-.225v-.461c0-.166-.214-.237-.12-.284.096-.048.321 0 .463 0h.202l.534.07h.249c.083 0 .13 0 .154.095.042.2.105.395.19.58.02.124.06.244.118.356 0 .082 0 .2.119.284.037.1.069.203.095.308 0 .094.071.153.095.248.024.095 0 .107 0 .166v.13c.022.089.05.176.083.26v.237a.32.32 0 0 1 0 .107c-.002.04-.002.079 0 .118v-.39-.166-.166-.343-.201a1.016 1.016 0 0 1 0-.178c.026-.125.046-.252.06-.379v-.379c0-.118.07-.26 0-.355-.072-.095-.143-.071-.131-.166.012-.094.439 0 .522 0 .078-.006.158-.006.237 0h.249c.083 0 .391 0 .439.095.047.095-.119.13-.178.166-.06.035 0 .177 0 .26v.249a.65.65 0 0 1 0 .213.355.355 0 0 0 0 .213.366.366 0 0 1 0 .225v.45a.248.248 0 0 0 0 .225v.355a.934.934 0 0 1 0 .107v.224c.006.071.006.143 0 .214v.367a.225.225 0 0 0 0 .094 1.36 1.36 0 0 0 0 .213c.012.146.012.293 0 .438.006.157.03.311.07.462v.438a1.832 1.832 0 0 0 0 .249v.166c0 .07.072.118 0 .165-.07.048-.213 0-.284 0a.962.962 0 0 1-.367 0h-.32a.737.737 0 0 0-.32 0s-.167 0-.131-.083c.035-.082.142-.106.142-.142 0-.035 0-.118-.083-.2l-.071-.202v-.095-.106c0-.036-.107-.154-.107-.237a.402.402 0 0 0 0-.201s-.095-.143-.095-.19c0-.047 0-.118-.071-.201a.568.568 0 0 0-.083-.213v-.213c0-.083-.083-.26-.154-.391-.071-.13 0-.095 0-.154 0-.06-.06 0-.06-.095a.496.496 0 0 1 0-.19V99.07c.018.154.018.309 0 .462v.213a.437.437 0 0 0 0 .213c.03.153.03.31 0 .462v.213a.236.236 0 0 0 0 .213V101.307c0 .036.095.095.107.107.012.011.095.165 0 .153a.594.594 0 0 1-.249 0h-.64a1.58 1.58 0 0 1-.226 0h-.213c-.036 0 0-.118 0-.165 0-.048.118-.095.118 0-.343-.415-.355-.58-.343-.77v.036zm1.992 1.006h.368c.114.006.23.006.344 0a.297.297 0 0 1 .178 0h.178c.05.037.084.092.094.154H47.56a.642.642 0 0 0-.177 0H46.92c-.071 0 0 0 0-.118v-.071c0 .035 0-.166-.083-.261a1.821 1.821 0 0 1-.095-.225c-.06-.177-.107-.343-.178-.509-.071-.166-.154-.166-.071-.249.083-.082 0-.142 0-.213v-.284-.225c0-.07 0 0 0 0a.165.165 0 0 0 0 .142c.047.071.086.147.119.225v.142a.32.32 0 0 1 0 .142c0 .083 0 .083.083.142v.095c.018.096.042.191.07.284.046.074.082.154.108.237a.32.32 0 0 1 0 .272c0 .107 0 .154.083.225.083.071.19.06.213.095zm.202-4.736v-.213c0-.07 0-.083-.071-.154-.072-.07-.095-.13 0-.177.094-.048.094 0 .142 0 .047 0 .142 0 .142.19v.402a1.62 1.62 0 0 0 0 .343c.008.126.008.253 0 .379a.627.627 0 0 1-.095-.308.591.591 0 0 1-.118-.497v.035zM59.148 97.755a.142.142 0 0 1 0 .083.9.9 0 0 0-.13.19c-.095-.095-.273-.237-.297-.367-.024-.13-.095-.154-.13-.249-.036-.095 0-.13 0-.201 0-.071 0-.19-.06-.273a.65.65 0 0 1 0-.213V96.5a.367.367 0 0 1 .072-.154 1.938 1.938 0 0 0 0 .438c.02.13.074.252.154.356.083.106.118.225.19.331.05.058.093.122.13.19l.071.094zm5.373 1.859c.06 0 .154.166 0 .19h-.913a1.033 1.033 0 0 1-.202.082h-.213c-.083 0-.13.071-.214 0-.083-.07-.225.06-.142-.083.083-.142.095-.106 0-.177s-.13 0-.166.06c-.036.058-.119.07-.154.141-.036.071-.19.13-.273.201-.09.06-.19.101-.297.119-.095 0-.142.094-.237.118h-.154a.44.44 0 0 0-.166 0 1.034 1.034 0 0 1-.38 0H60.204a1.377 1.377 0 0 1-.57-.248c-.142-.13-.237-.308-.38-.462a1.963 1.963 0 0 1-.141-.367c-.039-.1-.07-.203-.095-.308a.78.78 0 0 1 0-.284v-.213-.308-.26a.284.284 0 0 1 .106-.19c.072-.071.095-.142.166-.213l-.225-.19c-.095-.059-.107-.142-.154-.213l-.107-.189v-.13a.107.107 0 0 1-.06 0v-.273a.508.508 0 0 1 0-.272.875.875 0 0 1 0-.248l.072-.178c.05-.172.14-.33.261-.462l.19-.177a.736.736 0 0 1 .225-.13c.083 0 .13-.13.225-.143.095-.011.155-.07.238-.094.171-.044.346-.076.522-.095.115-.036.235-.06.355-.071h.32c.207.034.41.09.605.166.095.059.143.142.238.2.095.06.13.12.19.202.059.083.26.426.154.521-.107.095 0 .095-.083.13a.19.19 0 0 0-.095.071.474.474 0 0 1-.178.166.735.735 0 0 0-.214.213c0 .083-.106.095-.166.166-.059.071-.106.201-.225.154-.119-.047 0-.071 0-.154a.58.58 0 0 0-.13-.474.772.772 0 0 0-1.044 0s-.095 0-.119.083v.119a.307.307 0 0 0 0 .272c.071.154.225.39.392.426.166.036.059 0 .106.083.048.083.071 0 .107 0 .036 0 0 .071 0 .095l.13.07c.092.043.18.095.261.155 0 0 .166 0 .214.106.047.107.154.083.249.142.095.06 0 0 .083.083s0 0 .107 0c.106 0 .296.213.462.308a2.896 2.896 0 0 0-.095-.438c0-.083 0-.095-.094-.118-.095-.024-.107 0-.12-.095-.011-.095.12-.107.143-.154.024-.047.071-.083.107-.142.036-.06.095 0 .119-.083a.284.284 0 0 1 .106-.154c.071-.095.226-.142.297-.237.071-.094.154-.165.26-.272.108-.107.096.071.12.142v.403c0 .07.059.094 0 .142v.083c0 .07 0 .118.07.2.007.072.007.143 0 .214v.983a.402.402 0 0 0 0 .189.89.89 0 0 1 .155.071c.118.095.26.118.38.213.095.08.198.152.308.213.115.05.226.11.332.178l.237.426zm-3.795 1.492a.475.475 0 0 1-.285 0h-.297a.475.475 0 0 0-.249 0c-.083 0-.154-.083-.237-.119a.878.878 0 0 0-.26-.118c-.084 0-.108-.13-.155-.201a.202.202 0 0 1-.095-.071v-.107l-.166-.284s0-.095-.06-.142c-.059-.047 0 0 0-.095v-.177a2.08 2.08 0 0 1 0-.663 1.3 1.3 0 0 1 .072-.438v.39c-.03.1-.03.208 0 .308v.284c.044.102.096.201.154.296.107.193.243.369.403.521a.273.273 0 0 0 .119.083.416.416 0 0 1 .095 0 .285.285 0 0 0 .225.118c.071 0 .083 0 .13.071h1.02a1.52 1.52 0 0 1 .392-.07l.32-.095h.119l.095-.071c.095-.071.142 0 .249-.095a.818.818 0 0 0-.202.201s-.142 0-.213.095a.392.392 0 0 1-.285.118c-.083 0-.166.071-.237.095-.212.075-.43.13-.652.166zm.462-4.108c.071.006.143.006.214 0l-.178.165-.083.095-.143-.083v-.118-.107-.177c0-.071 0-.083-.07-.13-.072-.048-.06 0-.096 0-.035 0-.13-.083-.19-.154-.059-.072-.284 0-.415 0 0-.178.166-.202.273-.273.107-.07.143 0 .214 0a.38.38 0 0 1 .201 0c.06 0 .095.095.155.13a.26.26 0 0 1 .07.25v.271c0 .071.084.107.131.142l-.083-.011zm.57 2.213h-.084a.19.19 0 0 0-.106 0s-.071-.082-.155-.106c-.083-.024-.225-.166-.367-.213-.143-.048-.107-.083-.166-.107a1.104 1.104 0 0 1-.237-.118l-.083-.083h-.095-.095a.379.379 0 0 0-.119.237c0 .118-.095.19 0 .308s0 .248.142.355c.143.106 0 0 .084.07.083.072 0 0 .07.084a.82.82 0 0 0 .63 0c.233-.079.436-.228.58-.427zm-1.27-.509c.143.083.297.154.44.249l.213.142s.13 0 .142.083c.012.083-.19.083-.285.107a.44.44 0 0 1-.51-.58zm2.776 1.622l.26-.07.096-.06c.094-.06.083 0 .118 0 .087-.01.174-.01.261 0 .083 0 .142-.095.225 0 .083.095-.154.272-.249.237-.095-.036-.154 0-.249.071a.665.665 0 0 0-.154 0h-.095c-.095 0-.19.083-.249.06-.06-.025-.142 0-.225 0a1.39 1.39 0 0 1-.237 0c-.072 0-.166.058-.226 0-.06-.06.083-.155.071-.226a.166.166 0 0 1 .083-.13h.06c.059 0 .403.13.522.118h-.012zM72.349 92.416l-.142-.071-.072-.119s-.083-.094-.083-.153a.898.898 0 0 0 0-.13 2.096 2.096 0 0 1-.19-.261.674.674 0 0 1-.13-.26s.13-.155.166-.095a.272.272 0 0 1 0 .118c0 .083.13.154.154.237.024.083.107.19.166.284a.392.392 0 0 0 .261.095c.19 0 .19-.237.32-.344.112-.086.23-.16.356-.225.072 0 .119-.094.166-.118.048-.024.072.107.095.142.024.036.202.237.214.379.012.142.107.118.142.201.036.083.095.107.107.19.012.083.071.106.107.177.028.067.064.13.106.19.055.131.126.254.214.367 0 0 0 .142.095.2.095.06.083.096.118.179.036.082.095.142.13.213.036.07 0 .142.096.2l.106.19c0 .071.072 0 .083.154.048.133.13.252.238.344a.39.39 0 0 1 .083.2c0 .072.13.084.118.155a.603.603 0 0 0 0 .26c0 .071.095.13.154.166.06.035.309-.071.427-.118a.332.332 0 0 0 .166-.119c0-.06.12 0 .178-.06.06-.058.25-.248.356-.13.107.12-.213.25-.296.285h-.095l-.071.083c-.072.083-.072 0-.107 0-.036 0 0 0-.083.083-.083.082-.095 0-.142 0h-.095c-.095 0-.095.106-.178.106-.083 0-.154.107-.166 0-.012-.106 0-.118 0-.19 0-.07-.143-.307-.202-.414-.06-.106-.095-.106-.13-.165-.036-.06 0-.142-.083-.202-.083-.059-.095 0-.107-.118a.19.19 0 0 0 0-.095s0-.13-.107-.19a1.408 1.408 0 0 0-.095-.189c0-.07-.13-.106-.13-.165a.284.284 0 0 0-.119-.225s-.083-.13-.095-.19c-.012-.059-.213-.237-.225-.367-.012-.13-.107-.142-.142-.201-.036-.06 0-.142-.083-.201l-.095-.19c0-.07-.107-.106-.143-.165-.035-.06 0-.19-.118-.237-.119-.048 0-.095 0-.154 0-.06-.107-.107-.143-.166-.035-.06 0 0 0-.095l-.142.071c-.22.115-.434.242-.64.38h-.107v.094c0 .036 0 .166-.083.166l-.083.213zm0-.675v-.142c0-.047-.071 0-.095-.071l-.142-.237a.414.414 0 0 0 0-.13l-.072-.083c-.07-.083-.142-.213-.118-.284.024-.071.095 0 .142 0 .048 0 .071-.06.143-.095.07-.035 0-.07.118-.106h.154c.112-.052.216-.12.309-.202l.391-.189s.071-.095.154-.095 0 0 .083-.07c.083-.072.202-.107.309-.167l.178-.118.142-.083h.154c.048 0 .083-.083.119-.118l.332-.19.178-.106c.07 0 .095 0 .154-.071.06-.071.118 0 .178 0s.095.166.13.225l.119.177c0 .071 0 .13.071.19.071.059.095.118.13.177.036.06.107.213 0 .213h-.201c-.071 0-.309.13-.403.166-.095.036-.072.095-.119.119h-.107l-.083.07a.452.452 0 0 0-.118 0s-.119 0 0 .119c.118.118.059.13.106.19.04.068.076.14.107.213l.107.189c0 .071 0 .095.118.154.119.06.072.13.083.19.012.058.095.153.13.212.037.06.096.107.131.178.036.071 0 .13.072.201.07.071.059 0 .083.071v.107c0 .059 0 .177.118.225a.225.225 0 0 1 .119.177c0 .142.154.225.225.367.083.128.154.263.214.403.057.13.129.253.213.367.083.118.119.308.225.414.107.107.44.107.178.213l-.225.083s-.095.107-.154.142c-.06.036-.142 0-.19.071a.202.202 0 0 1-.166.119.499.499 0 0 0-.225.106s-.155.107-.166.095c-.012-.012 0-.272 0-.32 0-.047-.13-.284-.226-.39-.095-.107 0-.13-.118-.178-.119-.047 0-.13-.119-.178-.119-.047 0-.165-.095-.236l-.107-.19c-.07-.118-.177-.236-.249-.355-.07-.118 0-.177-.106-.225a.438.438 0 0 1-.107-.19c0-.082-.095-.106-.107-.189-.012-.083-.095-.094-.118-.165-.024-.071 0-.166-.107-.225a.237.237 0 0 1-.107-.19s-.083-.106-.119-.177c-.035-.071 0-.13-.106-.19-.107-.059-.083-.154-.119-.225-.035-.07-.095-.106-.13-.165-.036-.06 0-.143-.095-.19a.356.356 0 0 0-.13.071h-.084a.748.748 0 0 0-.273.142c-.094 0-.177.13-.284.19-.107.059-.083 0-.13 0-.048 0 0 0 0 .094 0 .095 0 .154-.096.166-.094.012-.201-.047-.201-.071zm2.372-1.184c0-.07.154 0 .225-.095.071-.094.143-.094.214-.142.07-.047.083-.094.154 0 .071.095.095.154.083.202-.012.047-.107 0-.178 0a.273.273 0 0 0-.249 0s-.107.118-.166.094c-.06-.023-.083 0-.083-.035v-.024zM81.315 91.054c-.083-.094-.13-.248-.26-.284-.131-.035 0-.094-.084-.13-.083-.036 0-.095-.13-.13-.13-.036 0-.107-.119-.154-.118-.047 0 0-.07-.107-.072-.106-.167-.177-.238-.272-.071-.095-.107-.178-.178-.26-.071-.083-.213-.154-.26-.285-.048-.13-.179-.2-.25-.284l-.142-.165s0-.095-.071-.13c-.072-.036-.119-.202-.238-.261-.118-.06-.07-.107-.118-.178a.9.9 0 0 1-.13-.165s-.12-.072-.143-.154a.568.568 0 0 0-.095-.13l-.13-.178s-.072 0-.083-.071v-.095c0-.06-.119-.19-.202-.166-.083.024-.285-.059-.166-.154.119-.094.095 0 .154-.094v-.083c.06 0 .071.13.119.19l.142.153s0 .107.083.119a.166.166 0 0 1 .083.07.474.474 0 0 0 .119.178c.249.19.344.486.593.675v.13c0 .06.07 0 .095.071l.142.166v.118l.071.083c0 .06.071.142.13.166.06.024.19.237.32.343.059.045.1.107.12.178 0 .06.094.095.13.166.035.07.118.118.166.19l.142.153.273.331c0 .072.071.154.13.214.057.035.09.099.083.165 0 .178 0 .308.25.32.249.012.284-.13.415-.225a2.68 2.68 0 0 0 .344-.272c.114-.105.237-.2.367-.284.1-.103.212-.194.332-.273 0 0 0-.07.107-.106a.178.178 0 0 0 .083 0l.071-.083c.071-.083.071 0 .107 0l.32-.284s.119-.178.202-.13c.083.047.095.153 0 .2-.095.048-.142 0-.214.167-.07.165 0 0-.118.094-.119.095 0 .095-.119.107-.118.012-.166.142-.249.225l-.273.177a.77.77 0 0 0-.249.225c0 .071-.178.119-.26.178-.084.059-.356.284-.546.438a.83.83 0 0 0-.202.213s-.166.118-.19.118c-.023 0 0-.106 0-.142v-.248l-.166-.344zm2.372-1.539c-.07 0-.083.13-.177.142-.095.012-.13.119-.19.178l-.154.142h-.143v.095h-.118l-.51.402s0 .083-.107.13l-.119.095c-.095.083-.178.119-.26.19-.084.07-.096.142-.167.106-.07-.035 0-.13 0-.19 0-.058-.106-.177-.166-.248-.059-.07-.106-.19-.178-.272-.07-.083-.07 0-.095-.071-.023-.071 0-.095-.094-.13-.095-.036-.107-.19-.19-.25-.083-.058-.119-.141-.178-.212-.06-.071-.166-.119-.178-.178-.012-.059-.107-.142-.178-.225-.071-.083-.095-.177-.178-.225-.083-.047-.083-.106-.13-.165-.048-.06-.071-.071-.107-.119-.036-.047 0-.07 0-.106 0-.036-.071 0-.095 0-.024 0 0-.071 0-.095 0-.024-.083-.071-.107-.118-.023-.048-.154-.154-.201-.26a2.713 2.713 0 0 0-.25-.273c-.07-.095-.106-.178-.19-.272a1.114 1.114 0 0 0-.118-.119c-.07 0 0-.07-.083-.13l-.213-.249c0-.07-.154-.237-.237-.26-.083-.024-.13 0-.19 0s0-.142.095-.19c.095-.047.142-.154.237-.225.095-.07.178-.106.26-.177.084-.071 0-.083.072-.107.071-.023.071 0 .095 0l.249-.213s0-.083.107-.095h.095c0-.082.142-.082.19-.165.047-.083.177-.107.248-.178a.925.925 0 0 1 .25-.225c.106 0 .13-.154.237-.201.106-.047.142 0 .178-.142.035-.142 0 0 .094 0 .095 0 .12.07.155.118.066.112.15.212.249.296.048.066.099.13.154.19 0 0 0 .106.095.165.095.06.201.154 0 .166a.392.392 0 0 1-.202 0s-.142.119-.19.154l-.19.13s-.094.119-.154.166l-.177.107c-.072.059-.155.094-.202.177-.048.083-.119.071-.178.13-.06.06-.356.166-.13.308.225.142.166.237.272.355.107.119.19.225.297.308.107.083 0 .166.107.13.106-.035-.048-.2.023-.2l.356-.285c.109-.122.232-.229.368-.32.071 0 .071-.106.071-.177v-.083h.071s.13.118.154.142l.143.178a.77.77 0 0 1 .118.177c0 .071.083.071.13.13l.072.071v.119c0 .024.118.095.166.154.047.059 0 .154-.107.142h-.214l-.153.106c-.095.071-.143.178-.25.225a.51.51 0 0 0-.142.13c-.048.04-.1.076-.154.107-.06 0-.107.071-.13.13-.024.06 0 .06 0 .142 0 .083.118.13.177.202.06.07.06.118.107.177l.178.19s.119.083.142.165c.024.083.072.154.13.119.06-.036.072-.095.131-.142a.617.617 0 0 1 .237-.166c.072 0 .084-.107.131-.13l.154-.107c.13-.085.27-.157.415-.213.04-.046.084-.09.13-.13.05-.038.102-.074.155-.107a.733.733 0 0 0 .095-.284c0-.142.213.154.225.19.012.035.095 0 .119.118.023.118.07 0 .118.107.048.106.107.189.166.26.06.071.25.19.155.272-.095.083-.392.154-.546.296h.047zm-3.44-2.628h-.082c-.024 0 .107-.083.13-.107a.794.794 0 0 0 .166-.13c0-.059 0-.142.143-.154.142-.012.201-.2.332-.26.13-.06.154-.071.166-.13.012-.06.083-.107.083 0a.178.178 0 0 0 .107.154s.118.13 0 .142c-.119.011-.285 0-.38.106-.095.107-.237.166-.344.296-.107.13-.13.071-.19.119-.059.047 0 .106-.106.106-.107 0-.048-.118-.072-.142h.048zm1.353 1.681c-.06 0 0-.07 0-.07a.45.45 0 0 0 .237-.178c0-.107.154-.13.237-.214.083-.082.083-.094.143-.094.059 0 0 .07 0 .094 0 .024.225.154.095.214-.13.059-.19-.071-.25 0-.06.08-.127.156-.201.224 0 0-.083 0-.142.083-.06.083-.06.071-.107 0-.048-.07 0-.035-.06-.059h.048zM88.811 84.59c-.083 0-.107.119-.178.154l-.225.166s-.083 0-.119.083c-.035.083 0 0 0 0s-.332.106-.486.19a.202.202 0 0 1-.166 0h-.214a.69.69 0 0 1-.237 0 2.09 2.09 0 0 0-.237-.107c-.13 0-.213-.213-.368-.237-.154-.024 0-.095-.13-.13-.13-.036-.095-.095-.166-.142-.071-.048-.25-.26-.403-.356-.155-.094-.06-.07-.119-.118h-.083l-.285-.237c-.106-.142-.284-.213-.391-.367l-.202-.166c-.07 0-.178-.094-.213-.177-.036-.083-.261-.237-.368-.403a1.549 1.549 0 0 1-.26-.959c.018-.085.045-.169.082-.248 0-.095 0-.178.083-.26.083-.084.071-.084.083-.143a.154.154 0 0 1 0-.083c.083 0 0-.083.095-.154.095-.07.178-.165.273-.272.095-.106.095-.201.178-.237.083-.035.107-.106.166-.177a1.08 1.08 0 0 1 .225-.154c.095-.072.199-.132.309-.178.095 0 .154-.094.237-.083.083.012.13-.059.225 0 .095.06.154 0 .226 0l.332.119c.095 0 .178.106.272.13.087.01.165.058.214.13 0 0 .083 0 .119.083l.118.119c.071 0 .225.153.119.248-.107.095-.13.083-.154.154-.024.071-.238.213-.297.343-.06.13-.13.119-.178.19-.047.07-.107.142-.154.142s-.095-.083-.095-.13c0-.048 0-.119-.071-.154-.071-.036-.083-.071-.142-.083a.404.404 0 0 1-.119 0 .487.487 0 0 0-.261 0l-.142.07h-.107l-.202.226a.804.804 0 0 0-.19.58c.028.103.068.203.12.296.06.084.127.163.2.237 0 0 0 .094.096.13l.13.095.913.805s.095 0 .107.094c.044.07.111.12.19.142.095 0 .083.13.19.143.106.011.154 0 .249.07a.475.475 0 0 0 .332-.082c.039.01.08.01.118 0 .043-.037.083-.076.12-.119 0 0 .082 0 .141-.118.06-.118 0-.083 0-.118 0-.036.072 0 .083 0 .012 0 0-.083 0-.107a.804.804 0 0 0 0-.58.237.237 0 0 0-.094-.095s0-.083-.083-.118c-.084-.036-.084-.178-.19-.166-.107.012-.19.071-.226 0-.035-.071 0-.118.095-.166l.309-.331s.154-.13.166-.19c.012-.059.118-.106.142-.177.024-.071.083-.107.154 0 .071.106.178.118.273.201.095.083 0 .095.095.107.095.011.071 0 .095 0 .057.08.12.155.19.225.08.08.156.168.225.26v.189c.073.19.114.39.118.592v.249c.007.083.007.166 0 .249 0 .094-.154.154-.154.272a.272.272 0 0 1-.142.201s-.071.154-.13.213c-.06.06 0 0-.084 0-.083 0 0 .071 0 .107 0 .035 0 .095-.142.118zm-2.585.533a1.019 1.019 0 0 0-.155-.166c0-.059-.106 0-.142-.083-.036-.083-.095-.106-.166-.154-.071-.047 0-.07-.119-.118a.617.617 0 0 1-.284-.237c-.071-.106-.083-.07-.143-.13-.059-.06 0-.095-.13-.118-.13-.024-.19-.202-.32-.26-.13-.06-.166-.25-.297-.32-.13-.071-.154-.202-.26-.332a1.017 1.017 0 0 1-.131-.331c.107.14.23.267.368.378.07.071.094.154.19.202.094.047.082.118.165.142a.794.794 0 0 1 .309.284c.07.095.201.13.272.225.079.088.166.167.261.237.06 0 .083 0 .119.118.036.118.107.071.154.118a.652.652 0 0 0 .13.119v.083h.107c.129.13.272.245.427.343.083 0 .155.107.226.13.07.024.154 0 .19 0a.237.237 0 0 0 .213.071h.356a.285.285 0 0 0 .213 0l.25-.07.237-.12.19-.094c.082 0 .118-.13.201-.177.146-.1.285-.212.415-.332.06-.07.111-.145.154-.225 0-.083.119-.13.166-.201.048-.071 0-.083 0-.119l.071-.082a.946.946 0 0 0 .095-.19 1.561 1.561 0 0 1-.225.58v.107c0 .023-.071.083-.095.13-.024.047-.166.142-.19.213-.023.071-.26.272-.38.415-.118.142-.355.224-.51.378a.404.404 0 0 1-.26.119.844.844 0 0 1-.25 0H87.4a1.342 1.342 0 0 1-.285-.095c-.083 0-.166 0-.237-.095a.226.226 0 0 0-.107 0s-.071-.07-.107-.094a.89.89 0 0 0-.154-.071s-.07-.071-.118-.107l-.166-.071zm.415-3.552c.142 0 .58-.592.64-.663.06-.07.142 0 .178.095.036.095-.107.13-.13.166-.024.035-.143.106-.166.19a.296.296 0 0 1-.155.165c-.07 0-.106.154-.154.213-.058.048-.113.1-.166.154-.095.106-.083 0-.118-.071-.036-.071.011-.13.011-.13a1.52 1.52 0 0 0-.332-.083H85.965c-.048 0-.309.19-.404.296a.567.567 0 0 1 .095-.415.937.937 0 0 1 .261-.213c.071 0 .083-.083.166-.106a.368.368 0 0 1 .25 0c.082 0 0 .094 0 .154a.26.26 0 0 0 .296.2l.012.048zm1.518 1.54l-.083-.107h-.32c-.119 0 .118-.237.177-.26a.84.84 0 0 1 .214.414l.012-.048zM92.725 78.694l-.142-.083s-.071 0-.143-.07c-.07-.072 0-.072-.083-.095-.083-.024-.07 0-.106 0-.036 0-.071-.071-.119-.107l-.13-.095h-.119c-.024 0 0-.082-.071-.094-.071-.012-.083 0-.154-.071a2.088 2.088 0 0 0-.273-.166c-.071 0-.071 0-.095-.083-.024-.083-.083 0-.119-.07a.997.997 0 0 0-.166-.072l-.13-.095-.593-.39a2.125 2.125 0 0 0-.285-.142c-.095 0-.166-.13-.273-.19-.106-.059-.166-.118-.26-.19-.095-.07-.226-.07-.285-.141a.688.688 0 0 0-.285-.166c-.083 0-.083-.118-.201-.13-.119-.012-.072-.071-.107-.095-.036-.024 0 0-.095 0h-.178c-.012 0 0-.166 0-.201 0-.036.071 0 .083-.071.012-.071 0-.071 0-.107 0-.035.095 0 .095-.106v-.095s0-.142.107-.19c.106-.047 0-.13.13-.177.13-.048 0-.142.095-.19.095-.047.095-.118.166-.082.071.035 0 .118 0 .189.068.06.144.112.225.154.107.06.155.13.261.19.107.058.107 0 .155.094.047.095.083 0 .13.071l.38.142c.106.071.19.083.26.166a.7.7 0 0 0 .261.142s.13.13.166 0a.177.177 0 0 1 0-.095.32.32 0 0 0 .107-.19c0-.07.095-.082.107-.165a.32.32 0 0 1 .13-.178c.107-.118.119-.26.226-.39.106-.13.118-.13 0-.154-.119-.024-.095-.107-.19-.107s-.142-.106-.202-.154l-.095-.059-.355-.225c-.072 0-.166-.059-.226-.142-.059-.083-.118 0-.19-.106a.38.38 0 0 1-.19-.107c-.07-.106-.094 0-.165 0-.071 0-.202 0-.107-.154v-.106s0-.083.083-.119c.083-.035.083 0 .083-.118a.378.378 0 0 1 0-.107c.083 0 .107-.142.166-.225.06-.083.214-.497.332-.355.119.142 0 .119.06.166.059.047.07 0 .106 0 .036 0 .083.095.119.118a.783.783 0 0 0 .308.166c.107 0 .154.142.25.166.106.04.205.096.296.166l.095.082s.07 0 .118.071c.207.113.405.24.593.38.194.1.38.215.558.343h.154l.13.094.143.071s0 .083.07.107c.086.03.17.066.25.107l.095.094c.095.095.095 0 .13.06.117.05.229.114.332.189 0 .083.19.095.25.177a.558.558 0 0 0 .462.19s.225 0 .154.106c-.071.107-.06 0-.083.071-.024.071 0 0 0 .095s-.154.225-.237.367c-.083.142-.095 0-.083.107a.13.13 0 0 1 0 .106c-.083 0-.095.107-.142.166-.048.06 0 .166-.083.19-.083.023-.107 0-.119-.095a.32.32 0 0 0-.154-.202c-.107 0-.166-.118-.261-.177l-.581-.332s0-.094-.107-.106c-.107-.012-.071 0-.13 0a.463.463 0 0 0-.273-.166c-.071 0-.071-.06-.13-.095-.06-.035-.096 0-.131-.07-.036-.072-.083 0-.154.094-.072.095-.083.154-.13.225l-.096.178-.118.165c0 .071-.072.13-.107.19-.036.059-.308.296 0 .355.135.059.263.134.38.225a.783.783 0 0 1 .201.142c0 .071.142 0 .202.106.059.107.13 0 .19.095.059.095.094.107.177.142l.214.142h.107c.035 0 0 0 .083.095a.345.345 0 0 0 .19 0c.094 0 .118-.071.177 0 .06.071-.178.284-.213.39-.036.107-.19.214-.226.356-.035.142 0 .07-.083.106-.083.036 0 .071 0 .107 0 .036-.094.107-.13.178-.036.07-.154-.119-.19-.202a.843.843 0 0 1-.249.071zm.19.628s-.166 0-.214-.107c-.047-.106-.19-.13-.19-.201 0-.071-.177-.083-.248-.13-.072-.048-.119-.13-.214-.154l-.249-.119c-.071 0 0-.094-.142-.106-.143-.012-.155-.107-.214-.142l-.474-.272c-.071 0-.119-.13-.214-.166l-.237-.13c-.071 0-.119-.142-.202-.154-.083-.012-.083 0-.154-.095l-.201-.083c-.083 0-.13-.118-.226-.166-.095-.047-.106-.106-.201-.118-.095-.012 0-.095-.13-.107-.131-.011-.285-.189-.44-.272l-.19-.118h-.154s-.154 0-.106-.119l.07-.13s0-.154.096-.106c.095.047 0 .082.13.106.13.024.202.142.297.201.095.06.106 0 .154.083.047.083.107.06.154.083a.95.95 0 0 0 .308.19c.139.074.27.161.392.26 0 0 .107.083.178.118l.19.083s0 .083.118.107h.095c.071 0 .107.083.178.118.065.024.126.06.178.107.067.028.13.064.19.106a.344.344 0 0 0 .213.13c.083 0 .083.095.178.107.095.012.13.095.166.13a.309.309 0 0 0 .19.107c.095 0 .142.106.213.142.071.035.071 0 .107 0l.083.071.178.118s.142 0 .19.119c.047.118 0 .07 0 .13a.166.166 0 0 0 .083.095c.106.059.154.106.273.083.118-.024.19-.178.284-.32.095-.142.261-.225.261-.379s0-.178.107-.166c.107.012.154 0 .178 0 .023 0-.178.296-.226.38-.047.082-.106.106-.118.177a.497.497 0 0 1-.107.19c-.095 0-.083.141-.13.212l-.107.178c-.119.177-.178-.142-.214-.201-.035-.06-.118.13-.13.13zm-2.775-4.89c.083 0 .13.071.213.107l.119.083h.106c.036 0 .095.106.155.154l.403.225s.19 0 .118.142c-.07.142-.07.165-.13.083-.06-.083-.142-.06-.19-.13a.344.344 0 0 0-.201-.095c-.083 0-.143-.119-.202-.154a.558.558 0 0 0-.107 0s0-.06-.083-.083c-.083-.024-.178 0-.225-.119-.048-.118 0 0-.143 0-.142 0-.225 0-.177-.094.051-.077.099-.156.142-.237.071-.024.095.095.202.118zm4.495 2.522s0-.107.07-.154c.072-.047.072-.07.108-.142.035-.071 0-.13.083-.166a.272.272 0 0 0 .118-.177c0-.083 0 0 .119 0 .118 0 0 .236 0 .284-.09.113-.173.232-.25.355 0 .071-.106.083-.142.154l-.106.178c0 .07 0 .165-.13.2-.131.036-.084-.106-.084-.153s-.13-.119-.201-.154c-.072-.036-.155-.166-.25-.19-.094-.023-.355-.307-.58-.355a1.685 1.685 0 0 1-.273-.165c-.107 0-.178-.119-.285-.166-.107-.047-.225-.237-.273-.095-.047.142-.095.095-.107.166-.012.07-.213.213-.213.343 0 .13-.154 0-.178 0-.024 0 0-.118.071-.142a.982.982 0 0 0 .107-.19s.095-.082.107-.165a.308.308 0 0 1 .118-.201c.071 0 0-.119.119-.107.118.012.13.095.178.119.047.023.154.07.19.13.035.059.272.13.403.237.13.106.13 0 .178.13.047.13.13 0 .178.13.047.13.083 0 .154 0 .07 0 0 .071.07.083.072.012.108 0 .143.106.036.107 0 .178.119.225a.368.368 0 0 0 .225 0 .403.403 0 0 0 .214-.118z"/>
            <ellipse cx="3.997" cy="58.189" fill="#8E1537" rx="1.743" ry="1.74"/>
            <ellipse cx="95.145" cy="58" fill="#8E1537" rx="1.743" ry="1.74"/>
            <path fill="#C8A791" d="M72.408 37.59h-.071a8.789 8.789 0 0 0-6.808 1.74l-.13.082c-.273.166-.534.332-.783.51a8.55 8.55 0 0 0-.736.556 8.079 8.079 0 0 0-.462.438 16.468 16.468 0 0 0-1.78 1.93l-.355.461-.403.569c-.13.19-.237.367-.344.532-.368.58-.593 1.007-.676 1.184a57.353 57.353 0 0 1-9.583 2.806c-3.316.65-6.691.949-10.07.888-1.637 0-3.262-.095-4.875-.284a76.347 76.347 0 0 1-2.372-.284h-.26l-3.345 4.132S26.46 55.36 26.39 56.4c0 0 2.751-1.302 3.332-1.089 0 0-4.056 4.061-4.424 8.288l2.242-.77c6.855-2.806 9.227.39 9.227.39l6.642.593s7.354-2.451 13.652.722c5.254 2.64 4.827 5.375 4.934 5.54a27.624 27.624 0 0 0-5.93-3.385s7.341 5.398 7.555 10.24c0 0 .794 1.599.296 2.368a6.494 6.494 0 0 0 1.803-4.203s1.091 1.184.949 1.883c0 0 1.897-2.676 1.826-4.262a15.916 15.916 0 0 0 3.25-5.719s1.518 1.184 1.732 1.729a7.79 7.79 0 0 0-.866-5.351c.937.529 1.812 1.16 2.61 1.882a10.4 10.4 0 0 0-2.895-5.92l2.372 1.184c.356.142 0-7.103-2.253-10.477a5.425 5.425 0 0 1 .237-1.788c.57.277 1.171.484 1.79.616l.096-2.131s1.186 1.491 1.316 1.409a6.29 6.29 0 0 0 .522-1.717l.854.556s1.945-7.6-4.85-9.4zM35.795 41.295v-.142-.071a33.897 33.897 0 0 1 1.886-6.251c.219-.577.476-1.139.77-1.682a13.907 13.907 0 0 0-8.302-2.285c.955.691 1.83 1.485 2.61 2.368 0 0-3.843-.296-4.745.427a15.048 15.048 0 0 1 3.19 1.692s-2.905-.236-3.557.415a35.14 35.14 0 0 0 4.092 6.582c1.47-.355 2.74-.686 4.056-1.053z"/>
            <path fill="#EDD7C3" d="M56.053 66.69c2.11.879 4.101 2.016 5.93 3.386-.107-.166.32-2.901-4.934-5.541-6.298-3.173-13.652-.722-13.652-.722l-6.63-.592s-2.372-3.197-9.239-.38a5.923 5.923 0 0 0-.996 1.114 14.81 14.81 0 0 0 .747 13.484l.878-2.249c-.119 1.125 1.376 4.416 1.376 4.416l.723-1.302c3.297 4.345 10.081 5.173 10.081 5.173 17.518 1.906 23.27-6.523 23.27-6.523-.213-4.866-7.554-10.264-7.554-10.264z"/>
            <path fill="#EDD7C3" d="M53.218 47.262s-5.563 1.03-8.907 4.345l-1.708-.083c-2.752-4.428-9.263-4.002-9.263-4.002a10.61 10.61 0 0 0-6.713 3.552l3.95-.829A9.827 9.827 0 0 0 26.9 53.43l2.502-.628s7.116-2.51 12.382.995a13.097 13.097 0 0 1-4.46 8.95 7.461 7.461 0 0 1 4.27-.213c.713.078 1.364.44 1.803 1.006l.712-9.305c.949-.64 7.401-4.736 13.818-.84.8.429 1.565.92 2.289 1.467l-.166-.284a6.46 6.46 0 0 0-1.744-3.421c1.086.219 2.133.598 3.107 1.124.617.51-.249-5.623-8.195-5.02z"/>
            <path fill="#FFF" d="M51.202 56.946c0 .35-.121.689-.344.959l3.854-.592a2.567 2.567 0 0 0 .783-1.894l-4.578.65c.184.256.283.563.285.877zM48.118 56.472v.154a.816.816 0 0 1 .06-.154h-.06z"/>
            <path fill="#000" d="M55.436 54.187l-7.674 1.102a.605.605 0 0 0-.51.698c.037.304.299.53.605.52h.332a.816.816 0 0 0-.06.155 1.465 1.465 0 0 0 0 .32 1.563 1.563 0 0 0 1.009 1.444v.083c.029.14.153.24.296.237l5.385-.83a.288.288 0 1 0-.095-.567l-3.854.591a1.501 1.501 0 0 0 0-1.835l4.578-.65h.106a.617.617 0 0 0 .522-.7.616.616 0 0 0-.64-.568z"/>
            <path fill="#FFF" d="M34.893 55.821a1.432 1.432 0 0 1-.687 1.184l3.736.58c.115.02.206.11.225.225.598-.339.969-.97.973-1.657l-4.21-.604c0 .092-.012.184-.037.272zM32.154 55.158v.012l.012-.012z"/>
            <path fill="#000" d="M37.953 58.177a.284.284 0 0 0 .273-.237v-.082a.273.273 0 0 0-.225-.225l-3.736-.58c.415-.253.674-.699.688-1.184.012-.09.012-.182 0-.273l4.21.604h.261a.58.58 0 0 0 .57-.485.58.58 0 0 0-.487-.651l-7.211-1.042a.599.599 0 0 0-.63.821.598.598 0 0 0 .476.363h.095a1.36 1.36 0 0 0-.166.65c0 .472.23.914.616 1.185a.165.165 0 0 0 0 .083.272.272 0 0 0 .226.307l5.052.77-.012-.024zM35.285 48.955c1.581.165 3.206.26 4.875.284 3.378.06 6.753-.237 10.07-.888a57.353 57.353 0 0 0 9.582-2.806c.083-.154.309-.58.676-1.184.107-.166.214-.343.344-.533-.593.13-1.186.249-1.767.344a42.163 42.163 0 0 1-22.962-2.534.462.462 0 0 1-.296-.331c-1.317.367-2.645.698-3.962 1.03a29.693 29.693 0 0 0-3.38.935 2.2 2.2 0 0 0-.949 2.9c.451 1.184 2.088 1.8 3.214 2.143.63.168 1.273.283 1.922.344h.26c.784.118 1.578.213 2.373.296z"/>
            <path fill="#8E1537" d="M35.795 41.082v.248a.462.462 0 0 0 .296.332 42.163 42.163 0 0 0 22.974 2.533 29.104 29.104 0 0 0 1.767-.343l.404-.568c.118-.154.225-.308.355-.462.541-.69 1.136-1.335 1.78-1.93.154-.154.296-.296.462-.438a8.55 8.55 0 0 1 .735-.556c.25-.178.51-.344.783-.51l.13-.082a17.642 17.642 0 0 0-2.371-6.985 9.934 9.934 0 0 0-.665-.912c.095-.497.178-.983.238-1.48.274-1.823.242-3.68-.095-5.493a.616.616 0 0 0-.451-.486 3.895 3.895 0 0 0-2.372.652c-.771.355-1.524.75-2.254 1.184a26.49 26.49 0 0 0-1.945 1.302c-.273-.071-.533-.142-.806-.19a18.476 18.476 0 0 0-5.824-.106l-.723.106-.76.119-.165-.344-.38-.77c-.427-.887-.842-1.799-1.305-2.675a1.424 1.424 0 0 0-1.814-.864c-.771.332-1.186 1.255-1.566 1.93a16.89 16.89 0 0 0-2.11 5.079c-.12.509-.214 1.042-.369 1.55-.164.45-.387.876-.664 1.267-.201.32-.391.64-.557.96-.293.53-.55 1.08-.771 1.645a33.898 33.898 0 0 0-1.957 6.287z"/>
            <path fill="#EDD7C3" d="M60.24 54.815v.06-.06z"/>
            <path fill="#000" d="M32.38 34.05c1.98.508 3.972.958 5.93 1.373a.35.35 0 0 0 .386-.464.349.349 0 0 0-.268-.223c-2-.403-3.977-.86-5.93-1.373-.427-.107-.546.568-.119.686zM31.62 37.27c1.957 0 4.104.165 6.073.118a.343.343 0 0 0 0-.675c-2.029 0-4.021-.083-6.085-.13-.439 0-.462.698 0 .686h.012zM48.794 37.092l11.99-.272c.452 0 .38-.699 0-.687l-12.002.272c-.45 0-.38.699.071.687h-.059zM48.213 38.95l11.09 2.949c.438.118.557-.569.13-.687l-11.09-2.936c-.427-.119-.545.568-.118.675h-.012zM44.678 36.228a1.446 1.446 0 0 0-.58-.58l-.214-.13c-1.008-.368-2.87-.83-3.653.212a1.442 1.442 0 0 0-.119 1.445c.313.483.818.81 1.388.9.996.307 2.585.58 3.178-.545.2-.411.2-.891 0-1.302zM48.758 33.007c-.986.349-1.935.793-2.834 1.326-.392.213 0 .77.403.557.01.224.113.435.285.58a.998.998 0 0 0 1.482-.414.91.91 0 0 0-.13-.96l.996-.378c.463-.213.213-.853-.202-.71zM40.088 31.966a.35.35 0 0 0-.45.532c.064.041.124.089.178.142a.77.77 0 0 0-.273.427.65.65 0 0 0 0 .556.735.735 0 0 0 1.186.13 1.29 1.29 0 0 0 .095-.177l.13.106c.309.32.747-.213.439-.533a16.108 16.108 0 0 0-1.305-1.183z"/>
            <path fill="#EDD7C3" d="M63.821 45.9a20.775 20.775 0 0 1 6.049 2.64l-.119-1.752-3.937-3.73L63.82 45.9z"/>
            <path fill="#000" d="M72.67 48.28s-5.575-3.291-7.603-6.843c0 0 .094 3.8 7.377 8.619M27.943 62.664c-.106.083-2.834 2.629-2.265 7.826.133 2.08.643 4.117 1.506 6.014l.57-1.468a.439.439 0 0 1 .45-.272c.2.021.358.179.38.379.166 1.22.489 2.414.96 3.551l.333-.592a.439.439 0 0 1 .379-.225.415.415 0 0 1 .38.225s3.32 5.754 15.964 5.21c10.793-.462 15.418-5.103 16.604-6.512 0 0 .368-.402.392-.426l.237 1.006c-1.186 1.48-6.001 6.322-17.162 6.796h-1.755c-9.584 0-13.415-3.552-14.589-5.09l-.38.686a.463.463 0 0 1-.379.225.51.51 0 0 1-.38-.213 11.259 11.259 0 0 1-1.185-3.067l-.333.829a.45.45 0 0 1-.308.272.44.44 0 0 1-.391-.118c-.06 0-1.542-1.527-2.17-7.163-.451-4.084.924-6.405 1.778-7.435.012.048 1.388-.461 1.364-.438zM62.41 31.385s-.403 1.575-.664 2.806a9.021 9.021 0 0 0 1.316-1.882 5.458 5.458 0 0 0-.652-.924zM53.372 29.266a16.388 16.388 0 0 1 2.135-2.155 7.52 7.52 0 0 0-1.257-.26 21.57 21.57 0 0 0-.878 2.415zM47.442 27.052a22.363 22.363 0 0 0-5.93 2.842c-.878.592 1.079-2.427 5.491-3.8l.439.958zM65.517 39.282a10.508 10.508 0 0 0-6.215 6.89l1.032.296c.32-2 1.756-4.345 5.183-7.186z"/>
            <path fill="#000" d="M33.031 52.02s-2.74 7.317-4.234 10.336l-.925.391S29.805 58.426 30.73 56c.819-2.202 1.483-3.907 1.483-3.907l.818-.071zM41.595 62.475a7.461 7.461 0 0 0-4.27.213 1.897 1.897 0 0 0-.913.793c-.22.38-.25.839-.083 1.243a5.315 5.315 0 0 0 3.202 2.025l-.095 3.019a4.29 4.29 0 0 1-.996.094c-.273 0-.45 0-.546.237a.426.426 0 0 0 .226.568.998.998 0 0 0 .39.06c1.976-.21 3.93-.574 5.848-1.09l.166 1.184c.035.21.215.364.427.367h.119a.438.438 0 0 0 .367-.497l-.367-2.652a.439.439 0 0 0-.866.13l.083.604c-1.364.32-2.811.64-3.926.84l.107-2.876c1.257-.26 3.12-1.184 3.084-2.924a1.064 1.064 0 0 0-.095-.332 2.646 2.646 0 0 0-1.862-1.006z"/>
        </g>
    </g>
</svg>
