<?xml version="1.0" encoding="UTF-8"?>
<svg width="59px" height="59px" viewBox="0 0 59 59" version="1.1" xmlns="http://www.w3.org/2000/svg" xmlns:xlink="http://www.w3.org/1999/xlink">
    <!-- Generator: sketchtool 52.6 (67491) - http://www.bohemiancoding.com/sketch -->
    <title>8E029885-BBCA-4BE8-9F21-136C1090C79D</title>
    <desc>Created with sketchtool.</desc>
    <g id="Symbols" stroke="none" stroke-width="1" fill="none" fill-rule="evenodd">
        <g id="Caritas" transform="translate(-272.000000, 0.000000)" fill="#000000">
            <g id="meh" transform="translate(272.000000, 0.000000)">
                <path d="M29.5,0 C13.2339565,0 0,13.2339565 0,29.5 C0,45.7660435 13.2339565,59 29.5,59 C45.7660435,59 59,45.7660435 59,29.5 C59,13.2339565 45.7660435,0 29.5,0 Z M29.5,56.4347826 C14.6473913,56.4347826 2.56521739,44.3526087 2.56521739,29.5 C2.56521739,14.6473913 14.6473913,2.56521739 29.5,2.56521739 C44.3526087,2.56521739 56.4347826,14.6473913 56.4347826,29.5 C56.4347826,44.3526087 44.3526087,56.4347826 29.5,56.4347826 Z" id="Shape" fill-rule="nonzero"></path>
                <path d="M19.2391304,28.2173913 C21.3605652,28.2173913 23.0869565,26.491 23.0869565,24.3695652 C23.0869565,22.2481304 21.3605652,20.5217391 19.2391304,20.5217391 C17.1176957,20.5217391 15.3913043,22.2481304 15.3913043,24.3695652 C15.3913043,26.491 17.1176957,28.2173913 19.2391304,28.2173913 Z M19.2391304,23.0869565 C19.9458478,23.0869565 20.5217391,23.6628478 20.5217391,24.3695652 C20.5217391,25.0762826 19.9458478,25.6521739 19.2391304,25.6521739 C18.532413,25.6521739 17.9565217,25.0762826 17.9565217,24.3695652 C17.9565217,23.6628478 18.532413,23.0869565 19.2391304,23.0869565 Z" id="Shape" fill-rule="nonzero"></path>
                <path d="M39.7608696,20.5217391 C37.6394348,20.5217391 35.9130435,22.2481304 35.9130435,24.3695652 C35.9130435,26.491 37.6394348,28.2173913 39.7608696,28.2173913 C41.8823043,28.2173913 43.6086957,26.491 43.6086957,24.3695652 C43.6086957,22.2481304 41.8823043,20.5217391 39.7608696,20.5217391 Z M39.7608696,25.6521739 C39.0541522,25.6521739 38.4782609,25.0762826 38.4782609,24.3695652 C38.4782609,23.6628478 39.0541522,23.0869565 39.7608696,23.0869565 C40.467587,23.0869565 41.0434783,23.6628478 41.0434783,24.3695652 C41.0434783,25.0762826 40.467587,25.6521739 39.7608696,25.6521739 Z" id="Shape" fill-rule="nonzero"></path>
                <path d="M42.326087,35.9130435 L16.673913,35.9130435 C15.965913,35.9130435 15.3913043,36.4876522 15.3913043,37.1956522 C15.3913043,37.9036522 15.965913,38.4782609 16.673913,38.4782609 L42.326087,38.4782609 C43.034087,38.4782609 43.6086957,37.9036522 43.6086957,37.1956522 C43.6086957,36.4876522 43.034087,35.9130435 42.326087,35.9130435 Z" id="Path"></path>
            </g>
        </g>
    </g>
</svg>