<svg xmlns="http://www.w3.org/2000/svg" width="59" height="59" viewBox="0 0 59 59">
    <g fill="#000" fill-rule="evenodd">
        <path fill-rule="nonzero" d="M29.5 0C13.234 0 0 13.234 0 29.5S13.234 59 29.5 59 59 45.766 59 29.5 45.766 0 29.5 0zm0 56.435c-14.853 0-26.935-12.082-26.935-26.935 0-14.853 12.082-26.935 26.935-26.935 14.853 0 26.935 12.082 26.935 26.935 0 14.853-12.082 26.935-26.935 26.935z"/>
        <path fill-rule="nonzero" d="M23.087 24.37a3.853 3.853 0 0 0-3.848-3.848 3.853 3.853 0 0 0-3.848 3.848 3.853 3.853 0 0 0 3.848 3.847 3.853 3.853 0 0 0 3.848-3.847zm-5.13 0c0-.707.575-1.283 1.282-1.283.707 0 1.283.576 1.283 1.283 0 .706-.576 1.282-1.283 1.282a1.285 1.285 0 0 1-1.282-1.282zM39.76 20.522a3.853 3.853 0 0 0-3.847 3.848 3.853 3.853 0 0 0 3.848 3.847 3.853 3.853 0 0 0 3.848-3.847 3.853 3.853 0 0 0-3.848-3.848zm0 5.13a1.285 1.285 0 0 1-1.282-1.282c0-.707.576-1.283 1.283-1.283s1.282.576 1.282 1.283c0 .706-.575 1.282-1.282 1.282z"/>
        <path d="M41.899 36.24a1.282 1.282 0 0 0-1.811.1c-2.676 2.99-6.534 4.703-10.588 4.703-4.053 0-7.912-1.713-10.588-4.703a1.282 1.282 0 1 0-1.911 1.711c3.162 3.532 7.717 5.558 12.499 5.558 4.783 0 9.339-2.027 12.499-5.558a1.283 1.283 0 0 0-.1-1.81z"/>
    </g>
</svg>
