<svg xmlns="http://www.w3.org/2000/svg" width="423" height="498" viewBox="0 0 423 498">
    <g fill="none" fill-rule="evenodd">
        <path fill="#C8A791" d="M381.463 124.228h-1.121c-12.387-3.356-35.196-.326-54.967 13.984l-1.028.653a115.315 115.315 0 0 0-6.31 4.056c-2.057 1.445-4.067 2.983-5.936 4.661-1.87 1.678-2.524 2.33-3.786 3.496a128.132 128.132 0 0 0-14.35 15.616c-.981 1.259-1.963 2.517-2.85 3.776-.889 1.258-2.338 3.123-3.32 4.661-.98 1.539-1.916 2.89-2.757 4.242-2.945 4.662-4.674 8.111-5.422 9.323a470.233 470.233 0 0 1-77.495 22.702 388.398 388.398 0 0 1-81.469 7.178c-13.18 0-26.361-1.025-39.448-2.33a686.59 686.59 0 0 1-19.21-2.238l-2.057-.28-27.016 33.47s-23.37 20.23-24.025 29.04c0 0 22.295-10.534 26.97-8.81 0 0-32.719 32.63-35.757 67.265l18.089-6.293c56.088-22.748 74.784 3.17 74.784 3.17l53.751 4.662s59.454-19.858 110.401 5.78c42.394 21.35 38.982 43.491 39.823 44.796 0 0-30.241-22.281-47.769-27.362 0 0 59.36 43.584 61.137 82.74 0 0 6.45 12.866 2.337 19.3 0 0 15.237-15.197 14.676-33.89 0 0 8.787 9.93 7.619 15.197 0 0 15.377-21.63 14.816-34.495 0 0 20.94-23.307 26.222-46.195 0 0 12.34 9.323 14.022 13.984 0 0 5.282-25.172-7.011-43.305 0 0 16.967 9.976 21.08 15.243 0 0-3.506-30.44-23.37-47.966l19.35 9.323c2.851 1.072.327-57.103-18.229-84.7a43.057 43.057 0 0 1 1.917-14.496 61.621 61.621 0 0 0 14.49 5.034l.607-17.108s10.002 12.027 10.703 11.374a52.895 52.895 0 0 0 4.207-13.984l6.87 4.661s15.612-61.391-39.168-75.935zM85.363 154.155a3.487 3.487 0 0 1 0-.7 1.255 1.255 0 0 1 0-.42 2.65 2.65 0 0 1 0-.605 283.778 283.778 0 0 1 15.191-50.437 124.448 124.448 0 0 1 6.263-13.332A112.073 112.073 0 0 0 39.98 70.015s17.574 12.866 21.126 18.646c0 0-31.082-2.33-38.14 3.543 0 0 21.127 8.53 25.8 13.611 0 0-23.37-1.958-28.698 3.31 0 0 16.406 34.355 32.999 53.187a778.089 778.089 0 0 0 32.297-8.157z"/>
        <path fill="#EDD7C3" d="M249.282 359.352c17.527 5.081 47.768 27.363 47.768 27.363-.84-1.305 2.571-23.307-39.822-44.796-50.947-25.639-110.401-5.78-110.401-5.78l-53.751-4.662s-18.697-25.918-74.785-3.17a50.902 50.902 0 0 0-8.04 8.997 119.423 119.423 0 0 0 6.357 108.985l7.058-18.133c-.888 9.09 11.124 35.66 11.124 35.66l5.89-10.488c26.642 35.054 81.562 41.953 81.562 41.953 141.623 15.43 188.13-52.861 188.13-52.861-1.87-39.483-61.09-83.068-61.09-83.068z"/>
        <path fill="#EDD7C3" d="M226.286 202.354s-45.011 8.298-72.027 35.148l-14.022-.746c-22.296-35.707-74.785-32.257-74.785-32.257a85.42 85.42 0 0 0-54.265 28.481l31.97-6.666S22.124 236.663 13.337 252l20.285-5.081s57.257-20.23 100.118 8.064c-2.067 27.797-14.99 53.675-35.99 72.066a60.168 60.168 0 0 1 34.4-1.77c7.76 1.77 12.854 4.66 14.63 8.157l5.703-75.19c7.712-5.22 59.827-37.99 111.802-6.805a143.453 143.453 0 0 1 18.697 11.84l-1.403-2.284a52.344 52.344 0 0 0-14.022-27.643s20.239 4.661 25.1 9.323c4.86 4.661-2.15-45.17-66.371-40.322z"/>
        <path fill="#FFF" d="M209.926 280.667a12.286 12.286 0 0 1-2.757 7.691l31.176-4.661a20.854 20.854 0 0 0 6.263-15.43l-36.925 5.314a12.377 12.377 0 0 1 2.243 7.086zM185.06 276.844c-.02.404-.02.809 0 1.212 0-.42 0-.839.374-1.305l-.373.093z"/>
        <path fill="#000" d="M244.14 258.338l-61.977 8.904a4.944 4.944 0 0 0-4.264 5.245 4.95 4.95 0 0 0 4.965 4.59h2.664c0 .467-.28.886-.374 1.306a12.089 12.089 0 0 0-.28 2.61 12.54 12.54 0 0 0 8.086 11.654 2.464 2.464 0 0 0 0 .606 2.382 2.382 0 0 0 2.337 2.004h.374l43.468-6.666a2.361 2.361 0 0 0 1.963-2.703 2.366 2.366 0 0 0-2.71-1.958l-31.177 4.661a12.286 12.286 0 0 0 2.758-7.691 12.376 12.376 0 0 0-2.243-7.085l36.878-5.548h.888a4.95 4.95 0 0 0 4.183-5.617 4.959 4.959 0 0 0-5.632-4.172l.093-.14z"/>
        <path fill="#FFF" d="M78.119 271.577a11.6 11.6 0 0 1-5.61 9.929l30.195 4.661a2.194 2.194 0 0 1 1.823 1.865c6.03-2.704 7.245-10.209 7.432-13.984l-34.074-4.662c.144.722.222 1.455.234 2.191z"/>
        <path fill="#000" d="M102.377 290.55a2.242 2.242 0 0 0 2.197-1.865 1.488 1.488 0 0 0 0-.653 2.194 2.194 0 0 0-1.823-1.865l-30.194-4.661a11.6 11.6 0 0 0 5.608-9.929 12.228 12.228 0 0 0-.233-2.284l34.073 4.661h2.057a4.663 4.663 0 0 0 .748-9.276l-58.379-7.831a4.717 4.717 0 0 0-5.328 4.009 4.71 4.71 0 0 0 4.02 5.314h.794a11.35 11.35 0 0 0-1.355 5.314 11.692 11.692 0 0 0 5 9.323v.606a2.186 2.186 0 0 0 .388 1.636c.342.472.859.79 1.436.88l40.85 6.247.14.373zM81.017 216.059c13.087 1.305 26.268 2.144 39.448 2.33a388.398 388.398 0 0 0 81.469-7.178 470.233 470.233 0 0 0 77.495-22.701c.655-1.259 2.478-4.662 5.422-9.323.841-1.352 1.73-2.75 2.758-4.242-4.674.979-9.348 1.911-14.022 2.703a341.635 341.635 0 0 1-185.7-20.417 3.872 3.872 0 0 1-2.383-2.703v-.327c-10.657 2.937-21.36 5.64-32.064 8.344a248.25 248.25 0 0 0-27.624 7.599c-9.02 3.496-10.563 15.103-7.431 23.307 3.692 9.742 16.92 14.497 26.034 17.294a91.694 91.694 0 0 0 15.518 2.75l2.056.28c6.45.87 12.792 1.631 19.024 2.284z"/>
        <path fill="#FFB71B" d="M85.363 152.43a2.65 2.65 0 0 0 0 .606c-.023.139-.023.28 0 .42a3.487 3.487 0 0 0 0 .699v.326a3.872 3.872 0 0 0 2.384 2.704 341.635 341.635 0 0 0 185.7 20.417c4.674-.793 9.348-1.725 14.022-2.704.981-1.491 2.15-3.076 3.318-4.661 1.169-1.585 1.87-2.47 2.851-3.776a128.132 128.132 0 0 1 14.35-15.616c1.262-1.165 2.43-2.377 3.786-3.496a183.077 183.077 0 0 1 5.936-4.662c2.056-1.538 4.113-2.75 6.31-4.055l1.028-.653a143.453 143.453 0 0 0-19.164-56.403 86.992 86.992 0 0 0-5.422-7.459c.795-3.962 1.496-7.924 2.01-11.886 1.776-14.777 2.29-32.91-.888-44.378a4.666 4.666 0 0 0-3.599-3.915c-6.917-1.352-13.32 2.237-19.35 5.174-6.03 2.937-12.293 6.386-18.229 9.929s-10.657 6.899-15.798 10.581c-2.197-.512-4.394-1.118-6.59-1.491a149.967 149.967 0 0 0-47.021-.84l-5.89.886-5.936.98a14.201 14.201 0 0 1-1.355-2.798c-1.028-2.05-2.01-4.148-3.038-6.246-3.506-7.179-6.824-14.497-10.564-21.583-2.944-5.5-8.226-9.695-14.676-6.992-6.45 2.704-9.348 10.07-12.667 15.523a137.171 137.171 0 0 0-17.2 41.207c-.935 4.149-1.636 8.438-2.945 12.493a45.08 45.08 0 0 1-5.375 10.302c-1.636 2.564-3.132 5.174-4.674 7.738a124.448 124.448 0 0 0-6.263 13.332 283.775 283.775 0 0 0-15.05 50.297z"/>
        <path fill="#000" d="M57.646 95.56a972.088 972.088 0 0 0 48.33 11.094c3.552.746 4.674-4.661.981-5.5A930.133 930.133 0 0 1 58.581 90.06c-3.459-.886-4.393 4.661-.935 5.5zM51.57 121.664c15.892.233 33.186 1.352 49.171.98a2.753 2.753 0 0 0 2.4-2.728 2.753 2.753 0 0 0-2.4-2.727c-16.36 0-32.718-.652-49.17-1.072-3.6 0-3.74 5.64 0 5.547zM190.436 120.266l97.08-2.238c3.598 0 3.037-5.64-.562-5.547l-97.032 2.238c-3.6 0-3.085 5.593.514 5.547zM185.762 135.23l89.648 23.82c3.505.932 4.393-4.662.981-5.501l-89.648-23.82c-3.505-.886-4.674 4.661-.981 5.5zM157.203 113.18a11.763 11.763 0 0 0-4.674-4.661 7.397 7.397 0 0 0-1.589-.606l-.374-.28c-8.133-2.936-23.37-6.619-29.493 1.772a11.58 11.58 0 0 0-.982 11.7 16.597 16.597 0 0 0 11.171 7.085c7.946 2.424 20.893 4.662 25.66-4.661a11.951 11.951 0 0 0 .281-10.349zM190.155 87.17a136.243 136.243 0 0 0-22.903 10.255c-3.131 1.771 0 6.293 3.272 4.661a6.986 6.986 0 0 0 2.384 4.662 8.104 8.104 0 0 0 6.775 1.183 8.08 8.08 0 0 0 5.237-4.446 7.488 7.488 0 0 0-.841-7.925c2.664-1.072 5.328-2.098 8.086-3.03 2.758-.932 1.402-6.293-2.01-5.36zM120.045 78.639c-2.851-2.191-6.404 2.098-3.553 4.335l1.403 1.165a6.198 6.198 0 0 0-2.197 3.403 5.069 5.069 0 0 0 0 4.662 5.944 5.944 0 0 0 9.909 1.026c.315-.461.596-.944.841-1.446l.982.933c2.57 2.517 6.123-1.818 3.552-4.336a134.633 134.633 0 0 0-10.937-9.742zM300.696 74.117s-3.225 12.726-5.328 22.702a74.25 74.25 0 0 0 10.516-15.243 41.95 41.95 0 0 0-5.188-7.459zM227.08 57.01a133.174 133.174 0 0 1 17.528-17.388 61.796 61.796 0 0 0-10.19-2.097 199.081 199.081 0 0 0-7.338 19.485zM179.171 39.156a179.135 179.135 0 0 0-48.33 22.888c-7.15 4.662 8.741-19.578 44.357-30.672l3.973 7.784z"/>
        <path fill="#EDD7C3" d="M283.075 263.373v.42-.42zM312.007 191.353a170.178 170.178 0 0 1 48.89 21.536l-.934-13.984-31.877-30.16c-3.272 4.475-10.517 14.684-16.079 22.608z"/>
        <path fill="#000" d="M383.567 210.558s-45.058-26.43-61.464-55.657c0 0 .748 30.765 59.594 69.922M325.749 137.886s-36.458 11.234-50.62 55.938l8.32 2.424c2.945-16.455 14.583-35.427 42.3-58.362zM62.975 240.811s-22.108 59.201-34.214 83.534l-7.432 2.657s15.565-34.915 23.043-54.446c6.637-17.34 12.06-30.859 12.06-30.859l6.543-.886zM132.43 325.277a60.168 60.168 0 0 0-34.4 1.771 15.275 15.275 0 0 0-7.665 6.247 11.347 11.347 0 0 0-.701 10.069c3.131 7.411 17.48 14.543 25.94 16.361l-.84 24.426c-2.631.53-5.31.78-7.994.746-2.243 0-3.645 0-4.393 1.865a3.539 3.539 0 0 0 1.776 4.661 8.34 8.34 0 0 0 3.132.42c8.413 0 29.26-4.662 47.348-8.81l1.308 9.323a3.55 3.55 0 0 0 3.506 3.03h.514a3.498 3.498 0 0 0 2.945-3.963l-3.038-21.07a3.518 3.518 0 0 0-3.997-2.96 3.512 3.512 0 0 0-2.968 3.986l.701 4.661c-11.124 2.658-22.762 5.175-31.736 6.853l.794-23.307c10.19-2.145 25.24-10.07 24.913-23.634a6.885 6.885 0 0 0-.748-2.657c-1.776-3.31-6.87-6.247-14.396-8.018z"/>
    </g>
</svg>
